<svg width="1280" height="700" viewBox="0 0 1280 700" fill="none" xmlns="http://www.w3.org/2000/svg">
<rect width="1280" height="700" fill="#0d0d0d"/>
<path d="M513.736 554.394C521.254 519.138 536.578 481.786 537.831 445.589C539.026 411.214 526.169 375.037 522.564 341.035C514.719 266.957 527.827 192.194 535.634 118.097C543.46 43.8044 540.973 -26.4732 534.419 -99.2383C533.494 -109.619 532.781 -120 532.241 -130.362H480.292C480.986 -118.688 481.95 -106.956 483.28 -95.1839C492.166 -17.0324 505.235 48.0351 492.783 129.301C481.68 201.753 468.572 273.44 475.415 346.186C478.846 382.559 490.123 417.854 492.822 454.129C495.636 491.873 485.901 527.012 478.075 563.717C461.826 639.989 440.796 717.357 429.596 794.176C426.936 812.392 425.356 830.666 424.507 848.98H461.498C462.096 831.137 463.387 813.234 465.835 795.175C476.765 714.889 496.831 633.662 513.736 554.394Z" fill="#141414"/>
<path d="M292.949 609.139C292.428 570.788 281.402 531.889 276.564 494.165C270.916 450.114 274.29 408.022 275.427 363.853C279.494 205.748 218.042 60.414 226.851 -97.2796C227.468 -108.307 228.258 -119.334 229.126 -130.362H180.473C179.355 -117.807 178.469 -105.271 177.929 -92.7747C171.028 65.8983 224.095 211.997 230.938 370.376C234.465 452.19 236.258 529.499 247.804 611.588C254.339 658.008 247.515 681.826 234.909 725.975C223.883 764.561 217.425 803.049 211.72 842.752C211.411 844.828 211.161 846.904 210.852 849H250.002C250.715 844.221 251.447 839.441 252.199 834.662C263.611 761.27 293.97 683.667 292.949 609.139Z" fill="#141414"/>
<path d="M586.021 542.289C592.845 470.68 635.021 404.418 630.009 332.769C624.65 256.204 616.959 184.516 623.532 107.031C629.565 35.9696 636.466 -34.6409 643.271 -105.624C644.061 -113.928 644.639 -122.155 645.083 -130.362H588.508C588.43 -120.588 588.488 -110.814 588.777 -101.04C593.076 42.923 560.673 188.669 574.667 333.317C578.465 372.569 584.363 399.325 575.516 439.106C567.593 474.754 557.011 509.638 550.765 545.541C537.349 622.497 514.218 697.907 505.736 775.236C503.057 799.739 501.245 824.34 500.05 848.98H539.546C539.778 824.693 540.298 800.483 541.397 776.43C544.982 696.007 578.426 621.89 586.021 542.289Z" fill="#141414"/>
<path d="M370.284 601.422C382.813 525.347 359.798 446.157 357.562 369.788C355.306 292.812 355.769 218.264 350.738 141.797C345.495 61.8634 332.792 -12.5861 334.103 -93.3427C334.296 -105.722 334.855 -118.061 335.587 -130.362H283.677C282.328 -115.75 281.036 -101.138 279.899 -86.5265C267.813 69.0714 329.072 214.367 317.14 371.708C311.184 450.329 343.876 528.187 338.093 605.379C335.664 637.932 319.993 674.951 313.612 707.465C306.403 744.151 298.866 780.72 293.662 817.739C292.197 828.14 290.751 838.56 289.325 848.961H322.518C323.231 842.301 323.944 835.622 324.715 828.943C333.563 752.789 357.755 677.517 370.284 601.422Z" fill="#141414"/>
<path d="M618.887 792.864C620.448 717.122 629.45 642.887 650.73 569.789C672.57 494.772 684.733 417.502 707.633 341.779C728.875 271.56 718.023 212.995 717.04 141.817C716.018 68.8168 733.309 -1.83298 738.783 -74.128C740.229 -93.1664 740.268 -111.852 739.458 -130.362H697.552C696.993 -122.135 696.087 -113.87 694.718 -105.545C683.076 -33.9946 673.553 34.1676 671.452 106.091C669.332 179.071 678.372 253.814 673.206 326.599C668.233 396.779 635.849 469.309 623.86 539.567C611.08 614.526 583.149 685.332 578.792 761.721C577.135 790.611 576.595 819.717 576.653 848.98H618.27C618.328 830.255 618.501 811.53 618.887 792.864Z" fill="#141414"/>
<path d="M56.3358 848.98H96.3335C110.174 795.195 129.642 740.724 124.149 689.21C115.764 610.55 109.827 531.987 105.355 453.522C96.3335 295.104 58.8995 145.205 52.8853 -11.4697C51.3625 -50.6825 52.442 -90.4047 55.3334 -130.362H17.5524C16.6272 -118.14 15.8947 -105.937 15.4128 -93.7932C12.0781 -8.41415 18.1307 78.5514 27.2675 162.873C36.2502 245.803 56.914 327.324 60.056 411.704C63.0824 492.637 70.6771 573.158 76.5563 654.444C79.6983 698.005 84.2474 733.927 74.0697 776.94C68.3447 801.247 61.8101 824.947 56.3358 848.98Z" fill="#141414"/>
<path d="M205.821 623.653C197.34 542.995 194.101 462.179 185.581 382.285C176.907 300.842 164.32 225.12 149.921 145.95C135.83 68.5034 129.97 -13.1933 133.806 -92.8138C134.404 -105.31 135.29 -117.826 136.35 -130.362H95.2155C93.365 -110.579 92.0735 -90.7964 91.6494 -71.0137C88.0062 96.0229 127.985 258.457 146.123 425.082C155.357 509.795 162.489 598.19 166.537 684.02C168.657 729.03 148.398 765.031 139.512 808.514C136.775 821.892 134.654 835.406 132.823 848.98H172.146C183.48 773.062 213.994 701.374 205.821 623.653Z" fill="#141414"/>
<path d="M-13 814.488V848.98H19.1716C26.3038 820.795 35.3828 793.197 37.3682 764.189C40.4138 719.648 32.1444 675.46 28.3277 631.39C21.2149 549.321 19.0945 467.389 13.5816 385.928C8.35781 308.54 -8.04607 233.209 -12.9422 156.291C-12.9614 155.939 -12.9807 155.606 -13 155.273V683.197C-9.47249 726.915 -7.54489 770.417 -13 814.488Z" fill="#141414"/>
<path d="M392.471 813.058C397.463 768.263 413.096 730.519 424.353 687.741C432.661 656.187 433.625 621.029 440.295 588.71C448.101 550.81 460.438 514.77 453.653 476.752C446.444 436.305 437.037 397.131 433.587 356.097C427.36 281.784 437.615 208.745 450.954 134.844C465.411 54.8122 448.641 -18.9519 438.56 -96.3591C437.075 -107.778 435.957 -119.099 435.09 -130.362H386.283C385.609 -105.82 385.763 -81.2576 387.536 -56.6369C392.586 13.386 402.591 82.2142 403.824 153.275C405.174 230.506 389.502 304.975 396.345 383.029C402.88 457.459 421.327 522.507 404.73 596.858C388.384 670.074 366.602 746.521 358.082 820.677C357.003 830.099 356.213 839.539 355.634 849H389.83C390.331 837.013 391.141 825.045 392.471 813.058Z" fill="#141414"/>
<path d="M780.477 -53.1701C784.949 19.7321 763.476 94.2404 764.555 168.024C765.114 206.806 771.977 241.338 763.418 280.276C755.419 316.61 741.559 351.827 733.174 388.043C714.9 466.958 692.945 544.189 674.941 622.791C657.998 696.771 660.85 773.218 663.8 849H713.917C713.532 841.126 713.088 833.232 712.568 825.358C707.633 752.28 702.41 677.38 718.004 605.829C734.253 531.242 757.558 457.772 775.311 383.048C792.274 311.615 809.738 234.698 812.418 161.854C815.058 90.5385 830.383 25.6081 817.815 -44.2581C812.803 -72.091 809.391 -100.903 807.348 -130.342H775.311C777.104 -104.664 778.897 -78.9464 780.477 -53.1701Z" fill="#141414"/>
<path d="M1204.78 -130.362H1182.23C1177.25 -103.645 1169.33 -77.3011 1162.95 -49.3311C1127.54 106.11 1167.77 264 1139.3 419.715C1124.25 502.058 1135.52 573.178 1141.48 655.815C1146.16 720.765 1111.47 785.48 1094 848.98H1131.86C1134.17 840.127 1136.47 831.313 1138.76 822.538C1155.78 757.157 1166.94 694.42 1173.05 627.061C1179.51 556.118 1163.43 485.037 1180.74 414.897C1215.05 275.967 1163.65 135.882 1180.03 -5.63282C1184.87 -47.2744 1195.89 -88.8181 1204.78 -130.362Z" fill="#141414"/>
<path d="M805.69 608.121C809.835 534.768 831.289 462.904 849.486 391.549C867.759 319.901 866.583 246.431 890.91 175.232C903.516 138.292 915.679 105.386 913.925 66.9955C912.345 32.3072 902.629 -0.774994 896.77 -34.5623C891.276 -66.2342 888.847 -98.1999 888.693 -130.381H848.059C848.984 -104.468 851.066 -78.8285 854.478 -53.5811C859.104 -19.4217 872.135 14.5223 873.735 49.0148C875.412 85.2112 867.219 125.129 858.815 160.816C849.505 200.323 835.78 238.909 828.745 278.69C821.998 316.767 822.865 356.039 812.745 393.41C791.638 471.366 764.305 549.635 757.944 629.96C752.161 703 764.652 775.687 770.57 848.961H819.646C819.164 844.632 818.663 840.284 818.181 835.955C809.796 759.371 801.353 684.764 805.69 608.121Z" fill="#141414"/>
<path d="M918.204 418.638C944.266 272.422 998.412 122.622 984.841 -24.5534C981.603 -59.6138 977.69 -94.9289 975.416 -130.381H929.712C930.001 -112.537 930.849 -94.8897 932.295 -77.5162C939.389 7.39273 957.971 73.0478 932.237 159.367C908.99 237.381 902.263 316.61 883.141 395.075C864 473.618 851.586 553.533 852.3 634.074C852.917 704.195 852.338 778.057 858.468 848.981H908.528C898.639 704.743 892.837 560.995 918.204 418.638Z" fill="#141414"/>
<path d="M993.034 641.458C992.764 566.91 1001.28 493.166 1000.47 419.167C999.665 344.697 1012.48 271.776 1028.17 198.384C1042.98 129.242 1066.67 53.2061 1074.74 -15.5242C1079.39 -55.1092 1072.89 -92.7355 1066.65 -130.362H1022.06C1024.92 -111.656 1027.36 -92.8334 1026.94 -73.4033C1026.09 -34.778 1033.63 4.80698 1029.37 43.491C1024.59 86.8171 1009.13 131.691 999.723 174.566C982.914 251.268 962.269 330.673 958.896 408.472C952.554 554.296 942.145 701.609 952.092 848.961H1001.44C1011.42 782.326 993.284 709.052 993.034 641.458Z" fill="#141414"/>
<path d="M1291.64 178.444C1309.26 251.249 1287.94 322.466 1281.09 397.151C1268.31 536.668 1282.83 677.419 1256.58 816.701C1254.53 827.572 1252.28 838.325 1249.91 848.98H1290.29C1296.26 827.689 1301.05 806.046 1303.84 783.815C1307.64 753.651 1312.88 722.449 1317.04 691.149V55.1647C1313.86 34.6377 1311.15 14.0715 1309.76 -6.49464C1307 -47.5291 1307.91 -88.8769 1310.8 -130.362H1277.47C1275.14 -101.98 1273.63 -73.6383 1273.35 -45.4529C1272.56 30.2503 1273.81 104.759 1291.64 178.444Z" fill="#141414"/>
<path d="M1214.98 181.872C1226.76 260.67 1227.47 326.07 1215.92 405.319C1195.93 542.524 1217.37 689.896 1179.86 824.693C1177.62 832.762 1175.44 840.852 1173.32 848.98H1215.81C1218.45 832.233 1220.74 815.448 1222.57 798.564C1229.9 730.95 1229.09 663.454 1238.98 596.016C1248.4 531.81 1238.65 467.585 1245.59 403.105C1253.68 327.774 1268.82 267.819 1254.09 192.997C1240.92 126.108 1237.65 61.7655 1239.54 -6.39675C1240.69 -47.7837 1244.64 -89.0924 1249.83 -130.342H1225.08C1220.05 -101.06 1215.42 -71.758 1212.28 -42.3778C1204.03 34.5397 1203.66 106.051 1214.98 181.872Z" fill="#141414"/>
<path d="M1119.18 -64.5109C1117.77 -25.0826 1098.16 15.3642 1089.9 54.5771C1081.01 96.7671 1075.28 139.525 1067.5 181.794C1052.89 261.14 1049.57 336.863 1047.16 416.522C1044.79 495.026 1039.68 570.201 1044.27 649.175C1046.49 687.389 1051.25 727.228 1049.3 765.481C1047.8 795.097 1037.16 821.421 1028.44 849H1057.09C1058.3 844.671 1059.54 840.381 1060.79 836.151C1082.26 763.523 1107.55 708.836 1092.84 631.155C1078.77 556.94 1083.96 483.979 1091.78 409.393C1107.61 258.711 1102.31 102.682 1141.98 -46.7261C1149.48 -74.9703 1151.66 -102.686 1151.96 -130.342H1111.14C1115.63 -108.718 1119.99 -87.0554 1119.18 -64.5109Z" fill="#141414"/>

</svg>
