<svg width="1280" height="1000" viewBox="0 0 1280 1000" fill="none" xmlns="http://www.w3.org/2000/svg">
<mask id="mask0_1_35026" style="mask-type:alpha" maskUnits="userSpaceOnUse" x="0" y="0" width="1280" height="1000">
<rect width="1280" height="1000" fill="#232323"/>
</mask>
<g mask="url(#mask0_1_35026)">
<path d="M534.711 701.663C542.528 665.002 558.463 626.163 559.766 588.525C561.008 552.781 547.639 515.164 543.891 479.807C535.733 402.78 549.363 325.04 557.481 247.992C565.618 170.741 563.033 97.6645 556.218 22.0018C555.256 11.2074 554.514 0.412959 553.953 -10.3611H499.936C500.657 1.77754 501.659 13.9773 503.042 26.2177C512.282 107.481 525.872 175.14 512.924 259.642C501.379 334.979 487.749 409.521 494.865 485.163C498.432 522.985 510.158 559.686 512.964 597.405C515.89 636.652 505.768 673.19 497.631 711.357C480.734 790.666 458.866 871.115 447.221 950.993C444.455 969.934 442.811 988.937 441.929 1007.98H480.393C481.014 989.425 482.357 970.81 484.903 952.032C496.268 868.548 517.133 784.087 534.711 701.663Z" fill="#141414"/>
<path d="M305.132 758.588C304.591 718.71 293.126 678.261 288.095 639.035C282.222 593.23 285.73 549.461 286.912 503.534C291.141 339.133 227.242 188.012 236.402 24.0385C237.044 12.5719 237.866 1.10543 238.768 -10.3611H188.178C187.015 2.69404 186.093 15.7288 185.532 28.7228C178.356 193.714 233.536 345.63 240.652 510.316C244.32 595.389 246.184 675.776 258.19 761.134C264.985 809.403 257.889 834.169 244.781 880.076C233.316 920.199 226.601 960.219 220.668 1001.5C220.347 1003.66 220.087 1005.82 219.766 1008H260.475C261.216 1003.03 261.978 998.061 262.76 993.091C274.626 916.777 306.194 836.084 305.132 758.588Z" fill="#141414"/>
<path d="M609.875 689.076C616.97 614.615 660.826 545.714 655.614 471.212C650.042 391.598 642.045 317.056 648.88 236.485C655.153 162.594 662.329 89.1715 669.404 15.3622C670.226 6.72667 670.827 -1.82739 671.288 -10.3611H612.46C612.38 -0.198045 612.44 9.965 612.741 20.128C617.211 169.824 583.517 321.374 598.069 471.782C602.018 512.598 608.151 540.419 598.951 581.784C590.713 618.851 579.709 655.124 573.215 692.457C559.265 772.478 535.212 850.89 526.393 931.298C523.607 956.777 521.723 982.358 520.48 1007.98H561.55C561.79 982.725 562.331 957.551 563.474 932.541C567.202 848.915 601.978 771.847 609.875 689.076Z" fill="#141414"/>
<path d="M385.547 750.563C398.575 671.459 374.643 589.116 372.318 509.706C369.973 429.664 370.454 352.148 365.223 272.636C359.771 189.519 346.562 112.105 347.925 28.1322C348.125 15.2604 348.707 2.42928 349.468 -10.3611H295.491C294.088 4.83256 292.745 20.0262 291.562 35.2198C278.995 197.014 342.694 348.095 330.287 511.701C324.093 593.454 358.087 674.412 352.074 754.678C349.548 788.527 333.253 827.02 326.619 860.829C319.122 898.976 311.285 937.001 305.873 975.495C304.35 986.309 302.847 997.144 301.364 1007.96H335.879C336.62 1001.03 337.362 994.089 338.164 987.144C347.364 907.958 372.518 829.688 385.547 750.563Z" fill="#141414"/>
<path d="M644.049 949.629C645.673 870.87 655.033 793.68 677.161 717.671C699.87 639.666 712.518 559.319 736.33 480.581C758.418 407.566 747.133 346.669 746.111 272.656C745.049 196.749 763.028 123.286 768.72 48.112C770.223 28.3155 770.264 8.88555 769.422 -10.3611H725.847C725.266 -1.80702 724.324 6.78777 722.901 15.4437C710.794 89.8436 700.893 160.72 698.708 235.507C696.503 311.394 705.904 389.114 700.532 464.797C695.361 537.771 661.687 613.189 649.22 686.245C635.931 764.189 606.888 837.815 602.358 917.245C600.635 947.286 600.073 977.551 600.134 1007.98H643.408C643.468 988.509 643.648 969.038 644.049 949.629Z" fill="#141414"/>
<path d="M59.0968 1007.98H100.687C115.079 952.052 135.323 895.412 129.61 841.847C120.891 760.054 114.718 678.363 110.068 596.774C100.687 432.047 61.7626 276.18 55.509 113.265C53.9256 72.4911 55.048 31.1872 58.0546 -10.3611H18.7691C17.807 2.34781 17.0454 15.0363 16.5443 27.6638C13.0767 116.443 19.3704 206.871 28.8711 294.55C38.2114 380.784 59.6981 465.55 62.9652 553.29C66.1121 637.446 74.0093 721.174 80.1226 805.696C83.3897 850.992 88.1199 888.345 77.5369 933.07C71.584 958.346 64.7892 982.989 59.0968 1007.98Z" fill="#141414"/>
<path d="M214.535 773.68C205.716 689.809 202.348 605.776 193.489 522.7C184.47 438.014 171.381 359.276 156.408 276.954C141.757 196.423 135.663 111.473 139.652 28.6821C140.273 15.6881 141.195 2.67368 142.298 -10.3611H99.5248C97.6006 10.2094 96.2577 30.7799 95.8167 51.3504C92.0285 225.039 133.599 393.94 152.46 567.201C162.061 655.287 169.477 747.203 173.686 836.45C175.891 883.253 154.825 920.687 145.585 965.902C142.739 979.812 140.534 993.865 138.63 1007.98H179.519C191.304 929.038 223.033 854.495 214.535 773.68Z" fill="#141414"/>
<path d="M-13 972.113V1007.98H20.4528C27.8689 978.672 37.3094 949.975 39.3739 919.811C42.5408 873.497 33.9421 827.55 29.9735 781.724C22.5774 696.388 20.3726 611.193 14.6401 526.488C9.2083 446.018 -7.8488 367.688 -12.9399 287.707C-12.9599 287.34 -12.98 286.994 -13 286.648V835.595C-9.33202 881.053 -7.32766 926.288 -13 972.113Z" fill="#141414"/>
<path d="M408.617 970.627C413.808 924.048 430.064 884.801 441.769 840.32C450.408 807.509 451.41 770.951 458.345 737.345C466.463 697.936 479.291 660.461 472.236 620.929C464.739 578.871 454.958 538.138 451.37 495.469C444.896 418.197 455.559 342.25 469.429 265.406C484.462 182.187 467.024 105.485 456.541 24.9957C454.998 13.1219 453.836 1.34983 452.934 -10.3611H402.183C401.482 15.1585 401.642 40.6985 403.486 66.2996C408.737 139.111 419.14 210.68 420.423 284.571C421.826 364.877 405.53 442.312 412.646 523.473C419.441 600.867 438.622 668.505 421.365 745.818C404.368 821.949 381.719 901.441 372.859 978.549C371.737 988.346 370.915 998.163 370.314 1008H405.871C406.392 995.535 407.234 983.091 408.617 970.627Z" fill="#141414"/>
<path d="M812.075 69.9044C816.725 145.71 794.396 223.185 795.519 299.907C796.1 340.233 803.235 376.14 794.336 416.629C786.018 454.409 771.607 491.029 762.888 528.687C743.886 610.745 721.057 691.051 702.336 772.783C684.718 849.709 687.684 929.201 690.751 1008H742.864C742.463 999.812 742.002 991.604 741.461 983.417C736.33 907.428 730.898 829.546 747.113 755.146C764.01 677.589 788.243 601.193 806.703 523.494C824.341 449.216 842.501 369.235 845.287 293.491C848.033 219.336 863.967 151.82 850.899 79.1713C845.688 50.2301 842.14 20.2705 840.015 -10.3408H806.703C808.567 16.3601 810.431 43.1017 812.075 69.9044Z" fill="#141414"/>
<path d="M1253.27 -10.3611H1229.82C1224.65 17.4192 1216.41 44.8126 1209.78 73.8964C1172.96 235.527 1214.79 399.704 1185.19 561.62C1169.53 647.243 1181.26 721.194 1187.45 807.122C1192.32 874.658 1156.24 941.95 1138.08 1007.98H1177.45C1179.85 998.774 1182.24 989.609 1184.62 980.484C1202.32 912.5 1213.93 847.265 1220.28 777.224C1227 703.455 1210.28 629.544 1228.28 556.61C1263.96 412.148 1210.5 266.485 1227.54 119.335C1232.57 76.0349 1244.03 32.8369 1253.27 -10.3611Z" fill="#141414"/>
<path d="M838.292 757.529C842.601 681.255 864.91 606.53 883.831 532.333C902.832 457.832 901.609 381.436 926.904 307.402C940.013 268.99 952.66 234.774 950.837 194.855C949.193 158.786 939.091 124.386 932.998 89.2533C927.285 56.3202 924.76 23.0816 924.599 -10.3811H882.348C883.31 16.5642 885.474 43.2243 889.022 69.4772C893.833 104.997 907.382 140.293 909.046 176.159C910.789 213.796 902.271 255.304 893.532 292.412C883.851 333.492 869.58 373.615 862.264 414.98C855.249 454.573 856.151 495.408 845.628 534.268C823.68 615.328 795.258 696.714 788.644 780.238C782.631 856.186 795.619 931.767 801.772 1007.96H852.803C852.302 1003.46 851.781 998.937 851.28 994.436C842.561 914.802 833.782 837.225 838.292 757.529Z" fill="#141414"/>
<path d="M955.286 560.501C982.385 408.462 1038.69 252.697 1024.58 99.6608C1021.21 63.2042 1017.14 26.4828 1014.78 -10.3811H967.252C967.553 8.17306 968.435 26.5236 969.938 44.5889C977.314 132.879 996.636 201.149 969.878 290.905C945.705 372.026 938.71 454.41 918.827 535.999C898.923 617.67 886.015 700.767 886.757 784.515C887.398 857.428 886.797 934.232 893.171 1007.98H945.224C934.942 857.999 928.909 708.527 955.286 560.501Z" fill="#141414"/>
<path d="M1033.1 792.193C1032.81 714.677 1041.67 637.996 1040.83 561.05C1039.99 483.616 1053.32 407.79 1069.63 331.476C1085.03 259.581 1109.66 180.517 1118.06 109.05C1122.89 67.8882 1116.14 28.7636 1109.64 -10.3611H1063.28C1066.25 9.08922 1068.79 28.6617 1068.35 48.8656C1067.47 89.029 1075.31 130.19 1070.88 170.415C1065.91 215.466 1049.83 262.127 1040.05 306.709C1022.57 386.466 1001.11 469.033 997.598 549.93C991.004 701.561 980.18 854.74 990.523 1007.96H1041.83C1052.22 938.671 1033.36 862.479 1033.1 792.193Z" fill="#141414"/>
<path d="M1263.88 314.306C1276.12 396.242 1276.87 464.247 1264.86 546.651C1244.07 689.32 1266.36 842.56 1227.36 982.725C1225.03 991.116 1222.77 999.527 1220.56 1007.98H1264.74C1267.49 990.566 1269.87 973.112 1271.77 955.555C1279.39 885.249 1278.55 815.065 1288.83 744.942C1298.63 678.18 1288.49 611.397 1295.71 544.349C1304.12 466.019 1319.86 403.676 1304.55 325.875C1290.86 256.322 1287.45 189.417 1289.41 118.54C1290.62 75.5053 1294.72 32.5517 1300.12 -10.3408H1274.38C1269.15 20.1076 1264.34 50.5763 1261.07 81.1265C1252.49 161.107 1252.11 235.466 1263.88 314.306Z" fill="#141414"/>
<path d="M1164.26 58.112C1162.8 99.1104 1142.41 141.168 1133.81 181.942C1124.57 225.812 1118.62 270.273 1110.52 314.225C1095.33 396.731 1091.88 475.469 1089.38 558.301C1086.91 639.931 1081.6 718.099 1086.37 800.218C1088.68 839.953 1093.63 881.379 1091.6 921.156C1090.04 951.95 1078.97 979.323 1069.92 1008H1099.7C1100.96 1003.5 1102.25 999.038 1103.55 994.639C1125.88 919.119 1152.17 862.255 1136.88 781.48C1122.25 704.31 1127.64 628.444 1135.78 550.887C1152.23 394.205 1146.72 231.963 1187.97 76.6051C1195.77 47.2362 1198.03 18.4171 1198.35 -10.3408H1155.9C1160.57 12.1441 1165.1 34.6698 1164.26 58.112Z" fill="#141414"/>
</g>
</svg>
