<svg width="167" height="108" viewBox="0 0 167 108" fill="none" xmlns="http://www.w3.org/2000/svg">
<g clip-path="url(#clip0_1_34790)">
<path d="M18.7613 0.000113378L116.821 61.3503L101.78 68.8916L146.38 102.593L101.551 84.3339C121.636 93.9605 147.176 106.29 147.877 106.258L145.258 107.367L82.1704 77.9156L80.5231 75.5972L53.0648 64.3438L79.6181 53.5844L24.9549 9.85612L18.7613 0.000113378ZM82.8176 54.4912L83.7331 56.1393L83.9153 55.4966L82.8176 54.4912L78.8816 48.0524L70.4398 44.5027L82.8176 54.4912ZM55.7109 28.9876C57.6011 30.449 58.9727 31.3007 59.186 31.3611L55.7109 28.9876C46.6573 22.7186 23.4275 5.48861 23.4275 5.48861L29.5868 11.4002L55.7109 28.9876Z" fill="#817B78"/>
</g>
<defs>
<clipPath id="clip0_1_34790">
<rect width="153.195" height="68.8081" fill="white" transform="matrix(-0.96211 -0.272661 -0.272661 0.96211 166.152 41.7705)"/>
</clipPath>
</defs>
</svg>
