<svg width="89" height="102" viewBox="0 0 89 102" fill="none" xmlns="http://www.w3.org/2000/svg">
<path d="M33.4256 90.1174C34.2289 91.0033 47.8983 92.7425 60.4495 87.025C60.4495 87.025 44.2686 99.4971 32.291 90.822L33.4256 90.1174Z" fill="#BFA372"/>
<path d="M60.3323 27.5919C60.3807 27.4674 60.6021 27.267 60.9965 26.9907C63.5843 25.1322 72.6631 19.4954 77.8643 23.0966C77.8643 23.0966 78.9639 21.3752 78.977 20.2339C78.9901 19.0926 67.2685 16.3921 60.3323 27.5919Z" fill="#BFA372"/>
<path d="M19.7624 55.5454C16.7588 70.2869 17.9064 80.6241 23.0528 86.2112C24.909 88.0806 27.0834 89.5005 29.7975 90.2704C32.7608 91.1373 36.3121 91.2298 40.23 90.7484C52.0804 89.0549 64.198 81.8752 64.7655 81.5227L69.7864 72.2969L57.4215 69.7765L77.1067 25.4076L75.1405 24.9288C74.7666 24.7832 73.1258 24.5745 71.0422 24.7667C68.6126 25.1109 64.9997 26.2844 61.935 30.1082C58.3791 34.4575 54.3347 44.4935 51.632 52.1851C51.3681 50.649 50.8344 49.4379 50.204 48.4757C49.3243 47.4165 48.251 46.8553 46.8595 46.7436C46.3126 46.6741 45.7173 46.729 45.2466 46.8324C43.883 47.0182 42.7964 47.5986 41.6893 48.601L41.9724 47.1345L40.4284 46.6767C38.6631 46.4195 37.1469 46.2593 35.7349 46.5696C33.9006 46.8588 32.3434 47.5427 31.0633 48.6211L30.0984 17.1405L27.7039 18.5018C27.3579 18.6537 21.3094 22.0326 18.96 30.2918C15.9816 40.1694 19.069 53.2687 19.7624 55.5454ZM61.3978 75.0514C61.7233 75.3214 63.3581 77.3913 62.4724 78.1932C61.5867 78.9951 53.4565 72.9631 53.4565 72.9631C53.4565 72.9631 61.1485 74.9543 61.3978 75.0514ZM63.4816 35.7273C66.0067 32.5534 67.426 32.9627 69.0873 32.7494C69.2604 32.6734 71.3147 29.603 71.4878 29.527L51.7395 72.5814L47.3496 70.5856C49.3702 69.0788 51.3987 56.1078 51.3987 56.1078C51.4954 55.8588 58.1617 42.3999 63.4816 35.7273ZM41.8664 56.267C41.9632 56.018 42.06 55.769 42.1568 55.52C43.0073 53.701 45.6013 49.9807 47.8446 50.854C49.5411 51.6578 48.8106 57.9671 48.4381 60.4022L48.397 61.2462C48.1418 63.0103 46.9392 66.8424 45.3615 67.9482C44.967 68.2247 44.6694 68.2521 44.1225 68.1825C41.6577 67.5097 41.1446 65.8765 40.9364 64.9354C40.9364 64.9354 40.9848 64.8109 40.8602 64.7624C41.7312 62.5214 41.6126 60.6117 41.5423 58.5776C41.5628 58.1556 41.4587 57.685 41.4793 57.263C41.5761 57.014 41.7212 56.6405 41.8664 56.267ZM36.547 50.7559C36.7201 50.68 36.8931 50.604 37.1145 50.4035C37.4605 50.2515 38.7963 49.7682 39.1424 49.6162C38.8109 51.2073 37.5865 52.8807 37.497 53.8493L37.4486 53.9738C37.4281 54.3958 38.7023 55.1785 38.7301 55.476C38.8501 59.9663 37.3089 64.6699 36.3059 66.1428C35.5243 67.4153 33.2677 67.6835 31.9524 67.7448L32.2168 57.0972L32.2652 56.9727C32.2023 55.6581 32.2977 52.8285 36.547 50.7559ZM26.9397 26.3746L27.8753 54.977L27.9456 57.0111L28.659 71.0496L30.0505 71.1613C30.1752 71.2098 31.6913 71.37 33.5256 71.0807C34.2939 70.9498 34.9376 70.7704 35.5813 70.591C32.5372 73.9928 31.6734 76.9533 32.6161 79.3271C33.3301 81.1818 35.3315 82.6777 38.2948 83.5447C42.4282 84.7238 47.3431 84.6305 47.9384 84.5756L48.8314 84.4932L48.6981 81.1445L47.7568 81.3513C46.5661 81.4612 44.9738 81.1279 43.3814 80.7947C40.6674 80.0248 38.7422 78.7019 38.1807 77.1933C37.4667 75.3386 36.8568 73.9544 40.0534 70.8986L54.9959 77.8626L58.9914 80.1348C54.9429 82.4289 47.7595 86.5127 39.7506 87.5516C37.148 87.9718 35.2858 87.9635 33.7419 87.5058C31.824 86.9025 30.5704 85.6977 28.6379 83.6553C24.4959 79.176 20.6164 73.6521 23.6479 59.2082L23.6963 59.0837L22.9882 55.3678L22.912 55.1948C22.9604 55.0703 19.8227 51.6987 20.1925 44.1023C20.2615 43.5557 24.766 39.7191 24.835 39.1726C25.0624 37.111 19.9552 40.283 20.0095 38.2974C20.3442 29.6839 25.6596 27.453 26.9397 26.3746Z" fill="#BFA372"/>
</svg>
