<svg width="73" height="64" viewBox="0 0 73 64" fill="none" xmlns="http://www.w3.org/2000/svg">
<g clip-path="url(#clip0_1_34786)">
<path d="M66.4538 52.3096L65.8587 54.8855L44.2364 40.8173L66.4538 52.3096L44.6332 28.7307L54.9484 8.91641L36.6984 14.4644L24.7962 0L23.2092 18.8235L0 28.7307L21.0272 30.7121V64L38.087 40.0248L68.4375 60.0372L73.1984 59.2446L66.4538 52.3096ZM36.6984 34.0805L25.3913 50.13V47.9505C27.375 44.3839 32.5326 35.8638 32.5326 35.8638L31.144 35.2693L25.3913 45.3746V26.9474L19.2418 25.1641L27.5734 22.192L28.3669 11.4923L35.1114 19.8142L46.0217 16.4458L39.0788 29.7214L48.2038 39.4303L36.6984 34.0805Z" fill="#BFA372"/>
</g>
<defs>
<clipPath id="clip0_1_34786">
<rect width="73" height="64" fill="white"/>
</clipPath>
</defs>
</svg>
