<svg width="556" height="312" viewBox="0 0 556 312" fill="none" xmlns="http://www.w3.org/2000/svg">
<path d="M435.416 67.7551C437.08 67.7551 438.658 67.5799 440.235 67.3173C441.812 67.0546 443.302 66.5292 444.791 65.9162C446.193 65.3033 447.595 64.4276 448.735 63.4644C449.348 62.939 449.874 62.4137 450.399 61.8883C450.662 61.6256 450.925 61.2753 451.1 61.0126C451.276 60.7499 451.538 60.3997 451.626 60.137L452.59 58.2981L454.255 59.524C456.007 60.8375 457.847 61.8007 459.863 62.5012C461.878 63.2017 463.981 63.552 466.084 63.6396C468.187 63.7271 470.378 63.3769 472.481 62.8515C473.532 62.5888 474.584 62.2385 475.548 61.8883C476.512 61.538 477.563 61.0126 478.352 60.5748L479.491 59.9619L480.455 60.7499C484.223 63.9022 488.954 65.9162 493.861 67.2297C496.315 67.9302 498.856 68.368 501.397 68.7183C503.938 69.0685 506.567 69.2437 509.02 69.2437H510.16L510.598 70.2944C511.474 72.2209 512.788 74.0597 514.19 75.811C515.592 77.5623 517.257 79.1384 518.922 80.627C520.587 82.1156 522.427 83.5167 524.267 84.9177C526.107 86.2312 528.123 87.5446 530.05 88.5954L530.664 88.9456L530.839 89.5586C532.153 93.6741 534.695 97.3518 538.2 99.8912C539.952 101.117 541.88 102.168 543.983 102.868C545.998 103.569 548.189 104.007 550.204 103.919C550.73 103.919 551.168 103.832 551.519 103.744C551.606 103.744 551.694 103.656 551.781 103.656H551.869C551.869 103.656 551.869 103.656 551.957 103.569L552.132 103.481L552.22 103.394C552.307 103.394 552.395 103.306 552.395 103.219C552.658 102.956 552.745 102.868 552.833 102.693C552.921 102.518 552.921 102.255 552.833 101.818C552.658 101.03 552.132 100.066 551.606 99.0155L550.73 97.5269C550.467 97.0016 550.204 96.6513 549.854 96.2135C548.627 94.4622 546.962 92.7985 545.472 90.6969C544.771 89.6462 544.158 88.5078 543.632 87.3695C543.107 86.2311 542.756 84.9177 542.406 83.9545C541.004 79.839 538.287 76.3364 535.045 73.0965L533.818 71.8706C533.38 71.4328 532.942 70.9074 532.592 70.4696C531.803 69.5064 531.102 68.5432 530.401 67.4924C529.087 65.4784 527.86 63.3769 526.721 61.3629C526.107 60.3997 525.582 59.3489 524.968 58.3857C524.355 57.4225 523.741 56.3717 523.128 55.6712C521.814 54.095 520.061 52.7816 518.133 51.8184C516.206 50.8552 514.103 50.0671 511.912 49.4541L510.247 48.9288C509.634 48.7536 509.02 48.4909 508.407 48.2282C507.18 47.6153 506.129 47.0023 505.165 46.3018C503.237 44.9884 501.397 43.9376 499.294 43.0619C497.279 42.1863 495.088 41.4858 492.81 40.7853C490.532 40.0848 488.341 39.2091 486.15 38.2459C485.011 37.8081 483.96 37.2827 482.908 36.7573C481.769 36.2319 480.718 35.619 479.666 34.9185C475.548 32.1164 472.306 28.3511 469.239 24.9361C468.45 24.0605 467.661 23.2724 466.96 22.5719C466.172 21.8714 465.471 21.5211 464.507 21.0833C462.579 20.2952 460.301 19.8574 458.11 19.5071C453.641 18.8066 448.997 18.5439 444.353 18.5439C442.075 18.5439 439.709 18.5439 437.431 18.6315L435.678 18.7191C435.065 18.7191 434.452 18.7191 433.838 18.7191C432.612 18.7191 431.472 18.6315 430.246 18.5439C420.607 17.8434 411.494 15.0414 402.556 12.2393C398.087 10.8383 393.706 9.43726 389.237 8.29892C384.768 7.24815 380.212 6.6352 375.568 6.10982C366.367 5.05904 356.991 4.53365 347.703 4.18339L345.95 4.09583C345.425 4.09583 344.899 4.09583 344.286 4.09583C343.146 4.1834 342.007 4.27097 340.956 4.35853C338.678 4.62122 336.487 5.05904 334.296 5.58442C332.106 6.10981 329.915 6.81032 328.075 7.77353L326.585 8.56161L325.008 9.34969C323.957 9.87508 322.817 10.4005 321.766 10.8383C317.472 12.7647 313.266 14.6911 309.411 16.9678C307.483 18.1061 305.468 19.4196 303.365 20.6455C301.262 21.8714 299.159 22.9222 296.88 23.8854C292.412 25.7242 287.767 27.0377 283.123 28.0009C280.845 28.5263 278.479 28.8765 276.201 29.3144C273.923 29.6646 271.732 30.19 269.629 30.8905C260.954 33.605 253.068 38.5962 245.006 43.3246C240.976 45.6889 236.857 48.0531 232.651 50.2422C228.445 52.3438 223.976 54.2702 219.42 55.6712C210.307 58.4733 201.019 59.9619 191.73 61.538C182.53 63.0266 173.242 64.4276 164.304 66.6167C162.026 67.1421 159.835 67.7551 157.644 68.4556C155.541 69.1561 153.176 69.9442 150.81 70.5571C146.166 71.783 141.521 72.4836 136.877 73.1841C127.589 74.4975 118.388 75.5483 109.538 78.1752C105.157 79.4887 100.863 81.0649 96.7451 83.0788C94.7297 84.042 92.6267 85.1804 90.6989 86.3187C88.6835 87.4571 86.8434 88.6829 85.0033 90.084C81.323 92.7985 77.818 95.9508 74.0502 98.8404C70.2823 101.73 66.2516 104.445 61.6074 106.283C60.4683 106.721 59.3292 107.159 58.1024 107.422C56.8757 107.772 55.6489 107.947 54.5098 108.21C52.2316 108.648 49.8657 109.085 47.4998 109.436C42.8557 110.136 38.1239 110.662 33.3046 110.749C28.5728 110.837 23.7535 110.574 19.0217 109.698C16.6558 109.261 14.29 108.648 12.0117 107.947C9.82109 107.247 7.63047 106.721 5.43984 106.196C-3.4979 104.357 -12.7861 104.007 -22.0744 104.269C-31.3626 104.532 -40.5633 105.495 -49.7639 106.896C-52.0421 107.247 -54.3204 107.597 -56.5986 108.035C-57.7377 108.21 -58.8769 108.472 -60.016 108.735L-60.4541 108.823L-60.717 108.91H-60.8923L-61.7685 109.085L-63.521 109.348C-68.0775 110.136 -72.7216 110.924 -77.2781 111.8C-86.3911 113.551 -95.5041 115.74 -104.705 117.667C-109.349 118.63 -113.905 119.593 -118.812 119.856C-121.266 119.943 -123.807 119.856 -126.436 118.893C-127.049 118.63 -127.75 118.28 -128.276 117.929L-129.765 116.966L-132.657 114.952C-140.28 109.698 -148.254 104.795 -156.491 100.592C-164.728 96.3886 -173.315 92.7985 -182.165 90.3467C-191.015 87.8949 -200.216 86.4938 -209.329 87.1068C-218.442 87.7197 -227.292 90.4342 -235.003 95.2503L-235.441 95.513H-235.967C-242.013 95.6881 -248.234 96.3886 -254.281 97.2643C-260.327 98.2275 -266.373 99.4533 -272.244 101.292C-278.027 103.131 -283.723 105.408 -288.717 108.648C-291.171 110.311 -293.537 112.15 -295.464 114.339C-297.392 116.528 -298.882 118.98 -299.758 121.695L-303 120.644C-301.949 117.492 -300.196 114.514 -298.005 112.063C-295.815 109.611 -293.274 107.509 -290.557 105.758C-285.125 102.255 -279.166 99.8036 -273.12 97.9648C-267.074 96.1259 -260.94 94.8124 -254.719 93.8492C-248.497 92.886 -242.276 92.2731 -235.967 92.0104L-236.843 92.2731C-228.694 87.1068 -219.143 84.2172 -209.592 83.6042C-199.953 82.9913 -190.402 84.3923 -181.289 86.9317C-172.176 89.471 -163.326 93.1487 -155.001 97.4394C-146.589 101.73 -138.528 106.721 -130.817 111.975L-127.925 113.989L-126.523 114.952C-126.085 115.215 -125.735 115.39 -125.297 115.565C-123.544 116.266 -121.353 116.353 -119.075 116.266C-114.606 116.003 -110.05 115.127 -105.493 114.164C-96.3804 112.238 -87.2673 110.049 -78.0667 108.297C-73.4226 107.422 -68.8661 106.546 -64.222 105.846L-62.4695 105.583L-61.5932 105.408H-61.418C-61.3304 105.408 -61.418 105.408 -61.3304 105.408L-60.8923 105.32C-59.7531 105.057 -58.614 104.882 -57.3873 104.62C-55.109 104.182 -52.7431 103.832 -50.3773 103.481C-41.089 102.08 -31.7131 101.117 -22.2496 100.767C-12.7862 100.504 -3.32264 100.854 6.05323 102.693C8.4191 103.219 10.6973 103.744 12.9756 104.532C15.1662 105.233 17.3568 105.758 19.5475 106.196C24.0163 106.984 28.5728 107.334 33.1293 107.159C37.6858 107.071 42.3299 106.634 46.8864 105.933C49.1647 105.583 51.4429 105.145 53.7212 104.795C54.8603 104.532 55.9994 104.357 57.0509 104.094C58.1024 103.832 59.1539 103.481 60.2054 103.043C64.3238 101.38 68.0917 98.928 71.7719 96.1259C75.4522 93.3238 78.9572 90.2591 82.7251 87.3695C84.6528 85.9684 86.6682 84.5674 88.6835 83.4291C90.6989 82.2032 92.8019 81.0649 94.9926 80.0141C99.2862 77.9125 103.755 76.2488 108.312 74.8478C117.425 72.1333 126.888 71.0825 136.089 69.769C140.733 69.1561 145.289 68.368 149.67 67.2297C151.949 66.7043 153.964 66.0038 156.242 65.2157C158.521 64.5152 160.799 63.9022 163.077 63.2893C172.278 61.0126 181.566 59.6992 190.767 58.123C199.967 56.6344 209.168 55.0582 217.93 52.3438C222.312 51.0303 226.518 49.1914 230.636 47.0899C234.754 44.9884 238.785 42.7117 242.728 40.3474C246.759 37.9832 250.702 35.5314 254.908 33.2547C259.114 30.9781 263.408 28.9641 268.052 27.5631C270.33 26.8626 272.696 26.2496 275.062 25.8993C277.34 25.5491 279.618 25.1113 281.897 24.6734C286.365 23.7102 290.834 22.4843 295.04 20.7331C297.143 19.8574 299.159 18.8942 301.086 17.7559C303.102 16.6175 304.942 15.3916 307.045 14.1657C311.163 11.7139 315.545 9.78752 319.751 7.8611C320.802 7.42328 321.854 6.89788 322.905 6.3725L324.395 5.58442L325.972 4.70878C328.25 3.57045 330.616 2.86993 332.894 2.25698C335.26 1.64403 337.626 1.20621 339.992 0.943514C341.219 0.768385 342.358 0.680826 343.585 0.593262C344.198 0.593262 344.811 0.593262 345.425 0.593262L347.177 0.680818C356.553 1.03108 365.929 1.64404 375.305 2.60724C379.949 3.13263 384.681 3.74558 389.325 4.79635C393.969 5.93469 398.438 7.33572 402.907 8.73674C411.757 11.5388 420.694 14.2533 429.807 14.8662C430.947 14.9538 432.086 14.9538 433.225 15.0414C433.751 15.0414 434.364 15.0414 434.89 15.0414L436.642 14.9538C439.008 14.8662 441.374 14.8662 443.74 14.8662C448.472 14.9538 453.203 15.1289 457.935 15.917C460.301 16.2673 462.667 16.7926 465.12 17.7559C466.259 18.1937 467.661 18.9818 468.625 19.8574C469.589 20.7331 470.465 21.6087 471.254 22.4843C474.409 25.9869 477.388 29.4019 481.068 31.8537C481.944 32.4667 482.908 32.9921 483.872 33.4299C484.924 33.8677 485.975 34.3931 487.027 34.8309C489.13 35.7065 491.233 36.4946 493.423 37.1951C495.614 37.8957 497.892 38.5962 500.17 39.5594C502.449 40.435 504.639 41.7485 506.567 43.0619C507.531 43.6749 508.407 44.2878 509.371 44.7257C509.809 44.9008 510.335 45.1635 510.773 45.2511L512.438 45.7764C514.716 46.4769 517.082 47.265 519.273 48.4034C521.463 49.5417 523.654 51.1179 525.319 53.1318C526.195 54.1826 526.808 55.2334 527.422 56.1966C528.035 57.2474 528.648 58.2106 529.262 59.2613C530.401 61.2753 531.54 63.2893 532.854 65.2157C533.468 66.1789 534.169 67.0546 534.782 67.8426C535.133 68.2805 535.483 68.6307 535.834 69.0685L537.06 70.2944C538.725 72.0457 540.303 73.797 541.705 75.8985C543.107 77.9125 544.158 80.1892 544.947 82.5534C545.297 83.7793 545.56 84.8301 545.998 85.7933C546.436 86.8441 546.874 87.8073 547.488 88.6829C548.627 90.5218 550.292 92.2731 551.694 94.2871C552.044 94.8124 552.395 95.3378 552.658 95.8632L553.534 97.4394C554.06 98.4901 554.673 99.6285 554.936 100.942C555.111 101.642 555.199 102.343 554.936 103.219C554.673 104.007 554.147 104.707 553.622 105.145C553.446 105.233 553.359 105.32 553.183 105.495C553.008 105.583 552.833 105.67 552.745 105.758C552.395 105.933 552.044 106.108 551.694 106.196C550.993 106.371 550.379 106.459 549.766 106.459C547.225 106.546 544.771 106.108 542.493 105.32C540.127 104.62 537.937 103.481 535.834 102.08C533.818 100.679 531.978 98.928 530.401 96.914C528.911 94.9 527.772 92.6234 526.984 90.2591L527.772 91.2223C525.582 90.084 523.566 88.7705 521.638 87.3695C519.711 85.9684 517.783 84.4798 515.943 82.9037C514.103 81.3275 512.438 79.5762 510.861 77.6498C509.283 75.7234 507.881 73.7095 506.83 71.3452L508.495 72.396C505.691 72.396 503.062 72.2209 500.346 71.8706C497.629 71.5204 495 70.995 492.372 70.2944C489.743 69.5939 487.114 68.7183 484.661 67.5799C482.207 66.4416 479.754 64.953 477.563 63.2017L479.754 63.3769C478.527 64.0774 477.475 64.5152 476.336 65.0406C475.197 65.4784 474.058 65.9162 472.831 66.1789C470.466 66.7919 468.012 67.1421 465.471 67.0546C463.017 66.967 460.476 66.5292 458.11 65.7411C455.744 64.8655 453.554 63.6396 451.538 62.2385L454.255 61.6256C454.08 61.9758 453.992 62.151 453.817 62.3261C453.641 62.5012 453.554 62.7639 453.379 62.939C453.116 63.2893 452.765 63.7271 452.502 64.0774C451.889 64.7779 451.188 65.4784 450.487 66.0914C448.997 67.3173 447.42 68.2805 445.668 69.0685C443.915 69.8566 442.163 70.382 440.322 70.6447C438.482 70.9949 436.642 71.0825 434.89 71.0825L435.416 67.7551Z" fill="#3C3C3C"/>
<path d="M468.976 29.6649C470.028 29.6649 470.992 30.1903 471.868 30.8908C472.657 31.5913 473.358 32.3794 473.971 33.1675C475.198 34.8312 476.249 36.4949 477.651 37.9835C476.687 37.5457 475.899 36.8452 475.198 36.0571C474.497 35.269 473.883 34.481 473.27 33.6929C472.657 32.9048 472.043 32.1167 471.43 31.3286C470.641 30.7157 469.94 30.0152 468.976 29.6649Z" fill="#3C3C3C"/>
<path d="M474.76 26.1617C475.461 27.6503 476.337 29.1389 477.126 30.54C478.002 31.941 478.966 33.4296 479.93 34.743C480.981 36.0565 482.033 37.37 483.26 38.5959C484.486 39.8218 485.801 40.8725 487.29 41.7482C485.626 41.2228 484.136 40.3471 482.734 39.2964C481.332 38.3332 479.93 37.1948 478.703 35.9689C477.389 34.743 476.25 33.5171 475.111 32.1161C473.971 30.8027 472.832 29.4016 471.781 27.913L474.76 26.1617Z" fill="#3C3C3C"/>
<path d="M450.224 25.112C446.194 24.8493 442.163 24.2364 438.132 23.5358C434.101 22.8353 430.158 21.9597 426.215 20.9089C418.329 18.8074 410.618 16.0929 403.17 12.5903L404.397 10.2261C411.494 14.0789 418.942 17.1437 426.653 19.683C430.509 20.9089 434.364 22.0473 438.307 22.9229C442.251 23.7985 446.194 24.5866 450.224 25.112Z" fill="#3C3C3C"/>
<path d="M60.2935 141.047C61.6955 141.31 63.0974 141.835 64.4118 142.448C65.7262 143.061 66.953 143.849 68.1797 144.725C70.5456 146.476 72.6486 148.665 74.2258 151.292C75.8031 153.919 76.7669 156.896 77.1174 159.874C77.4679 162.851 77.2051 165.916 76.5917 168.805V168.98V169.068C75.4526 171.782 74.1382 174.409 72.1228 176.686C71.159 177.824 70.0198 178.875 68.7931 179.576C67.4787 180.364 66.0767 180.889 64.5871 180.802C65.9891 180.451 67.0406 179.576 68.0044 178.612C68.9683 177.649 69.757 176.598 70.458 175.46C71.7723 173.183 72.8238 170.644 73.6124 168.017L73.5248 168.28C73.8753 165.653 74.0506 162.938 73.7001 160.399C73.4372 157.772 72.6486 155.32 71.5094 152.956C70.3703 150.592 68.7931 148.403 66.8653 146.476C64.85 144.287 62.6593 142.536 60.2935 141.047Z" fill="#3C3C3C"/>
<path d="M94.1169 137.806C92.3644 139.207 90.1738 139.995 87.9832 140.433C85.7925 140.871 83.4266 140.871 81.236 140.608C78.9578 140.346 76.8548 139.645 74.7518 138.77C72.7364 137.894 70.8087 136.668 69.1438 135.179C71.3344 135.705 73.3498 136.318 75.4528 136.756C77.4682 137.281 79.5711 137.631 81.5865 137.894C83.6019 138.157 85.7049 138.332 87.8079 138.332C89.9109 138.332 91.9263 138.244 94.1169 137.806Z" fill="#3C3C3C"/>
<path d="M433.402 66.0041C434.541 65.829 435.768 65.4787 436.907 65.1285C438.046 64.6907 439.185 64.2528 440.237 63.5523C442.34 62.3264 444.18 60.4876 444.969 58.0358C444.706 59.2617 444.18 60.4 443.391 61.4508C442.69 62.5016 441.726 63.3772 440.675 64.1653C439.623 64.9534 438.572 65.6539 437.345 66.1793C436.206 66.7046 434.979 67.23 433.665 67.5803L433.402 66.0041Z" fill="#3C3C3C"/>
<path d="M409.743 94.6378C407.991 94.4627 406.238 93.7622 404.836 92.7114C403.434 91.6606 402.295 90.4347 401.331 89.0337C399.403 86.2316 398.352 82.9917 398.001 79.6643C398.615 82.9042 400.017 85.9689 402.032 88.5083C403.084 89.7342 404.223 90.8725 405.625 91.6606C406.939 92.4487 408.429 92.9741 409.918 92.9741L409.743 94.6378Z" fill="#3C3C3C"/>
<path d="M400.804 94.6376C399.84 94.2873 398.964 93.9371 398.175 93.4993C397.387 93.0614 396.511 92.6236 395.81 92.0982C394.32 91.0474 392.918 89.9091 391.691 88.5081C389.238 85.7936 387.66 82.4662 386.872 79.0511C388.099 82.3786 390.114 85.2682 392.655 87.5449C393.969 88.6832 395.371 89.6464 396.861 90.3469C397.65 90.6972 398.351 91.0475 399.139 91.3101C399.928 91.5728 400.717 91.8355 401.418 91.9231L400.804 94.6376Z" fill="#3C3C3C"/>
<path d="M363.564 57.8611C361.723 57.073 360.059 55.672 358.832 54.0958C357.517 52.5197 356.554 50.6808 355.765 48.9296C354.889 47.1783 354.1 45.427 353.049 43.8508C351.997 42.2747 350.507 41.0488 348.755 40.0856C350.77 40.3483 352.698 41.399 354.1 42.9752C355.59 44.5513 356.466 46.3902 357.342 48.1415C358.218 49.9803 359.007 51.6441 359.971 53.3078C360.935 54.8839 362.162 56.4601 363.564 57.8611Z" fill="#3C3C3C"/>
<path d="M362.25 59.8747C360.76 59.5245 359.358 58.824 358.131 57.8607C356.905 56.8975 355.941 55.6716 355.064 54.4457C354.188 53.2198 353.487 51.9939 352.523 50.8556C351.647 49.8048 350.508 48.8416 349.106 48.1411C350.596 48.3162 352.085 49.1043 353.224 50.1551C354.363 51.2059 355.24 52.5193 356.116 53.7452C356.905 54.9711 357.781 56.1095 358.745 57.1602C359.796 58.1234 360.935 58.9991 362.25 59.8747Z" fill="#3C3C3C"/>
<path d="M360.409 65.4784C360.497 64.953 360.497 64.4276 360.409 63.9022C360.321 63.3769 360.059 62.939 359.62 62.5012C358.832 61.6256 357.43 61.2753 356.115 61.2753C356.729 61.1002 357.43 60.925 358.131 60.925C358.832 60.925 359.62 61.0126 360.321 61.4504C361.022 61.8007 361.636 62.4136 362.162 63.1142C362.6 63.8147 362.863 64.6903 363.038 65.4784H360.409Z" fill="#3C3C3C"/>
<path d="M500.697 48.6663C501.924 48.4036 503.326 48.6663 504.553 49.0166C505.779 49.4544 506.919 49.9797 508.058 50.5927C510.248 51.731 512.351 52.9569 514.805 53.6575C513.578 53.8326 512.176 53.6575 510.949 53.3072C509.723 52.9569 508.584 52.344 507.444 51.8186C506.305 51.2057 505.254 50.5927 504.202 50.0673C503.063 49.3668 502.012 48.929 500.697 48.6663Z" fill="#3C3C3C"/>
<path d="M546.438 92.2737C545.912 92.1861 545.649 92.1861 545.474 92.3613C545.299 92.5364 545.123 92.8866 545.211 93.412C545.299 94.3752 545.824 95.5136 546.35 96.4768C547.577 98.4032 549.242 100.154 550.994 101.731C549.066 100.417 547.139 98.841 545.649 97.0022C544.948 96.039 544.159 94.9882 543.897 93.6747C543.809 92.9742 543.721 92.0986 544.422 91.3981C545.036 90.6975 546.087 90.61 546.701 90.61H546.788C547.314 90.61 547.664 91.0478 547.577 91.5732C547.577 92.0986 547.139 92.4488 546.613 92.3613C546.525 92.2737 546.438 92.2737 546.438 92.2737Z" fill="#3C3C3C"/>
<path d="M462.929 121.608C463.105 119.506 463.63 117.317 464.594 115.391C465.12 114.428 465.821 113.464 466.785 112.676C467.311 112.326 467.836 112.063 468.537 111.888C469.151 111.713 469.852 111.801 470.378 111.976C472.743 112.676 474.233 114.34 475.635 116.004C476.949 117.668 478.264 119.419 479.14 121.433C479.578 122.396 480.016 123.447 479.929 124.76C479.841 125.986 479.491 127.037 478.877 128.088C478.527 128.613 478.089 129.138 477.563 129.489C477.037 129.839 476.336 130.102 475.723 130.189C475.109 130.277 474.408 130.277 473.883 130.102C473.707 130.102 473.62 130.014 473.444 130.014L473.182 129.927L473.006 129.839C472.656 129.751 472.393 129.576 472.13 129.489C471.079 128.876 470.29 128.175 469.414 127.475C468.625 126.774 467.836 125.986 467.135 125.198C465.733 123.622 464.419 121.871 463.28 120.119V120.032H463.368L468.099 124.235C469.677 125.548 471.254 127.037 472.919 127.913C473.62 128.35 474.671 128.438 475.46 128.438C476.248 128.35 476.949 127.913 477.475 127.212C478.001 126.512 478.351 125.461 478.527 124.673C478.614 123.797 478.527 122.746 478.176 121.783C477.563 119.857 476.511 117.93 475.109 116.442C473.707 114.953 471.78 113.815 470.027 113.464C469.151 113.289 468.362 113.552 467.661 113.99C466.96 114.515 466.347 115.303 465.733 116.091C464.682 117.755 463.806 119.682 463.017 121.696C463.017 121.783 462.929 121.783 462.929 121.783C463.017 121.696 462.929 121.608 462.929 121.608Z" fill="#3C3C3C"/>
<path d="M521.638 135.968C520.236 135.968 518.834 135.705 517.608 135.093C508.495 131.065 505.253 114.165 504.639 110.224C495.526 105.408 495.263 90.172 495.351 85.5311C482.996 81.941 482.821 66.4421 482.821 66.267H485.887H484.31H485.887C485.887 66.8799 486.063 80.5399 497.191 82.9042L498.505 83.1669L498.418 84.4803C498.418 84.6555 497.191 103.569 506.567 107.772L507.356 108.123L507.443 108.998C507.443 109.173 510.247 128.613 518.747 132.378C521.288 133.516 524.004 133.079 527.246 131.152C526.545 128.7 524.793 122.658 524.267 116.441C523.391 108.385 522.515 106.634 519.974 101.643L519.886 101.468C517.257 96.1264 516.118 87.1948 516.731 82.5539L519.798 82.9917C519.273 86.757 520.061 95.0756 522.602 100.154L522.69 100.329C525.319 105.583 526.283 107.597 527.246 116.266C527.947 123.797 530.401 131.415 530.401 131.415L530.751 132.466L529.788 133.079C527.071 135.005 524.267 135.968 521.638 135.968Z" fill="#3C3C3C"/>
<path d="M512.002 138.158C508.672 138.158 505.956 137.107 503.853 134.918C498.858 129.839 499.296 120.382 499.559 117.58C491.76 111.801 490.972 107.422 490.271 103.657C489.92 101.906 488.956 99.5416 488.431 98.4909C480.544 96.652 476.864 86.8448 475.988 84.1303C470.38 82.0288 468.189 74.5858 468.102 74.2355L470.643 73.535C470.643 73.6226 472.746 80.5402 477.39 81.8536L478.091 82.0288L478.266 82.7293C478.266 82.8169 481.596 94.638 489.482 96.0391L490.183 96.1266L490.446 96.7396C490.534 96.9147 492.198 100.505 492.724 103.132C493.425 106.809 494.126 110.575 501.662 116.004L502.275 116.442L502.188 117.23C502.188 117.317 500.786 128.175 505.693 133.166C507.358 134.918 509.636 135.706 512.527 135.531L512.44 130.277H515.069L515.156 137.982L514.017 138.158C513.316 138.07 512.703 138.158 512.002 138.158Z" fill="#3C3C3C"/>
<path d="M477.652 105.409L475.199 104.621C476.162 101.819 476.601 98.6664 476.25 98.0534C473.446 93.4125 473.884 83.0799 473.884 82.6421L476.513 82.7297C476.425 85.4442 476.513 93.3249 478.528 96.6524C479.755 98.7539 478.178 103.833 477.652 105.409Z" fill="#3C3C3C"/>
<path d="M457.498 139.82C455.92 139.82 454.343 139.032 453.292 137.631C451.013 134.742 449.962 128.7 453.73 120.294L455.745 121.169C452.328 128.7 453.204 134.041 454.956 136.318C455.57 137.106 456.534 137.894 458.023 137.631C461.441 137.018 464.245 130.714 465.033 128.262L467.136 128.962C466.786 129.926 463.719 138.77 458.374 139.733C458.111 139.82 457.76 139.82 457.498 139.82Z" fill="#3C3C3C"/>
<path d="M456.272 91.9236C456.272 91.836 456.096 89.1215 456.71 86.7573C455.133 85.3563 451.452 81.6785 449.787 77.3003C448.648 77.0376 445.932 76.8625 443.216 79.577L441.375 77.7381C446.107 73.0097 451.102 74.9361 451.365 75.0236L451.978 75.2864L452.153 75.8993C453.731 80.978 459.163 85.2687 459.163 85.3563L459.952 85.9692L459.601 86.8448C458.988 88.421 458.988 90.8728 459.076 91.7484L456.272 91.9236Z" fill="#3C3C3C"/>
<path d="M496.929 83.0793C497.368 83.1669 497.893 83.2544 498.331 83.342C498.857 83.4296 499.295 83.4296 499.821 83.4296C500.785 83.4296 501.836 83.4296 502.8 82.9042C502.099 83.6923 501.135 84.2176 500.084 84.6555C499.558 84.8306 499.032 85.0933 498.507 85.1809C497.981 85.356 497.455 85.5311 496.842 85.6187L496.929 83.0793Z" fill="#3C3C3C"/>
<path d="M506.043 107.773C506.744 107.16 507.445 106.634 508.233 106.197C509.022 105.759 509.898 105.321 510.775 105.321C509.986 105.671 509.372 106.284 508.847 106.897C508.321 107.51 507.795 108.211 507.445 108.911L506.043 107.773Z" fill="#3C3C3C"/>
<path d="M508.146 69.8572C508.496 69.7696 508.934 69.5069 509.372 69.3318C509.81 69.0691 510.161 68.894 510.599 68.6313C511.388 68.1059 512.089 67.4054 512.702 66.6173C512.527 67.5805 512.089 68.5437 511.563 69.5069C511.3 69.9447 511.037 70.3826 510.687 70.8204C510.336 71.2582 510.073 71.696 509.635 72.1339L508.146 69.8572Z" fill="#3C3C3C"/>
<path d="M477.914 61.0139C478.265 60.8387 478.615 60.576 478.966 60.3133C479.316 60.0506 479.667 59.7879 480.017 59.4377C480.718 58.8247 481.331 58.2118 481.77 57.4237C481.857 58.3869 481.682 59.3501 481.507 60.3133C481.419 60.8387 481.244 61.2765 481.156 61.8019C480.981 62.3273 480.893 62.7651 480.63 63.2905L477.914 61.0139Z" fill="#3C3C3C"/>
<path d="M463.106 74.4981C464.332 74.4981 465.559 74.5857 466.698 74.4105C467.837 74.323 468.889 74.0603 470.028 73.71C471.08 73.3598 472.131 72.9219 473.183 72.3965C474.234 71.8712 475.373 71.3458 476.512 70.908C475.724 71.9587 474.847 72.8344 473.884 73.5349C472.92 74.323 471.781 74.9359 470.554 75.3738C469.327 75.8116 467.925 75.8991 466.698 75.724C465.384 75.6365 464.157 75.1986 463.106 74.4981Z" fill="#3C3C3C"/>
<path d="M444.617 109.874C446.019 108.473 447.334 107.16 448.297 105.584C448.823 104.795 449.174 104.007 449.524 103.132C449.875 102.256 450.05 101.38 450.225 100.33C450.926 102.256 450.488 104.533 449.349 106.284C448.823 107.16 448.035 107.948 447.246 108.561C446.545 109.174 445.581 109.699 444.617 109.874Z" fill="#3C3C3C"/>
<path d="M448.295 111.888C449.522 110.924 450.573 109.961 451.45 108.823C451.888 108.298 452.238 107.685 452.501 106.984C452.764 106.371 452.939 105.583 453.115 104.883C453.377 105.583 453.377 106.459 453.202 107.247C453.027 108.035 452.676 108.735 452.151 109.348C451.625 109.961 451.099 110.487 450.398 110.924C449.785 111.362 449.084 111.713 448.295 111.888Z" fill="#3C3C3C"/>
<path d="M431.648 61.8009C434.276 65.8289 437.08 69.8568 439.972 73.7097C442.864 77.5625 445.93 81.3278 449.348 84.6552C451.013 86.3189 452.853 87.8951 454.693 88.9459C454.956 89.0335 455.131 89.2086 455.394 89.2961L456.27 89.6464L457.935 90.4345C459.074 90.9599 460.126 91.5728 461.265 92.0982C465.646 94.4624 469.94 97.0018 473.883 100.242C475.811 101.905 477.738 103.657 479.228 106.021C480.542 108.21 481.769 110.399 482.82 112.676C483.872 114.952 484.836 117.317 485.537 119.856C485.887 121.17 486.063 122.483 486.15 123.884C486.15 125.285 486.063 126.774 485.449 128.175C484.31 130.889 482.295 133.166 479.491 134.304C478.089 134.917 476.599 135.092 475.11 135.005C473.62 134.917 472.218 134.567 470.904 133.954C470.553 133.779 470.29 133.604 469.94 133.429L469.502 133.166L469.151 132.903C468.538 132.553 468.1 132.203 467.574 131.765C466.522 130.977 465.558 130.189 464.595 129.401C462.667 127.824 460.914 126.161 459.074 124.76C458.636 124.409 458.198 124.059 457.76 123.796C457.497 123.621 457.322 123.534 457.146 123.446L456.27 123.008C455.131 122.395 453.904 121.695 452.853 120.907C450.75 119.243 449.085 117.492 447.332 115.653L446.106 114.34C445.755 113.989 445.755 113.989 445.58 113.727C445.405 113.551 445.229 113.376 445.054 113.289C444.266 112.676 443.126 112.063 442.075 111.362C439.972 110.049 437.869 108.473 435.941 106.809C435.503 106.371 434.977 105.933 434.539 105.583C434.276 105.32 434.101 105.233 433.926 105.058C433.751 104.883 433.488 104.707 433.312 104.532C432.436 103.832 431.385 103.306 430.421 102.693C428.405 101.555 426.215 100.68 423.937 99.8039C419.468 98.1401 414.824 96.8267 410.092 95.951C408.953 95.7759 407.726 95.5132 406.587 95.4256C405.448 95.2505 404.396 95.2505 402.994 95.1629C400.453 94.9878 397.912 94.6376 395.458 94.1122C390.551 92.9738 385.732 91.135 381.351 88.5956C376.97 86.0562 372.939 82.8164 369.521 79.2262C366.016 75.5485 363.125 71.433 360.584 67.1424L363.388 67.4051C363.125 67.7553 362.95 67.8429 362.687 68.1056C362.424 68.2807 362.249 68.4558 361.986 68.631C361.548 68.9812 361.109 69.3315 360.584 69.6817C359.62 70.2947 358.744 70.9076 357.78 71.433C355.852 72.4838 353.837 73.3594 351.821 74.06C349.806 74.7605 347.615 75.3734 345.688 75.8988C343.935 76.3366 342.182 77.2998 340.605 78.3506C337.275 80.5397 334.296 83.4293 331.492 86.319C328.688 89.2961 325.972 92.4484 323.255 95.6008C320.627 98.8406 317.998 102.081 315.457 105.408C312.828 108.648 310.287 111.975 307.308 115.128C304.416 118.28 301.349 121.17 298.02 123.884C294.69 126.599 291.272 129.05 287.68 131.327C280.582 135.968 273.134 139.908 265.686 143.761L260.078 146.563L257.274 147.964C256.398 148.402 255.434 148.927 254.558 149.365C250.965 151.379 247.548 153.656 244.305 156.108C237.734 161.099 231.687 166.791 225.291 172.307C218.982 177.824 212.322 183.165 205.049 187.543C197.777 192.009 189.978 195.512 181.917 198.139C177.886 199.452 173.767 200.503 169.649 201.466C165.531 202.342 161.412 203.13 157.294 203.918C149.057 205.406 140.645 206.545 132.321 207.42C123.909 208.208 115.497 208.559 107.085 208.646C102.879 208.734 98.7604 208.734 94.7296 209.172C93.7658 209.259 92.7143 209.434 91.7504 209.61C90.7865 209.785 89.8227 210.047 88.7712 210.222C86.6682 210.66 84.6528 211.098 82.4622 211.448C78.2562 212.149 73.8749 212.499 69.5813 212.149C65.2877 211.886 60.9941 210.923 56.8757 209.61C55.8242 209.259 54.8603 208.909 53.8088 208.559C53.6336 208.471 53.283 208.384 53.1078 208.296C52.9325 208.208 52.6697 208.208 52.4944 208.121C52.0563 208.033 51.6182 207.858 51.0924 207.858C49.1647 207.508 47.2369 207.508 45.2216 207.596C41.1908 207.771 37.1601 208.559 33.2169 209.61C29.2738 210.66 25.3307 211.886 21.4752 213.287C17.6197 214.688 13.7642 216.352 10.1716 218.191H10.084C-4.02366 224.495 -19.0075 228.786 -34.2543 231.501C-49.4134 234.215 -64.7477 235.441 -79.9945 237.105L-85.6901 237.718C-87.6179 237.893 -89.5456 237.98 -91.561 238.068C-95.4165 238.243 -99.3596 238.155 -103.215 237.98C-110.926 237.63 -118.637 236.842 -126.26 235.879C-141.507 233.865 -156.666 231.15 -171.65 227.823L-170.686 227.735C-174.454 229.136 -178.222 230.975 -181.639 233.077C-185.057 235.178 -188.299 237.718 -190.84 240.695C-192.067 242.183 -193.206 243.847 -193.907 245.511C-194.257 246.387 -194.608 247.262 -194.783 248.138C-194.871 248.576 -194.958 249.101 -195.046 249.626L-195.309 251.203C-196.098 255.318 -196.974 259.434 -198.025 263.549C-200.041 271.78 -202.582 279.836 -205.649 287.717C-208.803 295.598 -212.571 303.216 -217.478 310.308C-218.004 311.097 -219.143 311.272 -219.932 310.746C-220.72 310.221 -220.895 309.083 -220.37 308.295C-215.726 301.552 -212.045 294.109 -208.978 286.403C-205.912 278.698 -203.458 270.729 -201.53 262.673C-200.566 258.646 -199.69 254.618 -198.902 250.502L-198.639 249.013C-198.551 248.488 -198.463 247.963 -198.288 247.437C-198.025 246.299 -197.675 245.161 -197.237 244.11C-196.36 242.008 -195.046 240.082 -193.556 238.331C-190.665 234.916 -187.16 232.201 -183.48 229.924C-179.799 227.648 -175.944 225.809 -171.825 224.233L-171.3 224.058L-170.686 224.145C-155.79 227.385 -140.719 230.1 -125.647 232.026C-118.111 232.989 -110.488 233.69 -102.952 234.04C-99.1843 234.215 -95.4165 234.215 -91.6486 234.128C-89.8085 234.04 -87.8807 233.952 -86.0406 233.777L-80.345 233.164C-65.0982 231.501 -49.8515 230.187 -34.8676 227.56C-19.8838 224.933 -5.2504 220.73 8.50671 214.601L8.33145 214.688C10.3468 213.637 12.187 212.762 14.2023 211.974C16.1301 211.186 18.1454 210.398 20.1608 209.61C24.1039 208.121 28.2223 206.807 32.3407 205.757C36.4591 204.706 40.7527 203.918 45.1339 203.655C47.3246 203.568 49.6028 203.568 51.8811 204.005C52.4068 204.093 53.0202 204.181 53.5459 204.356C53.8088 204.443 54.1593 204.531 54.4222 204.618C54.7727 204.706 54.8603 204.793 55.2108 204.881C56.1747 205.231 57.1386 205.582 58.1024 205.932C61.9579 207.158 65.9011 208.033 69.8442 208.296C73.7873 208.559 77.818 208.296 81.8488 207.596C83.8642 207.245 85.8796 206.895 87.8949 206.37L89.4722 206.019C89.9979 205.932 90.5236 205.757 91.137 205.669C92.1885 205.494 93.3277 205.319 94.3792 205.231C98.6728 204.793 102.879 204.793 107.085 204.706C115.409 204.618 123.734 204.268 131.97 203.48C140.207 202.692 148.444 201.554 156.68 200.065C160.799 199.364 164.83 198.576 168.948 197.701C172.979 196.825 176.922 195.774 180.865 194.548C188.664 192.009 196.199 188.594 203.209 184.303C210.219 180.013 216.704 174.846 223.013 169.417C229.322 163.989 235.455 158.209 242.202 153.043C245.62 150.504 249.125 148.052 252.893 146.038C253.857 145.512 254.82 144.987 255.784 144.549L258.588 143.148L264.196 140.346C271.644 136.581 278.917 132.64 285.84 128.087C292.762 123.621 299.159 118.455 304.767 112.413C307.571 109.436 310.112 106.196 312.741 102.869C315.369 99.6287 317.91 96.3013 320.627 93.0614C323.343 89.8215 326.06 86.5816 329.039 83.5169C332.018 80.4521 335.085 77.4749 338.765 75.0231C340.605 73.7972 342.621 72.6589 344.987 72.046L346.476 71.6957L347.966 71.2579C348.93 70.9952 349.893 70.6449 350.857 70.2947C352.785 69.5942 354.625 68.8061 356.29 67.8429C357.166 67.4051 357.955 66.8797 358.831 66.3543C359.269 66.0916 359.62 65.8289 359.97 65.4786C360.146 65.3035 360.321 65.2159 360.496 65.0408C360.671 64.8657 360.847 64.6906 360.934 64.6906L362.687 62.7641L363.913 64.9533C368.558 73.1843 375.129 80.4521 383.366 85.1806C387.397 87.5448 391.866 89.2961 396.422 90.2594C398.701 90.7847 401.066 91.135 403.432 91.2225C404.484 91.3101 405.973 91.3101 407.2 91.4852C408.515 91.6604 409.741 91.8355 410.968 92.0106C415.875 92.9738 420.694 94.2873 425.426 96.0386C427.792 96.9142 430.07 97.8774 432.349 99.1033C433.488 99.7163 434.627 100.417 435.678 101.205C435.941 101.38 436.204 101.643 436.467 101.818C436.73 101.993 436.993 102.256 437.256 102.518C437.694 102.956 438.132 103.306 438.57 103.744C440.322 105.32 442.25 106.721 444.266 107.947C445.229 108.56 446.369 109.173 447.508 110.049C447.771 110.224 448.121 110.487 448.384 110.749C448.647 110.925 448.997 111.45 449.085 111.537L450.312 112.851C451.977 114.602 453.641 116.354 455.394 117.667C456.27 118.367 457.234 118.893 458.198 119.418L458.987 119.769C459.337 119.944 459.688 120.119 459.95 120.294C460.564 120.644 461.09 121.082 461.615 121.432C463.718 123.008 465.471 124.672 467.311 126.248C469.151 127.824 470.991 129.313 472.831 130.276C474.671 131.152 476.774 131.327 478.527 130.539C480.279 129.838 481.769 128.175 482.47 126.423C483.171 124.672 482.996 122.395 482.47 120.294C481.944 118.105 481.068 115.916 480.017 113.814C478.965 111.713 477.826 109.523 476.599 107.597C475.46 105.758 473.795 104.182 471.955 102.606C468.362 99.6287 464.244 97.0894 459.95 94.8127C458.899 94.2873 457.847 93.6743 456.708 93.149L455.043 92.3609L454.255 92.0106C453.904 91.8355 453.641 91.6604 453.291 91.5728C450.925 90.1718 448.997 88.4205 447.245 86.6692C445.492 84.8304 443.915 82.9915 442.338 81.0651C440.848 79.1387 439.359 77.1247 437.957 75.1107C436.555 73.0967 435.24 70.9952 434.013 68.8936C432.787 66.7921 431.56 64.603 430.508 62.4139V62.3263C430.333 61.8885 430.508 61.3631 430.947 61.188C430.947 61.2756 431.385 61.4507 431.648 61.8009Z" fill="#3C3C3C"/>
<path d="M343.847 58.2981C337.451 60.1369 331.317 62.7639 325.534 65.8286C319.751 68.8934 314.23 72.4835 309.148 76.6866C307.921 77.7374 306.695 78.7881 305.468 79.9265C304.241 81.0648 303.014 82.2032 301.7 83.2539C299.159 85.443 296.618 87.5446 293.901 89.5586C292.587 90.6093 291.185 91.5725 289.871 92.5357C288.469 93.4989 287.067 94.4622 285.665 95.3378C282.861 97.0891 279.969 98.8404 276.814 100.066C279.618 98.2274 282.247 96.301 284.876 94.1995C286.19 93.1487 287.505 92.0979 288.731 91.0472C290.046 89.9964 291.273 88.9456 292.499 87.8948C295.04 85.7057 297.494 83.5166 299.947 81.3275C301.174 80.1892 302.401 79.1384 303.628 78.0001C304.854 76.8617 306.081 75.7234 307.396 74.6726C312.653 70.382 318.436 66.7918 324.57 63.9898C327.637 62.5887 330.791 61.4504 334.033 60.3996C337.276 59.524 340.518 58.7359 343.847 58.2981Z" fill="#3C3C3C"/>
<path d="M451.89 60.8378C452.153 59.9621 452.503 59.3492 452.854 58.7362C453.292 58.1233 453.73 57.5103 454.343 57.0725C454.869 56.6347 455.57 56.2844 456.184 56.0217C456.885 55.759 457.498 55.759 458.199 55.759C457.585 55.9342 456.972 56.2844 456.534 56.6347C456.008 56.9849 455.658 57.5103 455.307 57.9481C454.957 58.4735 454.781 58.9989 454.606 59.5243C454.519 60.0497 454.431 60.6626 454.431 61.1005L451.89 60.8378Z" fill="#3C3C3C"/>
</svg>
