<svg width="544" height="394" viewBox="0 0 544 394" fill="none" xmlns="http://www.w3.org/2000/svg">
<path d="M98.9502 304.939C98.656 304.939 98.3617 304.841 98.0674 304.743C97.0864 304.253 96.694 303.077 97.2826 302.096C99.4406 297.979 101.795 295.038 103.561 293.176C99.1464 291.215 95.3207 287 93.7512 284.942C88.6503 286.216 84.138 285.432 79.3314 284.55C77.6638 284.256 75.8981 283.863 74.0343 283.667C70.601 283.177 68.3449 282.099 66.6773 281.315C64.5192 280.236 63.8325 279.942 61.8706 281.119C57.9469 283.471 52.5517 283.569 47.2546 283.765C45.1946 283.863 43.0366 283.863 41.0747 284.06C39.309 284.256 36.6605 284.942 33.7177 285.726C25.772 287.883 14.7855 290.823 7.33031 286.706C2.13132 283.863 -0.222946 280.629 0.267524 277.1C0.757995 272.983 5.56461 269.258 13.0198 267.395C17.5321 266.219 19.3959 265.042 21.1616 263.866C23.2215 262.494 25.3796 261.121 30.8729 260.141C35.091 259.455 38.6224 257.494 42.0557 255.73C46.2737 253.475 50.1975 251.417 54.7098 252.005C57.5546 252.397 60.8897 252.103 64.7154 251.809C70.2086 251.417 76.9771 250.829 84.8247 252.005C92.3779 253.181 96.3016 251.515 99.7349 250.142C102.089 249.162 104.345 248.28 107.19 248.378C112.88 248.672 120.04 247.692 129.457 245.143C133.185 244.163 136.913 241.712 141.033 239.163C146.722 235.537 152.608 231.714 159.278 231.321C162.319 231.125 165.262 229.949 168.793 228.577C175.954 225.832 185.665 222.009 202.734 223.969C212.151 224.165 217.938 220.833 222.941 217.794C227.65 215.049 232.064 212.402 238.146 213.187C248.936 214.559 257.372 211.716 268.457 206.521C279.934 201.031 295.923 200.443 307.106 200.443H308.872C320.447 200.443 324.37 200.443 344.48 191.327C364.491 181.23 377.439 178.681 387.837 176.623C395.195 175.152 400.884 174.074 407.162 170.741C423.348 162.115 434.04 158.782 468.569 162.213C502.706 165.644 511.828 158.096 523.894 145.646C537.725 131.335 556.952 118.493 586.282 104.083C613.944 90.4577 629.247 86.2426 650.533 80.263C653.182 79.5768 655.929 78.7926 658.773 78.0084C679.275 72.2249 682.904 64.9709 690.752 49.1887C692.518 45.6598 694.48 41.7387 696.834 37.3275C710.175 12.6249 728.126 1.25389 728.911 0.86178C729.793 0.273623 731.069 0.567702 731.657 1.44994C732.246 2.33217 731.952 3.60651 731.069 4.19467C730.873 4.2927 713.216 15.5657 700.365 39.2881C698.011 43.6012 696.049 47.6203 694.284 51.0512C686.142 67.4216 682.022 75.6558 659.852 81.9295C657.008 82.7137 654.261 83.4979 651.613 84.1841C630.62 90.0656 615.416 94.2808 588.048 107.71C559.208 121.924 540.276 134.472 526.837 148.489C513.888 161.919 503.589 169.761 468.373 166.232C434.923 162.899 424.623 166.134 409.124 174.368C402.355 177.995 396.077 179.171 388.72 180.642C378.519 182.602 365.864 185.053 346.344 195.052C325.351 204.56 320.839 204.56 308.97 204.56H307.204C296.512 204.56 281.013 205.148 270.321 210.246C261.002 214.657 250.8 218.872 237.852 217.304C233.045 216.715 229.612 218.774 225.197 221.421C219.9 224.558 213.328 228.381 202.734 228.087H202.538C186.45 226.224 177.524 229.655 170.363 232.498C166.537 233.968 163.3 235.242 159.671 235.439C153.981 235.733 148.586 239.262 143.289 242.594C138.973 245.339 134.951 247.888 130.635 249.064C120.727 251.613 113.272 252.691 107.19 252.397C105.228 252.299 103.561 252.985 101.403 253.867C97.675 255.436 92.9665 257.298 84.4323 256.024C77.0752 254.946 70.7972 255.436 65.2058 255.828C61.0859 256.122 57.5545 256.416 54.3174 256.024C51.0803 255.632 47.8432 257.298 44.1156 259.357C40.5842 261.219 36.5624 263.376 31.7558 264.16C27.0473 264.944 25.4777 265.925 23.5158 267.297C21.554 268.571 19.3959 270.042 14.1969 271.316C8.70363 272.786 4.5837 275.335 4.28942 277.786C4.09323 279.452 5.85888 281.511 9.39027 283.471C15.4721 286.804 25.5758 284.059 32.9329 282.099C36.17 281.217 38.9167 280.531 40.9766 280.236C43.0366 280.04 45.2928 279.942 47.3528 279.942C52.1594 279.844 57.064 279.746 60.0068 277.884C63.8325 275.629 66.1868 276.806 68.5411 277.884C70.1106 278.668 71.8762 279.452 74.6229 279.844C76.5847 280.138 78.3504 280.433 80.1161 280.727C85.0208 281.609 89.3371 282.393 93.9475 280.923L95.3207 280.432L96.2036 281.609C97.8712 283.961 103.168 290.039 107.779 290.235L113.37 290.529L108.76 293.764C108.76 293.764 104.444 296.901 100.814 303.861C100.324 304.547 99.6369 304.939 98.9502 304.939Z" fill="#3C3C3C"/>
<path d="M145.347 266.708C144.857 268.669 144.072 270.629 142.993 272.492C141.914 274.354 140.148 275.825 138.775 277.197C135.93 279.844 133.87 283.177 131.908 286.608L131.124 287.98C131.026 288.176 130.731 288.568 130.535 288.764C130.339 289.058 130.143 289.254 129.947 289.45C129.162 290.333 128.279 291.019 127.396 291.607C125.63 292.881 123.865 293.959 122.001 294.94C118.371 296.9 114.644 298.665 110.916 300.331L108.072 301.508L106.6 302.096L106.208 302.194L105.815 302.292L105.227 302.586C103.461 303.37 101.794 304.252 100.126 305.331C98.4583 306.311 96.7907 307.487 95.2212 308.565C94.4365 309.154 93.6517 309.742 92.8669 310.33C92.0822 310.918 91.1994 311.604 90.3165 312.192C88.5508 313.369 86.589 314.447 84.6271 315.329C82.6653 316.211 80.6052 316.898 78.9376 317.584C78.0548 317.976 77.3681 318.368 76.8777 318.76C76.3872 319.152 76.0929 319.642 75.7987 320.231C75.3082 321.603 75.3081 323.171 75.7005 324.642C76.6814 327.779 79.33 330.523 82.469 332.19C84.0385 333.072 85.8043 333.66 87.57 334.052C88.4528 334.248 89.3356 334.346 90.3165 334.444C90.807 334.444 91.2975 334.542 91.6899 334.542H93.1613C100.911 334.542 108.562 332.386 114.938 328.073C116.508 326.994 118.077 325.818 119.451 324.544C120.137 323.857 120.824 323.171 121.51 322.485L122.099 321.897L122.688 321.309C123.08 320.917 123.472 320.623 123.865 320.231C125.532 318.858 127.2 317.584 128.966 316.407C130.731 315.329 132.595 314.251 134.459 313.369C138.186 311.506 142.11 310.036 146.034 308.958C147.996 308.369 150.056 307.977 152.116 307.683C154.176 307.487 156.334 307.291 158.296 307.879H158.394C158.884 307.977 159.08 308.467 158.982 308.958C158.884 309.35 158.394 309.644 158.001 309.546C156.432 309.252 154.47 309.546 152.606 309.938C150.742 310.33 148.781 310.918 146.917 311.506C143.189 312.781 139.56 314.447 136.028 316.309C132.595 318.172 129.162 320.427 126.317 322.975C125.925 323.269 125.63 323.661 125.238 323.955L124.748 324.446L124.257 325.034C123.57 325.818 122.786 326.504 122.001 327.288C120.431 328.759 118.764 330.033 116.998 331.209C110.033 336.013 101.499 338.463 93.0632 338.463C92.4746 338.463 91.9842 338.463 91.4937 338.463C90.9052 338.463 90.4146 338.463 89.826 338.365C88.747 338.267 87.668 338.071 86.589 337.875C84.4309 337.385 82.3709 336.699 80.409 335.621C76.5834 333.562 73.1501 330.229 71.6786 325.72C70.992 323.465 70.894 320.917 71.8749 318.564C72.3654 317.388 73.1501 316.211 74.131 315.427C75.1119 314.643 76.1909 314.153 77.1719 313.663C79.1338 312.879 80.9976 312.192 82.8614 311.408C84.6271 310.624 86.3927 309.742 87.9622 308.663C89.5317 307.683 91.1993 306.311 92.8669 305.134C94.5345 303.958 96.3003 302.782 98.066 301.704C99.8317 300.625 101.695 299.645 103.657 298.763L104.442 298.469L104.736 298.371L105.129 298.273L106.502 297.684L109.249 296.508C112.976 294.94 116.606 293.273 120.137 291.411C121.903 290.431 123.57 289.45 125.14 288.372C125.925 287.784 126.709 287.196 127.298 286.608C127.396 286.411 127.592 286.313 127.69 286.117C127.788 285.921 127.788 285.921 127.985 285.627L128.769 284.353C129.848 282.588 130.928 280.824 132.301 279.06C133.576 277.393 135.146 275.727 136.715 274.354C138.383 272.982 139.756 271.904 140.835 270.433C141.914 268.963 142.797 267.296 143.582 265.434C143.778 265.042 144.268 264.846 144.661 265.042C145.053 265.238 145.249 265.63 145.151 266.022L145.347 266.708Z" fill="#3C3C3C"/>
<path d="M171.54 309.84C174.581 311.212 177.523 312.683 180.466 313.957C183.507 315.134 186.548 316.212 189.687 316.702C192.826 317.192 196.063 317.094 199.202 316.506C202.341 315.918 205.382 314.741 208.521 313.467C205.873 315.526 202.832 317.094 199.595 317.976C197.927 318.466 196.259 318.76 194.592 318.858C192.924 318.957 191.158 318.858 189.491 318.662C186.156 318.172 182.919 316.996 179.878 315.428C176.837 313.761 174.09 311.899 171.54 309.84Z" fill="#3C3C3C"/>
<path d="M167.615 279.747C168.007 281.119 168.105 282.491 168.105 283.962C168.105 285.432 167.811 286.804 167.419 288.177C166.536 290.922 164.672 293.47 162.318 295.137C161.141 296.019 159.767 296.705 158.394 297.195C157.707 297.489 157.021 297.685 156.334 297.881L154.372 298.47C151.724 299.254 149.075 300.234 146.525 301.214C143.876 302.195 141.326 303.273 138.873 304.449C136.323 305.626 133.871 306.9 131.418 308.174C128.966 309.547 126.612 310.919 124.257 312.487C121.903 314.056 119.745 315.722 117.783 317.683C119.451 315.428 121.609 313.468 123.767 311.703C126.023 309.939 128.279 308.37 130.732 306.9C135.538 303.959 140.639 301.508 145.936 299.352C148.585 298.372 151.233 297.391 153.98 296.607L156.04 296.019C156.726 295.823 157.315 295.627 158.002 295.431C159.277 294.941 160.454 294.451 161.631 293.666C163.887 292.196 165.653 290.137 166.732 287.589C167.517 285.432 167.909 282.589 167.615 279.747Z" fill="#3C3C3C"/>
<path d="M262.081 259.847C259.432 260.925 256.882 262.003 254.233 263.18C251.683 264.356 249.034 265.434 246.582 266.709C244.031 267.983 241.579 269.257 239.127 270.63C236.674 272.002 234.32 273.472 232.358 275.335L231.279 273.669C233.928 272.492 236.674 271.512 239.421 270.63C242.168 269.747 244.914 268.963 247.759 268.277C253.35 266.905 259.04 266.022 264.827 265.532C270.615 265.042 276.402 264.944 282.19 265.336C287.978 265.728 293.667 266.415 299.356 267.101C310.735 268.473 322.016 270.14 333.297 270.434C338.987 270.63 344.676 270.336 350.267 269.845C355.957 269.257 361.548 268.179 367.041 266.905C356.251 270.63 344.676 272.394 333.199 272.492C321.722 272.59 310.245 271.218 298.964 269.943C293.275 269.257 287.683 268.669 281.994 268.375C276.403 267.983 270.713 267.983 265.122 268.473C259.53 268.865 253.841 269.649 248.348 270.924C242.854 272.1 237.361 273.669 232.162 275.727L226.473 277.982L231.083 274.061C233.339 272.1 235.89 270.728 238.44 269.453C240.991 268.179 243.541 267.003 246.19 265.924C251.389 263.474 256.686 261.513 262.081 259.847Z" fill="#3C3C3C"/>
<path d="M234.613 280.923C239.812 279.06 245.305 277.982 250.799 277.198C256.292 276.512 261.883 276.12 267.475 276.218C273.066 276.316 278.559 276.806 284.151 277.59C286.897 277.982 289.644 278.57 292.293 279.06C295.039 279.55 297.688 280.041 300.434 280.433C305.83 281.315 311.323 282.001 316.718 282.589C322.211 283.177 327.606 283.569 333.1 283.962C338.593 284.256 344.086 284.452 349.58 284.452C355.073 284.452 360.566 284.256 366.059 283.373C360.762 284.942 355.171 285.432 349.678 285.824C344.184 286.216 338.593 286.314 333.1 286.216C322.015 286.02 310.93 285.04 299.944 283.373C297.197 282.981 294.451 282.491 291.704 281.903C288.957 281.413 286.309 280.825 283.66 280.335C278.265 279.354 272.87 278.864 267.377 278.472C261.883 278.178 256.39 278.178 250.995 278.57C245.502 279.06 240.008 279.648 234.613 280.923Z" fill="#3C3C3C"/>
<path d="M212.542 263.768C210.875 262.396 209.894 260.24 209.796 257.985C209.698 255.73 210.384 253.476 211.463 251.613L212.052 250.535L212.837 251.613C213.622 252.79 214.799 253.966 216.074 254.554C217.349 255.142 218.723 255.142 219.998 254.652C221.273 254.162 222.45 253.182 223.529 252.103C224.608 250.927 225.687 249.653 226.766 248.476C228.924 246.026 231.278 243.575 233.633 241.32C236.085 238.968 238.636 236.811 241.578 235.047C244.521 233.282 247.856 231.812 251.584 231.812C253.35 231.812 255.312 232.302 256.783 233.086C258.353 233.772 259.824 234.655 261.197 235.635C264.042 237.497 266.298 239.948 269.339 240.634C270.81 241.026 272.478 240.83 274.048 240.634C275.617 240.34 277.186 239.85 278.756 239.36C277.285 240.144 275.813 240.83 274.146 241.32C272.576 241.811 270.81 242.105 269.045 241.909C267.279 241.713 265.611 240.83 264.238 240.046C262.767 239.164 261.491 238.282 260.118 237.497C258.745 236.713 257.273 236.027 255.802 235.439C254.331 234.851 252.957 234.557 251.486 234.557C248.543 234.655 245.698 235.929 243.05 237.595C237.753 241.026 233.24 245.732 228.728 250.437C227.551 251.613 226.472 252.79 225.295 253.966C224.019 255.142 222.548 256.318 220.782 256.907C219.9 257.201 218.919 257.397 217.938 257.299C216.957 257.201 215.976 256.907 215.191 256.416C213.523 255.436 212.346 254.162 211.463 252.495H212.837C211.758 254.162 210.875 256.122 210.777 258.083C210.679 259.063 210.875 260.141 211.169 261.122C211.365 262.004 211.856 262.984 212.542 263.768Z" fill="#3C3C3C"/>
<path d="M63.7329 279.06C62.6539 277.884 61.9672 276.806 61.2806 275.629C60.692 274.453 60.2015 273.179 59.8092 271.904C59.1225 269.356 59.1226 266.611 59.613 264.16C59.613 266.709 60.1035 269.258 61.1825 271.414C61.673 272.492 62.3596 273.571 63.1444 274.453C63.831 275.335 64.8119 276.315 65.5967 276.904L63.7329 279.06Z" fill="#3C3C3C"/>
<path d="M93.1623 282.981C92.7699 281.609 92.4756 280.334 92.2794 278.962C92.0832 277.59 91.8871 276.315 91.789 274.943C91.5928 272.296 91.6909 269.552 92.3775 267.003C92.0832 269.65 92.5737 272.198 93.2603 274.747C93.5546 276.021 94.0452 277.198 94.4375 278.374C94.928 279.55 95.4184 280.825 95.9089 281.903L93.1623 282.981Z" fill="#3C3C3C"/>
<path d="M111.408 275.532C112.683 277.002 114.057 278.473 115.528 279.747C117 281.021 118.569 282.198 120.237 283.08C121.904 283.962 123.67 284.648 125.436 284.746C127.201 284.844 128.869 284.354 130.242 283.374L131.812 285.923C129.85 287.001 127.398 287.393 125.239 286.903C123.081 286.511 121.218 285.433 119.55 284.256C117.882 283.08 116.411 281.708 115.038 280.237C113.664 278.767 112.487 277.198 111.408 275.532Z" fill="#3C3C3C"/>
<path d="M125.436 272.885C126.711 274.453 128.281 275.826 129.948 276.708C130.831 277.1 131.714 277.394 132.499 277.394C133.284 277.394 134.068 277.198 134.755 276.708L135.834 279.453C134.657 279.845 133.284 279.845 132.106 279.551C130.929 279.257 129.948 278.669 129.066 277.982C128.183 277.296 127.496 276.512 126.908 275.63C126.417 274.748 125.829 273.865 125.436 272.885Z" fill="#3C3C3C"/>
<path d="M99.93 352.971C100.126 354.441 100.028 355.912 99.6357 357.284C99.2433 358.754 98.6548 360.127 97.6738 361.303L97.5758 360.323C98.3605 361.107 98.9491 361.793 99.4396 362.676C99.93 363.558 100.224 364.44 100.421 365.42C100.813 367.283 100.813 369.243 100.322 371.106C100.028 369.243 99.7338 367.479 99.1453 365.812C98.851 365.028 98.4586 364.146 98.0662 363.46C97.6739 362.774 97.0853 361.989 96.5948 361.499L96.1044 361.009L96.4968 360.519C98.3606 358.362 99.3415 355.716 99.93 352.971Z" fill="#3C3C3C"/>
<path d="M9.48852 281.707C9.19423 281.413 8.99805 281.021 8.99805 280.531C8.99805 280.041 9.19423 279.649 9.48852 279.355C10.1752 278.767 10.9599 278.375 11.7447 278.08C13.4123 277.492 15.178 277.296 16.8456 277.1C20.2789 276.806 23.7121 276.708 27.0473 276.022C28.7149 275.63 30.2844 275.14 31.6577 274.257C33.0311 273.375 34.3063 272.199 35.7777 271.219C37.2491 270.238 39.0148 269.552 40.6824 269.16C42.4481 268.768 44.1157 268.572 45.8814 268.376C47.6471 268.18 49.3147 268.082 50.9823 267.788C52.6499 267.494 54.2194 267.102 55.6908 266.415C56.0832 266.219 56.3775 266.023 56.6718 265.729C57.0641 265.435 57.5545 265.141 58.045 265.043C59.0259 264.749 60.0069 264.847 60.8897 264.945C62.6554 265.337 64.323 266.023 65.8925 266.513C69.1296 267.69 72.3668 268.67 75.8001 268.964C79.2334 269.356 82.6666 269.062 86.0018 268.474C82.6666 269.454 79.2333 269.846 75.7019 269.65C72.2686 269.454 68.8354 268.67 65.5002 267.592C63.8326 267.102 62.2631 266.415 60.6936 266.219C59.9088 266.121 59.124 266.121 58.4374 266.317C58.045 266.415 57.8488 266.611 57.4564 266.807C57.1622 267.102 56.6717 267.396 56.2794 267.592C54.6118 268.474 52.846 268.964 51.1784 269.258C49.4127 269.552 47.7452 269.65 45.9795 269.846C42.5462 270.238 39.2109 270.532 36.4643 272.395C34.9929 273.277 33.8158 274.355 32.2463 275.336C30.6768 276.316 28.9111 276.806 27.2435 277.1C23.8102 277.688 20.2788 277.688 16.9436 277.786C15.276 277.884 13.5103 277.982 11.8427 278.473C11.058 278.669 10.1752 278.963 9.58659 279.551C9.2923 279.845 8.99805 280.139 8.99805 280.629C9.09614 280.923 9.29233 281.315 9.48852 281.707Z" fill="#3C3C3C"/>
<path d="M95.1239 393.849C94.5353 393.849 93.9467 393.751 93.3581 393.653C89.3363 392.771 87.0802 389.34 87.0802 389.242L86.982 389.046C86.3934 387.87 86.3935 383.949 86.5897 380.91C86.7859 374.734 86.884 374.44 83.745 364.539C81.5869 357.874 82.862 352.384 84.0392 346.993C84.7258 343.758 85.4125 340.719 85.4125 337.288H88.8458C88.8458 341.013 88.0611 344.444 87.3744 347.679C86.2954 352.776 85.2164 357.678 87.0802 363.461C90.3173 373.558 90.3173 374.342 90.1211 380.91C89.9249 385.321 90.1211 386.987 90.2192 387.478C91.0039 388.556 94.241 392.281 99.2438 388.948C105.424 384.929 105.228 369.539 102.775 363.461L102.481 362.775L102.775 362.089C102.775 361.991 107.091 352.482 105.326 341.111L105.129 340.131L105.914 339.543C106.012 339.445 113.467 333.563 117.686 326.799L120.628 328.564C116.901 334.543 111.015 339.739 108.857 341.601C110.23 351.894 107.19 360.422 106.209 362.873C108.857 370.421 108.955 386.791 101.108 391.889C99.0476 393.163 97.0858 393.849 95.1239 393.849Z" fill="#3C3C3C"/>
<path d="M111.8 392.084C111.015 392.084 110.328 391.986 109.544 391.79C105.228 390.614 102.873 386.203 102.775 386.007C102.383 385.321 102.677 384.438 103.462 384.046C104.149 383.654 105.031 383.948 105.424 384.732C105.424 384.732 107.19 388.163 110.329 389.046C111.996 389.536 113.86 389.144 115.822 387.869C119.255 385.713 120.236 375.518 120.04 369.538V369.048L120.334 368.656C123.277 364.833 130.438 353.56 128.476 347.679L127.789 345.816L129.751 345.718C129.947 345.718 135.637 345.228 139.266 336.308C141.915 329.642 143.779 328.465 144.858 328.073C145.446 327.877 146.133 327.975 146.623 328.269C147.31 328.759 147.506 329.642 147.016 330.328C146.721 330.818 146.133 331.014 145.642 331.014C145.25 331.308 143.975 332.485 142.013 337.484C138.874 345.228 134.165 347.581 131.615 348.365C132.792 356.207 124.748 367.676 122.983 370.029C123.081 373.263 122.885 386.889 117.391 390.418C115.527 391.496 113.664 392.084 111.8 392.084Z" fill="#3C3C3C"/>
<path d="M113.761 379.243C114.644 378.36 115.036 377.086 115.135 375.812C115.233 374.537 115.036 373.361 114.644 372.185C113.859 369.832 112.682 367.577 111.211 365.519L111.015 365.225L111.407 364.931C113.075 363.754 114.644 362.284 116.017 360.814C117.391 359.245 118.568 357.579 119.451 355.716C120.334 353.854 120.824 351.893 120.824 349.835C120.824 347.776 120.334 345.816 119.451 343.953L119.254 343.463L119.745 343.267C121.511 342.581 123.178 341.404 124.748 340.228C126.317 338.954 127.691 337.581 128.77 335.915C129.849 334.249 130.731 332.484 131.418 330.622C132.007 328.759 132.399 326.701 132.497 324.74C132.595 326.799 132.301 328.759 131.811 330.72C131.32 332.68 130.535 334.641 129.358 336.307C128.279 338.072 126.906 339.64 125.336 341.012C123.767 342.385 122.099 343.463 120.137 344.345L120.432 343.659C121.413 345.62 122.001 347.776 121.903 350.031C121.903 352.285 121.314 354.442 120.333 356.402C119.353 358.363 118.077 360.127 116.606 361.696C115.135 363.264 113.565 364.735 111.701 365.911L111.799 365.323C112.486 366.401 113.173 367.479 113.663 368.656C114.252 369.832 114.742 371.008 115.036 372.283C115.331 373.557 115.527 374.831 115.331 376.106C115.233 377.086 114.742 378.36 113.761 379.243Z" fill="#3C3C3C"/>
<path d="M152.116 385.124C148.192 385.124 144.759 382.869 142.405 378.556C139.07 372.479 137.99 359.441 137.99 354.442C137.99 350.521 139.168 348.168 140.639 345.423C141.424 343.855 142.405 342.091 143.288 339.542C145.151 334.248 143.386 332.386 143.288 332.386C142.503 331.7 142.405 330.523 143.091 329.641C143.778 328.857 145.053 328.759 145.838 329.445C146.23 329.739 149.762 332.974 146.917 340.914C145.936 343.659 144.955 345.619 144.072 347.286C142.797 349.835 141.914 351.501 141.914 354.442C141.914 360.617 143.288 371.989 145.838 376.694C147.8 380.419 150.547 381.791 153.882 380.909C154.47 380.713 155.451 379.929 156.432 378.066C158.1 374.831 159.179 369.44 157.511 365.127L157.119 364.048L157.904 363.166C158.198 362.774 160.65 359.637 158.394 356.892L157.217 355.422L158.59 354.148C158.688 354.05 166.438 347.09 166.242 340.522V340.228L166.34 339.934C166.634 338.954 168.302 335.621 177.621 336.993C183.899 337.875 189.49 336.209 194.885 331.7C195.67 330.621 199.005 326.798 206.068 325.034C212.15 323.564 214.602 320.231 217.152 316.702C219.703 313.369 222.253 309.84 227.845 308.468C235.398 306.605 236.869 304.35 238.439 301.9C239.518 300.233 240.695 298.273 243.736 296.704C251.583 291.607 267.671 295.234 284.641 299.057C291.017 300.527 297.59 301.998 303.475 302.88C312.696 304.252 324.075 304.056 337.416 303.762C353.798 303.37 372.435 302.978 393.428 305.331C434.823 310.134 464.153 307.879 483.086 298.665C491.816 294.352 499.369 293.568 506.53 292.685C517.419 291.411 527.62 290.235 542.531 278.275C550.869 270.923 556.362 268.963 561.267 267.297C566.171 265.532 570.487 264.062 577.158 256.906C588.046 245.241 598.444 243.378 609.529 241.32C612.864 240.731 616.297 240.045 619.829 239.163C638.27 234.262 690.555 217.891 710.762 201.325C732.441 183.582 785.314 169.172 787.472 168.584C788.551 168.29 789.63 168.878 789.924 169.956C790.218 171.035 789.63 172.113 788.551 172.407C787.962 172.505 734.305 187.209 713.214 204.364C688.2 224.851 621.398 242.79 620.712 242.986C617.082 243.966 613.551 244.554 610.117 245.241C599.719 247.103 589.91 248.966 579.904 259.65C572.547 267.591 567.643 269.257 562.444 271.12C557.735 272.786 552.83 274.452 544.983 281.412C529.19 294.156 517.909 295.43 506.922 296.704C499.664 297.489 492.895 298.273 484.753 302.292C465.036 311.898 435.019 314.153 392.937 309.35C372.141 306.997 353.699 307.389 337.416 307.781C323.977 308.075 312.304 308.37 302.789 306.899C296.805 306.017 290.135 304.448 283.758 303.076C268.26 299.645 252.27 296.018 245.796 300.233L245.6 300.331C243.54 301.41 242.755 302.586 241.774 304.154C240.008 306.997 237.948 310.232 228.826 312.389C224.608 313.467 222.646 316.114 220.39 319.152C217.643 322.877 214.504 327.092 207.049 328.857C200.476 330.523 198.122 333.954 198.024 334.15L197.828 334.346L197.632 334.543C191.256 339.934 184.585 341.993 177.032 340.816C172.52 340.13 170.754 340.718 170.165 341.11C169.969 347.482 164.77 353.364 162.416 355.912C164.084 359.245 162.906 362.676 161.533 364.735C163.103 370.028 161.925 376.008 159.964 379.831C158.59 382.477 156.825 384.144 154.961 384.634C153.98 385.026 152.999 385.124 152.116 385.124Z" fill="#3C3C3C"/>
<path d="M156.138 363.559C154.372 362.873 152.607 362.285 150.841 362.089C149.075 361.893 147.408 362.285 146.034 363.265L145.348 363.755L145.053 363.069C144.269 361.305 143.974 359.442 144.269 357.678C144.563 355.913 145.348 354.247 146.721 352.874C147.408 352.286 148.192 351.698 149.173 351.404C150.154 351.11 151.135 351.208 152.018 351.404C153.882 351.992 155.353 353.266 156.236 354.835L156.138 354.933C154.765 353.855 153.293 352.874 151.724 352.58C150.154 352.286 148.683 352.678 147.212 353.56C145.74 354.345 144.759 356.011 144.857 357.776C144.857 358.658 145.053 359.442 145.25 360.226C145.544 361.01 145.838 361.795 146.132 362.481L145.152 362.285C145.936 361.599 146.917 361.108 147.898 360.912C148.879 360.716 149.958 360.716 150.939 360.912C151.92 361.108 152.901 361.501 153.686 361.893C154.569 362.383 155.353 362.873 156.04 363.559H156.138Z" fill="#3C3C3C"/>
<path d="M136.422 317.977C137.599 317.879 138.874 318.173 139.954 318.565C141.131 318.957 142.21 319.643 143.093 320.428C144.956 322.094 146.133 324.643 145.839 326.995C145.349 325.917 144.858 324.839 144.27 323.956C143.681 323.074 142.896 322.192 142.112 321.506C140.444 320.035 138.58 318.957 136.422 317.977Z" fill="#3C3C3C"/>
<path d="M148.781 331.7C150.252 330.818 151.92 330.426 153.685 330.328C155.353 330.23 157.119 330.426 158.786 330.916C160.454 331.406 162.023 332.289 163.298 333.563C164.574 334.837 165.457 336.406 165.751 338.072C164.378 336.994 163.2 336.112 161.925 335.425C160.65 334.739 159.277 334.151 157.903 333.759C156.53 333.367 155.059 332.975 153.489 332.681L148.781 331.7Z" fill="#3C3C3C"/>
<path d="M185.861 333.171C183.899 333.073 182.133 332.092 180.564 331.112C178.994 330.034 177.425 328.858 175.953 327.583C173.108 325.035 170.46 322.192 168.302 318.957C167.321 317.486 165.849 316.506 164.28 315.624C162.71 314.742 160.945 314.154 159.179 313.565C155.648 312.487 151.92 311.703 148.291 311.311L148.683 309.448C151.822 310.429 154.863 311.409 157.904 312.781C159.375 313.467 160.847 314.154 162.318 315.036C163.691 315.918 165.163 316.898 166.144 318.369C166.242 318.565 166.438 318.761 166.536 318.957L166.83 319.545C167.027 319.937 167.223 320.231 167.321 320.623C167.713 321.31 168.106 321.996 168.498 322.682C169.283 324.054 170.264 325.329 171.245 326.505C173.305 328.956 175.757 331.014 178.602 332.485C175.561 331.406 172.814 329.446 170.558 327.191C169.381 326.015 168.4 324.74 167.419 323.466C166.928 322.78 166.536 322.094 166.046 321.408C165.653 320.721 165.261 319.839 164.868 319.349C163.986 318.271 162.71 317.388 161.337 316.604C159.964 315.82 158.59 315.134 157.119 314.546C154.176 313.369 151.135 312.291 148.193 311.409L148.585 309.546C152.411 310.037 156.236 310.821 159.866 311.997C161.73 312.585 163.495 313.271 165.261 314.252C166.928 315.232 168.694 316.408 169.773 318.271C171.735 321.408 174.188 324.348 176.836 326.995C178.111 328.367 179.485 329.642 181.054 330.818C181.839 331.406 182.525 331.896 183.408 332.386C183.997 332.583 184.88 332.975 185.861 333.171Z" fill="#3C3C3C"/>
<path d="M179.388 286.609C182.723 285.824 185.862 284.648 188.805 283.178C191.747 281.707 194.396 279.747 196.554 277.394C198.712 275.042 200.282 272.199 201.262 269.062C202.243 265.925 202.538 262.592 202.636 259.259C203.421 262.592 203.519 266.121 202.734 269.454C202.341 271.12 201.753 272.787 200.968 274.355C200.183 275.924 199.104 277.394 197.927 278.668C195.573 281.315 192.532 283.276 189.295 284.55C186.156 285.922 182.821 286.609 179.388 286.609Z" fill="#3C3C3C"/>
<path d="M169.872 304.253C172.815 305.528 175.856 306.508 178.897 307.292C181.937 308.076 184.978 308.566 188.117 308.762C194.199 309.155 200.281 307.88 205.382 304.743C207.932 303.273 210.188 301.214 212.445 298.96C214.701 296.803 216.663 294.451 218.527 292C220.292 289.451 221.862 286.805 222.843 283.864C223.333 282.393 223.627 280.923 223.823 279.355C223.922 278.57 223.922 277.786 223.823 277.002C223.725 276.218 223.627 275.433 223.333 274.747C223.627 275.041 223.824 275.433 224.02 275.728C224.216 276.12 224.314 276.512 224.51 276.904C224.804 277.688 224.903 278.472 225.001 279.355C225.197 281.021 225.099 282.687 224.804 284.354C224.216 287.687 222.941 290.824 221.175 293.666C219.507 296.509 217.447 299.156 215.191 301.607C214.014 302.783 212.935 303.959 211.66 305.135C210.385 306.214 209.011 307.292 207.54 308.174C204.597 309.939 201.36 311.213 198.025 311.801C194.69 312.389 191.256 312.389 187.921 311.899C184.586 311.409 181.447 310.429 178.406 309.253C175.365 307.88 172.422 306.312 169.872 304.253Z" fill="#3C3C3C"/>
<path d="M229.022 281.315C230.591 282.296 231.964 283.668 233.043 285.236C234.024 286.805 234.809 288.667 235.005 290.628C235.202 292.588 234.907 294.549 234.221 296.313C233.534 298.078 232.455 299.744 231.082 300.921C231.768 299.156 232.357 297.49 232.749 295.823C233.142 294.157 233.142 292.392 233.043 290.726C232.847 289.059 232.357 287.393 231.67 285.825C230.983 284.354 230.101 282.884 229.022 281.315Z" fill="#3C3C3C"/>
<path d="M484.165 215.735C489.658 214.755 495.348 214.461 500.939 214.559C506.53 214.657 512.22 215.245 517.811 217.01C519.185 217.5 520.558 218.088 521.833 218.872C523.108 219.656 524.384 220.538 525.463 221.911C525.953 222.499 526.444 223.381 526.64 223.969C526.934 224.656 527.228 225.342 527.425 226.028C527.915 227.4 528.307 228.969 528.013 230.733C527.915 231.223 527.817 231.615 527.523 232.106C527.228 232.596 526.836 232.988 526.346 233.184C525.365 233.674 524.482 233.674 523.697 233.576C522.128 233.38 520.754 232.694 519.479 232.008C516.928 230.537 514.77 228.773 512.809 226.812C515.163 228.283 517.615 229.753 520.166 230.733C521.441 231.223 522.716 231.615 523.893 231.713C524.482 231.713 524.972 231.615 525.267 231.419C525.561 231.223 525.659 230.929 525.757 230.439C525.855 229.459 525.463 228.185 524.972 226.91C524.776 226.322 524.482 225.734 524.187 225.146C523.893 224.558 523.599 224.165 523.207 223.675C521.735 221.911 519.283 220.735 516.732 219.852C514.182 218.97 511.533 218.382 508.885 217.892C506.236 217.402 503.49 217.108 500.743 216.813C495.25 216.323 489.756 216.029 484.165 215.735Z" fill="#3C3C3C"/>
<path d="M504.373 188.289C503.882 187.897 503.196 187.602 502.607 187.504C502.018 187.406 501.43 187.603 500.841 187.799C499.664 188.289 498.683 189.171 497.604 189.955C495.446 191.524 493.092 193.092 490.541 194.17C489.266 194.758 487.893 195.151 486.52 195.445C485.833 195.543 485.343 195.739 484.852 195.935C484.362 196.131 483.871 196.425 483.675 196.719C483.479 197.013 483.381 197.111 483.479 197.405C483.479 197.699 483.675 198.091 484.067 198.483C484.754 199.268 485.735 199.954 486.716 200.444C488.776 201.522 491.326 201.914 493.484 201.326C493.779 201.228 494.073 201.13 494.269 201.032C494.563 200.934 494.759 200.836 495.054 200.64L496.819 199.758C497.997 199.17 499.174 198.581 500.351 197.993C502.803 196.817 505.256 195.641 508.1 195.151C510.847 194.66 513.79 195.053 516.144 196.229C513.495 195.641 510.847 195.739 508.395 196.621C505.942 197.405 503.686 198.778 501.43 200.052C500.253 200.738 499.174 201.424 497.997 202.11L496.231 203.091C495.937 203.287 495.642 203.385 495.25 203.581C494.858 203.777 494.563 203.875 494.171 203.973C491.13 204.855 487.991 204.365 485.343 203.091C483.969 202.404 482.694 201.522 481.713 200.248C481.222 199.562 480.732 198.778 480.634 197.699C480.536 197.209 480.634 196.621 480.83 196.033C481.026 195.543 481.321 195.053 481.713 194.66C482.4 193.974 483.184 193.582 483.969 193.386C484.656 193.092 485.441 192.994 486.127 192.896C487.402 192.7 488.58 192.406 489.855 192.014C492.307 191.229 494.563 190.053 496.918 188.779C498.095 188.191 499.272 187.504 500.743 187.112C501.43 186.916 502.215 186.916 502.901 187.112C503.49 187.308 503.98 187.799 504.373 188.289Z" fill="#3C3C3C"/>
<path d="M537.136 234.066C538.215 233.282 539.097 232.302 539.98 231.322C540.863 230.341 541.648 229.263 542.236 228.185C543.512 225.93 544.198 223.48 543.806 221.029C543.512 218.676 542.236 216.422 540.569 214.559L539.882 213.873C539.686 213.677 539.392 213.285 539.195 212.991C538.705 212.403 538.313 211.716 538.018 211.128C537.332 209.756 536.939 208.285 536.841 206.717C536.645 203.678 537.528 200.737 538.901 198.189C540.275 195.64 542.138 193.385 544.394 191.621C546.651 189.758 549.201 188.288 552.144 187.602C553.615 187.21 555.185 187.112 556.754 187.21C558.324 187.308 559.893 187.798 561.365 188.582C562.738 189.366 563.915 190.445 564.896 191.719C565.288 192.209 565.779 192.895 566.171 193.483C566.564 194.072 566.956 194.758 567.25 195.346C568.526 197.895 569.408 200.737 569.801 203.482C570.487 209.07 569.605 214.853 567.447 219.951C565.387 225.048 562.051 229.655 558.03 233.38C554.008 237.105 549.397 239.948 544.394 241.908C549.005 239.164 553.223 235.929 556.656 232.106C560.188 228.283 562.836 223.774 564.504 218.97C566.171 214.167 566.858 209.07 565.975 204.168C565.583 201.718 564.896 199.365 563.719 197.208C563.425 196.718 563.13 196.13 562.836 195.64C562.542 195.15 562.247 194.758 561.757 194.17C561.07 193.385 560.286 192.601 559.403 192.111C557.637 191.033 555.381 190.837 553.125 191.425C550.869 191.915 548.711 193.189 546.847 194.66C544.885 196.13 543.217 197.993 542.04 200.051C540.863 202.11 539.98 204.462 540.078 206.717C540.078 207.893 540.275 208.972 540.765 210.05C540.961 210.54 541.255 211.128 541.55 211.52C541.844 212.01 542.236 212.501 542.727 212.991C544.395 215.245 545.768 217.892 545.964 220.833C546.062 223.774 544.983 226.518 543.414 228.773C541.55 230.93 539.392 232.694 537.136 234.066Z" fill="#3C3C3C"/>
<path d="M99.7345 307.096C100.617 308.763 101.598 310.233 102.775 311.507C103.364 312.194 103.952 312.782 104.639 313.37C105.326 313.958 106.013 314.546 106.797 315.134C104.835 315.036 102.972 313.958 101.696 312.488C101.01 311.703 100.519 310.919 100.127 309.939C99.8326 309.057 99.6364 308.076 99.7345 307.096Z" fill="#3C3C3C"/>
<path d="M103.756 304.645C104.835 306.115 105.718 307.585 106.699 308.86C107.19 309.546 107.778 310.134 108.367 310.722C108.955 311.31 109.544 311.899 110.231 312.585C108.367 312.389 106.699 311.212 105.522 309.742C104.933 308.958 104.541 308.174 104.149 307.291C103.952 306.409 103.756 305.527 103.756 304.645Z" fill="#3C3C3C"/>
<path d="M110.328 301.802C110.917 303.763 111.898 305.527 113.173 307.095C113.761 307.88 114.448 308.566 115.233 309.154C116.017 309.742 116.802 310.33 117.685 310.722L118.47 311.114L117.881 311.801C117.195 312.683 116.41 313.467 115.527 314.251C114.742 315.036 113.859 315.722 112.976 316.408C112.094 317.094 111.113 317.682 110.034 318.172C109.053 318.663 107.974 319.055 106.797 319.153C107.778 318.663 108.759 318.172 109.641 317.486C110.524 316.898 111.407 316.212 112.192 315.428C112.977 314.741 113.761 313.957 114.546 313.173C115.331 312.389 116.017 311.605 116.704 310.82L116.9 311.899C115.036 310.918 113.369 309.35 112.192 307.586C111.603 306.703 111.113 305.723 110.818 304.743C110.524 303.959 110.328 302.88 110.328 301.802Z" fill="#3C3C3C"/>
<path d="M89.924 313.468C91.1012 313.37 92.2784 313.664 93.4555 314.056C94.5346 314.448 95.6136 315.135 96.5945 315.919C98.4583 317.487 99.8316 319.546 100.714 321.8L100.911 322.389L100.518 322.879C98.8507 324.839 97.085 326.604 95.025 328.172C94.0441 328.956 92.965 329.741 91.8859 330.427C90.7088 331.015 89.5318 331.603 88.0604 331.701C87.668 331.701 87.3736 331.701 86.9812 331.603C86.785 331.603 86.5888 331.505 86.4907 331.407C86.3927 331.309 86.1965 331.309 86.0003 331.211C85.4117 330.819 84.9212 330.329 84.5289 329.839C83.7441 328.76 83.2536 327.682 82.567 326.604C81.3898 324.447 79.8204 322.389 77.8585 321.31L76.5833 320.526L78.0547 319.84C80.3108 318.762 82.567 317.879 84.9213 316.997C87.2755 316.115 89.6298 315.331 92.0822 314.645L92.1803 314.841C90.0222 316.115 87.8642 317.291 85.608 318.37C83.3518 319.448 81.0957 320.526 78.7414 321.408L78.8395 319.938C79.9185 320.722 80.8013 321.8 81.488 322.977C82.1746 324.055 82.6652 325.231 83.1556 326.408C83.7442 327.486 84.2346 328.662 85.0193 329.545C85.8041 330.427 86.8831 331.015 87.8641 330.721C88.9431 330.525 89.924 329.839 90.905 329.152C91.8859 328.466 92.7688 327.682 93.7497 326.898C95.5154 325.231 97.2812 323.467 98.8507 321.702L98.6545 322.781C97.8697 320.722 96.8888 318.762 95.4174 317.193C94.7308 316.409 93.8478 315.723 92.8669 315.135C91.984 314.546 90.905 314.154 89.826 313.86L89.924 313.468Z" fill="#3C3C3C"/>
</svg>
