<svg width="186" height="103" viewBox="0 0 186 103" fill="none" xmlns="http://www.w3.org/2000/svg">
<path d="M32.008 56V47.5738H13.7511V13.3422H4.97381V56H32.008ZM88.2372 56.5852C90.6949 56.5852 92.9184 56.2926 95.0835 55.6489C97.2486 54.9467 99.0626 54.1275 100.525 53.1327C101.988 52.138 103.334 50.9677 104.505 49.6803C106.845 47.1056 108.015 44.7065 108.542 42.4829L100.116 39.5572C99.7648 40.903 99.0626 42.3659 97.7167 43.9458C97.0145 44.7065 96.2538 45.4087 95.4346 45.9939C93.7377 47.2227 91.163 48.1004 88.3542 48.1004C85.8966 48.1004 83.673 47.4567 81.6835 46.2279C77.7044 43.7703 75.4223 39.4986 75.4223 34.6419C75.4223 32.1842 76.0075 29.9606 77.1193 27.9126C78.1725 25.9231 79.7525 24.2846 81.742 23.1143C83.7315 21.8855 85.9551 21.3003 88.3542 21.3003C91.163 21.3003 93.7377 22.1781 95.4346 23.3484C98.0678 25.2209 99.5892 27.737 99.9403 29.3755L108.308 26.5082C107.664 24.0506 106.377 21.5929 104.095 19.1353C102.983 17.9064 101.696 16.7946 100.233 15.9169C97.3071 13.9859 93.094 12.6986 88.4713 12.6986C85.5455 12.6986 82.7367 13.2837 80.045 14.337C77.3533 15.4488 74.9542 16.9702 72.9647 18.9012C70.9751 20.8322 69.3367 23.1728 68.1079 25.8645C66.9376 28.6733 66.2939 31.5991 66.2939 34.7004C66.2939 37.9187 66.9376 40.903 68.1079 43.6532C69.3367 46.4035 70.9166 48.7441 72.9062 50.6166C76.9437 54.3616 82.4442 56.5852 88.2372 56.5852ZM163.496 56.6437C168.411 56.6437 172.566 55.0052 175.199 52.4891C177.715 49.9144 179.178 46.696 179.178 43.3607C179.178 40.2593 178.125 37.5676 176.077 35.2855C173.97 33.0034 170.986 31.5405 167.124 30.8384L161.155 29.7266C158.229 29.1414 156.767 27.4445 156.767 25.2794C156.767 24.0506 157.352 22.9388 158.522 22.0025C159.751 21.0663 161.214 20.5981 162.969 20.5981C167.241 20.5981 169.698 22.8802 170.459 26.3912L178.476 24.0506C178.066 21.1833 176.662 18.5501 174.204 16.268C171.747 14.1029 167.767 12.6986 163.086 12.6986C159.049 12.6986 155.187 14.1614 152.436 16.4435C149.745 18.7842 147.989 22.2366 147.989 25.9816C147.989 29.1414 148.984 31.8331 151.032 33.9982C153.08 36.1047 155.889 37.5676 159.341 38.2113L165.368 39.4401C168.353 39.9668 170.225 41.7807 170.225 43.8873C170.225 45.2332 169.64 46.4035 168.47 47.3397C167.358 48.276 165.778 48.6856 163.788 48.6856C161.389 48.6856 159.4 48.1004 157.703 46.8131C156.006 45.5257 155.011 43.7118 154.66 41.4882L146.409 43.4192C147.112 47.5738 148.926 50.7921 151.793 53.1327C154.66 55.4734 158.522 56.6437 163.496 56.6437Z" fill="#181717"/>
<g clip-path="url(#clip0)">
<path d="M4.78394 79.2979H5.50155V85.3349H8.67954V86.0057H4.78394V79.2979Z" fill="#181717"/>
<path d="M18.5721 79.2974V83.3737C18.5721 84.1993 18.3671 84.8701 17.9058 85.3345C17.4444 85.7988 16.8293 86.0568 16.0605 86.0568C15.2916 86.0568 14.6765 85.7988 14.2152 85.3345C13.7539 84.8701 13.5488 84.1993 13.5488 83.4253V79.2974H14.2664V83.3737C14.2664 84.0961 14.4715 84.6121 14.779 84.9217C15.1378 85.2313 15.5479 85.386 16.0605 85.386C16.6243 85.386 17.0856 85.2313 17.3932 84.8701C17.7007 84.5089 17.8545 84.0445 17.8545 83.4253V79.2974H18.5721Z" fill="#181717"/>
<path d="M24.877 86.0052V79.2974H27.2861C28.5163 79.2974 29.4389 79.9166 29.4389 81.0001C29.4389 81.1549 29.4389 81.3097 29.3364 81.5677C29.2851 81.6709 29.2339 81.8257 29.1826 81.9289C29.0288 82.1353 28.7726 82.3933 28.4138 82.5481C28.8751 82.6513 29.2339 82.9609 29.4389 83.2705C29.6439 83.5801 29.6952 83.8897 29.6952 84.1993C29.6952 84.8185 29.4389 85.3345 28.9776 85.5924C28.5163 85.902 27.9524 86.0052 27.3373 86.0052H24.877ZM25.5946 79.9682V82.2901H27.1836C27.6961 82.2901 28.1062 82.1869 28.3625 81.9289C28.6188 81.7225 28.7213 81.4129 28.7213 81.0517C28.7213 80.2261 28.0037 79.9166 27.2348 79.9166H25.5946V79.9682ZM25.5946 82.9093V85.386H27.3886C28.1062 85.386 29.0289 85.0765 29.0289 84.1477C29.0289 83.5801 28.67 83.2705 28.2087 83.1157C27.9012 83.0125 27.5936 82.9609 27.2348 82.9609H25.5946V82.9093Z" fill="#181717"/>
<path d="M39.6905 86.0052L37.7427 83.2705H36.41V86.0052H35.6924V79.2974H37.999C38.7679 79.2974 39.4342 79.5038 39.793 79.865C40.1518 80.2777 40.3056 80.7421 40.3056 81.2581C40.3056 82.3933 39.4855 83.0641 38.4603 83.1673L40.5106 86.0052H39.6905ZM36.3587 82.6513H37.8965C38.4603 82.6513 38.9216 82.4965 39.1779 82.2385C39.4855 81.9805 39.6392 81.6709 39.6392 81.3097C39.6392 80.6389 39.2292 80.0197 37.9477 80.0197H36.41V82.6513H36.3587Z" fill="#181717"/>
<path d="M46.354 79.2974H47.0716V86.0052H46.354V79.2974Z" fill="#181717"/>
<path d="M53.9917 85.128C53.6842 84.8184 53.4791 84.4572 53.2741 84.0444C53.1203 83.6316 53.0178 83.1673 53.0178 82.6513C53.0178 82.1353 53.1203 81.6709 53.2741 81.2581C53.4791 80.8453 53.6842 80.4841 53.9917 80.2261C54.6068 79.6069 55.4782 79.2457 56.3496 79.2457C57.0672 79.2457 57.6823 79.4521 58.1436 79.7617C58.3486 79.9165 58.5537 80.0713 58.7075 80.2777C59.0663 80.6905 59.22 81.0517 59.3225 81.4645L58.6562 81.7225C58.6049 81.5161 58.5024 81.2581 58.2461 80.8969C58.1436 80.7421 57.9898 80.5873 57.8361 80.4325C57.6823 80.2777 57.4773 80.1745 57.221 80.0713C56.9647 79.9681 56.6571 79.9165 56.3496 79.9165C55.632 79.9165 54.9656 80.2261 54.5043 80.6905C54.043 81.1549 53.7354 81.8773 53.7354 82.6513C53.7354 83.1673 53.8379 83.6316 54.0942 84.096C54.2993 84.5088 54.6068 84.87 55.0169 85.0764C55.4269 85.3344 55.837 85.4376 56.3496 85.4376C56.9647 85.4376 57.4773 85.2312 57.8361 84.9732C57.9898 84.87 58.1436 84.7152 58.2974 84.5088C58.3999 84.354 58.5024 84.1992 58.6049 84.0444C58.6562 83.9412 58.7075 83.7864 58.7587 83.6316L59.4251 83.8896C59.3225 84.2508 59.1688 84.612 58.81 85.0248C58.6562 85.2312 58.4512 85.386 58.2461 85.5924C57.7848 85.902 57.1185 86.16 56.4008 86.16C55.4269 86.1084 54.5556 85.7472 53.9917 85.128Z" fill="#181717"/>
<path d="M69.2151 84.3025H65.5758L64.8582 86.0052H64.1406L67.0111 79.2974H67.7799L70.6504 86.0052H69.9328L69.2151 84.3025ZM67.3699 80.0713L65.8321 83.6833H68.9076L67.3699 80.0713Z" fill="#181717"/>
<path d="M77.0064 86.0052H76.2888V79.9682H74.0847V79.2974H79.2105V79.9682H77.0064V86.0052Z" fill="#181717"/>
<path d="M84.8999 79.2974H85.6175V86.0052H84.8999V79.2974Z" fill="#181717"/>
<path d="M97.8169 84.4056C97.5094 84.9216 97.0993 85.3344 96.5868 85.644C96.0742 85.9536 95.5103 86.1084 94.844 86.1084C94.3826 86.1084 93.9213 86.0052 93.5113 85.8504C93.1012 85.6956 92.7424 85.4376 92.4348 85.128C92.1273 84.8184 91.9223 84.4572 91.7172 84.0444C91.5635 83.6316 91.4609 83.1673 91.4609 82.7029C91.4609 82.0837 91.6147 81.4645 91.9223 80.9485C92.2298 80.4325 92.5886 80.0197 93.1524 79.7101C93.665 79.4005 94.2289 79.2457 94.844 79.2457C95.3053 79.2457 95.7666 79.3489 96.1767 79.5037C96.5867 79.7101 96.9456 79.9165 97.2531 80.2261C97.5606 80.5357 97.7657 80.8969 97.9707 81.3097C98.1245 81.7225 98.227 82.1869 98.227 82.6513C98.227 83.2705 98.0732 83.8896 97.8169 84.4056ZM96.7918 80.7421C96.3305 80.2261 95.6641 79.9165 94.8952 79.9165C94.3826 79.9165 93.9726 80.0197 93.5625 80.2777C93.1525 80.5357 92.8449 80.8453 92.6399 81.2581C92.4348 81.6709 92.3323 82.1353 92.3323 82.6513C92.3323 83.3737 92.5886 84.096 93.0499 84.612C93.5113 85.128 94.1776 85.4376 94.9465 85.4376C95.4591 85.4376 95.8691 85.3344 96.2792 85.0764C96.6893 84.8184 96.9968 84.5088 97.2018 84.096C97.4069 83.6832 97.5094 83.2189 97.5094 82.7029C97.5094 81.9289 97.2531 81.2581 96.7918 80.7421Z" fill="#181717"/>
<path d="M109.606 79.2974V86.0052H108.837L104.839 80.3293V86.0052H104.122V79.2974H104.942L108.889 84.9217V79.2974H109.606Z" fill="#181717"/>
<path d="M123.19 85.4892C122.78 85.1281 122.524 84.6637 122.472 84.1993L123.139 83.9929C123.19 84.4057 123.395 84.7153 123.754 84.9733C124.061 85.2313 124.42 85.386 124.83 85.386C125.189 85.386 125.548 85.2829 125.855 85.0765C126.163 84.8701 126.317 84.5605 126.317 84.1477C126.317 83.6833 126.06 83.3737 125.753 83.1673C125.548 83.0641 125.343 82.9609 125.138 82.9609L124.215 82.8577C124.01 82.8061 123.856 82.7545 123.651 82.6513C123.446 82.5481 123.241 82.4449 123.088 82.2901C122.78 81.9805 122.626 81.6193 122.626 81.1549C122.626 80.7937 122.729 80.4325 122.934 80.1745C123.139 79.865 123.395 79.6586 123.703 79.5038C124.01 79.349 124.369 79.2974 124.728 79.2974C126.163 79.2974 126.778 80.1745 126.932 80.8969L126.317 81.1033C126.214 80.6389 125.753 79.9682 124.728 79.9682C124.01 79.9682 123.344 80.4325 123.344 81.1549C123.344 81.6709 123.651 82.0837 124.318 82.1869L125.138 82.3417C125.702 82.4449 126.163 82.6513 126.419 82.9093C126.624 83.1157 126.778 83.3221 126.881 83.5285C126.983 83.7349 127.034 83.9413 127.034 84.1477C127.034 85.3344 126.06 86.1084 124.83 86.1084C124.164 86.1084 123.6 85.8504 123.19 85.4892Z" fill="#181717"/>
<path d="M134.928 86.0052H134.21V79.9682H132.006V79.2974H137.132V79.9682H134.928V86.0052Z" fill="#181717"/>
<path d="M147.743 79.2974V83.3737C147.743 84.1993 147.537 84.8701 147.076 85.3345C146.615 85.7988 146 86.0568 145.231 86.0568C144.462 86.0568 143.847 85.7988 143.386 85.3345C142.924 84.8701 142.719 84.1993 142.719 83.4253V79.2974H143.437V83.3737C143.437 84.0961 143.642 84.6121 143.949 84.9217C144.308 85.2313 144.718 85.386 145.231 85.386C145.795 85.386 146.256 85.2313 146.564 84.8701C146.871 84.5089 147.025 84.0445 147.025 83.4253V79.2974H147.743Z" fill="#181717"/>
<path d="M154.765 82.3933H157.891V83.0125H154.765V86.0052H154.047V79.2974H158.199V79.9682H154.765V82.3933Z" fill="#181717"/>
<path d="M164.709 82.3933H167.836V83.0125H164.709V86.0052H163.991V79.2974H168.143V79.9682H164.709V82.3933Z" fill="#181717"/>
<path d="M185.314 83.0641C185.212 83.3221 185.058 83.6317 184.853 83.9413C184.648 84.2509 184.443 84.5605 184.187 84.8185L185.212 86.0052H184.392L183.725 85.2313C183.11 85.7988 182.444 86.0568 181.829 86.0568C180.804 86.1084 179.932 85.3861 179.932 84.4057C179.932 84.0445 180.086 83.7349 180.24 83.4769C180.342 83.3737 180.445 83.2189 180.599 83.1157C180.855 82.8577 181.111 82.7545 181.419 82.5481L180.958 81.9805C180.701 81.6709 180.496 81.2581 180.496 80.8453C180.496 79.9166 181.368 79.1942 182.239 79.2458C183.059 79.2458 183.93 79.9166 183.93 80.7937C183.93 81.2581 183.725 81.6193 183.469 81.8257C183.367 81.9289 183.162 82.0837 182.957 82.1869L182.341 82.5481L183.828 84.2509C184.187 83.8381 184.443 83.3737 184.648 82.9609H185.314V83.0641ZM183.367 84.8185L181.829 83.0125C181.726 83.1157 181.573 83.1673 181.521 83.2189C181.419 83.2705 181.316 83.3221 181.214 83.4253C181.111 83.5285 181.009 83.6317 180.958 83.6833C180.804 83.8381 180.701 84.0961 180.701 84.3541C180.701 84.6637 180.804 84.9217 181.06 85.1281C181.316 85.3345 181.624 85.4376 181.983 85.4376C182.393 85.4376 182.854 85.2313 183.367 84.8185ZM182.188 79.865C181.88 79.865 181.675 79.9682 181.47 80.1745C181.265 80.3809 181.163 80.6389 181.163 80.8969C181.163 81.1033 181.214 81.2581 181.368 81.4645C181.419 81.5677 181.47 81.6193 181.521 81.7225C181.573 81.7741 181.624 81.8773 181.726 81.9805C181.829 82.0837 181.88 82.1353 181.931 82.1869L181.983 82.2901L182.649 81.8257C183.059 81.5677 183.264 81.2581 183.264 80.8969C183.264 80.6389 183.162 80.3809 182.957 80.1745C182.752 79.9682 182.495 79.865 182.188 79.865Z" fill="#181717"/>
<path d="M5.91165 101.227C5.6041 100.917 5.39907 100.556 5.19403 100.143C5.04026 99.7305 4.93774 99.2661 4.93774 98.7501C4.93774 98.2341 5.04026 97.7697 5.19403 97.357C5.39907 96.9442 5.6041 96.5314 5.91165 96.2734C6.578 95.6026 7.39813 95.2414 8.32077 95.2414C9.03838 95.2414 9.65348 95.4478 10.1148 95.7574C10.3198 95.9122 10.5249 96.067 10.7299 96.2734C11.0887 96.6862 11.2425 97.0474 11.345 97.4602L10.6786 97.7181C10.6274 97.5118 10.5249 97.2538 10.2686 96.8926C10.1148 96.7378 10.0123 96.583 9.85851 96.4282C9.70474 96.2734 9.4997 96.1702 9.19216 96.067C8.93587 95.9638 8.62832 95.9122 8.32077 95.9122C7.60316 95.9122 6.93681 96.2218 6.47548 96.6862C6.01416 97.1506 5.70661 97.8729 5.70661 98.6985C5.70661 99.2145 5.80913 99.7305 6.06542 100.143C6.27045 100.556 6.578 100.917 7.03932 101.124C7.44938 101.382 7.91071 101.485 8.37203 101.485C8.98712 101.485 9.4997 101.278 9.85851 101.02C10.0123 100.866 10.1661 100.762 10.3198 100.556C10.4736 100.401 10.5249 100.247 10.6274 100.092C10.6786 99.9369 10.7299 99.8337 10.7812 99.6789L11.4475 99.9369C11.345 100.298 11.1912 100.659 10.8324 101.072C10.6786 101.278 10.4736 101.485 10.2686 101.64C9.80725 101.949 9.1409 102.207 8.42329 102.207C7.34687 102.156 6.52674 101.794 5.91165 101.227Z" fill="#181717"/>
<path d="M23.0828 100.453C22.7752 100.969 22.3652 101.382 21.8526 101.691C21.34 102.001 20.7762 102.156 20.1098 102.156C19.6485 102.156 19.1872 102.053 18.7771 101.898C18.3671 101.743 18.0083 101.485 17.7007 101.175C17.3932 100.866 17.1881 100.505 16.9831 100.092C16.8293 99.6789 16.7268 99.2146 16.7268 98.7502C16.7268 98.131 16.8806 97.5118 17.1881 96.9958C17.4957 96.4798 17.8545 96.0154 18.4183 95.7574C18.9309 95.4478 19.4947 95.293 20.1611 95.293C20.6224 95.293 21.0837 95.3962 21.4938 95.551C21.9039 95.7574 22.2627 95.9638 22.5702 96.2734C22.8778 96.583 23.0828 96.9442 23.2878 97.357C23.4416 97.7698 23.5441 98.2342 23.5441 98.6986C23.4929 99.3178 23.3391 99.9369 23.0828 100.453ZM22.0576 96.7378C21.5963 96.2218 20.93 95.9122 20.1098 95.9122C19.5973 95.9122 19.1359 96.067 18.7771 96.2734C18.3671 96.5314 18.0595 96.8926 17.8545 97.3054C17.6495 97.7182 17.5469 98.1826 17.5469 98.6986C17.5469 99.4726 17.8032 100.143 18.2645 100.659C18.7259 101.175 19.3922 101.485 20.1611 101.485C20.6737 101.485 21.135 101.33 21.4938 101.124C21.9039 100.866 22.2114 100.556 22.4677 100.143C22.6727 99.7305 22.7752 99.2662 22.7752 98.7502C22.7752 97.9762 22.519 97.2538 22.0576 96.7378Z" fill="#181717"/>
<path d="M36.5126 95.3446V102.104H35.795V96.2734L33.2833 102.052H32.6682L30.2078 96.325V102.052H29.4902V95.3446H30.5154L33.027 101.124L35.5387 95.3446H36.5126Z" fill="#181717"/>
<path d="M43.7401 99.4725V102.104H43.0225V95.3446H45.2778C46.9181 95.3446 47.6357 96.325 47.6357 97.357C47.6357 97.9246 47.4307 98.4405 47.0206 98.8533C46.6105 99.2145 45.9442 99.4725 45.1753 99.4725H43.7401ZM43.7401 96.0154V98.8017H45.1753C45.7904 98.8017 46.2517 98.6469 46.508 98.3373C46.7643 98.0794 46.9181 97.7182 46.9181 97.357C46.9181 96.6862 46.5593 95.9638 45.2266 95.9638H43.7401V96.0154Z" fill="#181717"/>
<path d="M53.4788 95.3446H54.1964V101.433H57.3744V102.104H53.4788V95.3446Z" fill="#181717"/>
<path d="M63.0645 95.3446H67.2676V96.0154H63.7821V98.3373H66.9601V99.0081H63.7821V101.433H67.3189V102.104H63.0645V95.3446Z" fill="#181717"/>
<path d="M75.5201 99.1114L73.3672 102.053H72.5471L75.11 98.5954L72.6496 95.293H73.4698L75.5201 98.0794L77.5704 95.293H78.3905L75.9301 98.5954L78.493 102.053H77.6729L75.5201 99.1114Z" fill="#181717"/>
<path d="M90.9998 101.588C90.5898 101.227 90.3335 100.763 90.2822 100.247L90.9486 100.04C90.9998 100.453 91.2049 100.763 91.5637 101.072C91.8712 101.33 92.23 101.485 92.6914 101.485C93.1014 101.485 93.4602 101.382 93.7165 101.175C94.0241 100.969 94.1778 100.659 94.1778 100.247C94.1778 99.7821 93.9215 99.4726 93.614 99.2662C93.409 99.1114 93.2039 99.0598 92.9989 99.0598L92.1275 98.905C91.9225 98.8534 91.7687 98.8018 91.5124 98.6986C91.3074 98.5954 91.1024 98.4922 90.9486 98.3374C90.641 98.0278 90.4873 97.6666 90.4873 97.1506C90.4873 96.7894 90.5898 96.4282 90.7948 96.1702C90.9998 95.8606 91.2561 95.6542 91.5637 95.4994C91.8712 95.3446 92.23 95.293 92.5888 95.293C94.0241 95.293 94.6904 96.1702 94.7929 96.8926L94.1266 97.099C94.0241 96.6346 93.5627 95.9122 92.5376 95.9122C91.82 95.9122 91.1023 96.4282 91.1023 97.099C91.1023 97.615 91.4099 98.0278 92.0763 98.1826L92.9476 98.3374C93.5115 98.4406 93.9728 98.647 94.2804 98.9566C94.4854 99.163 94.6392 99.3694 94.7417 99.5758C94.8442 99.7821 94.8954 99.9885 94.8954 100.195C94.8954 101.382 93.9215 102.207 92.6401 102.156C92.025 102.156 91.4099 101.898 90.9998 101.588Z" fill="#181717"/>
<path d="M106.736 100.453C106.428 100.969 106.018 101.382 105.506 101.691C104.993 102.001 104.429 102.156 103.763 102.156C103.302 102.156 102.84 102.053 102.43 101.898C102.02 101.743 101.661 101.485 101.354 101.175C101.046 100.866 100.841 100.505 100.636 100.092C100.482 99.6789 100.38 99.2146 100.38 98.7502C100.38 98.131 100.534 97.5118 100.841 96.9958C101.149 96.4798 101.508 96.0154 102.071 95.7574C102.584 95.4478 103.148 95.293 103.814 95.293C104.275 95.293 104.737 95.3962 105.147 95.551C105.557 95.7574 105.916 95.9638 106.223 96.2734C106.531 96.583 106.736 96.9442 106.941 97.357C107.095 97.7698 107.197 98.2342 107.197 98.6986C107.197 99.3178 107.043 99.9369 106.736 100.453ZM105.711 96.7378C105.249 96.2218 104.583 95.9122 103.763 95.9122C103.25 95.9122 102.789 96.067 102.43 96.2734C102.02 96.5314 101.713 96.8926 101.508 97.3054C101.303 97.7182 101.2 98.1826 101.2 98.6986C101.2 99.4726 101.456 100.143 101.918 100.659C102.379 101.175 103.045 101.485 103.814 101.485C104.327 101.485 104.788 101.33 105.147 101.124C105.557 100.866 105.864 100.556 106.121 100.143C106.326 99.7305 106.428 99.2662 106.428 98.7502C106.428 97.9762 106.172 97.2538 105.711 96.7378Z" fill="#181717"/>
<path d="M113.195 95.3446H113.912V101.433H117.09V102.104H113.195V95.3446Z" fill="#181717"/>
<path d="M127.085 95.3446V99.4726C127.085 100.35 126.88 100.969 126.419 101.485C125.958 101.949 125.343 102.207 124.522 102.207C123.754 102.207 123.087 101.949 122.677 101.485C122.216 101.021 122.011 100.35 122.011 99.5241V95.3446H122.728V99.4726C122.728 100.195 122.933 100.711 123.241 101.021C123.6 101.33 124.01 101.485 124.574 101.485C125.137 101.485 125.599 101.33 125.906 100.969C126.214 100.608 126.368 100.143 126.368 99.4726V95.293H127.085V95.3446Z" fill="#181717"/>
<path d="M135.697 102.104H134.979V96.0154H132.724V95.3446H137.901V96.0154H135.646V102.104H135.697Z" fill="#181717"/>
<path d="M143.642 95.3446H144.359V102.104H143.642V95.3446Z" fill="#181717"/>
<path d="M156.712 100.453C156.405 100.969 155.995 101.382 155.482 101.691C154.97 102.001 154.406 102.156 153.739 102.156C153.278 102.156 152.817 102.053 152.407 101.898C151.997 101.743 151.638 101.485 151.33 101.175C151.023 100.866 150.818 100.505 150.613 100.092C150.459 99.6789 150.356 99.2146 150.356 98.7502C150.356 98.131 150.51 97.5118 150.818 96.9958C151.125 96.4798 151.484 96.0154 152.048 95.7574C152.561 95.4478 153.124 95.293 153.791 95.293C154.252 95.293 154.713 95.3962 155.123 95.551C155.533 95.7574 155.892 95.9638 156.2 96.2734C156.507 96.583 156.712 96.9442 156.917 97.357C157.071 97.7698 157.174 98.2342 157.174 98.6986C157.122 99.3178 156.969 99.9369 156.712 100.453ZM155.636 96.7378C155.175 96.2218 154.508 95.9122 153.688 95.9122C153.176 95.9122 152.714 96.067 152.356 96.2734C151.945 96.5314 151.638 96.8926 151.433 97.3054C151.228 97.7182 151.125 98.1826 151.125 98.6986C151.125 99.4726 151.382 100.143 151.843 100.659C152.304 101.175 152.971 101.485 153.739 101.485C154.252 101.485 154.713 101.33 155.072 101.124C155.482 100.866 155.79 100.556 156.046 100.143C156.251 99.7305 156.354 99.2662 156.354 98.7502C156.405 97.9762 156.097 97.2538 155.636 96.7378Z" fill="#181717"/>
<path d="M168.604 95.3446V102.104H167.835L163.837 96.3766V102.104H163.12V95.3446H163.94L167.887 101.02V95.3446H168.604Z" fill="#181717"/>
<path d="M175.319 101.588C174.909 101.227 174.653 100.763 174.601 100.247L175.268 100.04C175.319 100.453 175.524 100.763 175.883 101.072C176.19 101.33 176.549 101.485 177.01 101.485C177.421 101.485 177.779 101.382 178.036 101.175C178.343 100.969 178.497 100.659 178.497 100.247C178.497 99.7821 178.241 99.4726 177.933 99.2662C177.728 99.1114 177.523 99.0598 177.318 99.0598L176.447 98.905C176.242 98.8534 176.088 98.8018 175.832 98.6986C175.626 98.5954 175.421 98.4922 175.268 98.3374C174.96 98.0278 174.806 97.6666 174.806 97.1506C174.806 96.7894 174.909 96.4282 175.114 96.1702C175.319 95.8606 175.575 95.6542 175.883 95.4994C176.19 95.3446 176.549 95.293 176.908 95.293C178.343 95.293 179.01 96.1702 179.112 96.8926L178.446 97.099C178.343 96.6346 177.882 95.9122 176.857 95.9122C176.139 95.9122 175.421 96.4282 175.421 97.099C175.421 97.615 175.729 98.0278 176.395 98.1826L177.267 98.3374C177.831 98.4406 178.292 98.647 178.599 98.9566C178.804 99.163 178.958 99.3694 179.061 99.5758C179.163 99.7821 179.215 99.9885 179.215 100.195C179.215 101.382 178.241 102.207 176.959 102.156C176.293 102.156 175.729 101.898 175.319 101.588Z" fill="#181717"/>
</g>
<defs>
<clipPath id="clip0">
<rect width="180.531" height="22.91" fill="white" transform="translate(4.78394 79.2457)"/>
</clipPath>
</defs>
</svg>
