<svg width="185" height="102" viewBox="0 0 185 102" fill="none" xmlns="http://www.w3.org/2000/svg">
<path d="M32.008 44V35.5738H13.7511V1.34223H4.97381V44H32.008ZM88.2372 44.5852C90.6949 44.5852 92.9184 44.2926 95.0835 43.6489C97.2486 42.9467 99.0626 42.1275 100.525 41.1327C101.988 40.138 103.334 38.9677 104.505 37.6803C106.845 35.1056 108.015 32.7065 108.542 30.4829L100.116 27.5572C99.7648 28.903 99.0626 30.3659 97.7167 31.9458C97.0145 32.7065 96.2538 33.4087 95.4346 33.9939C93.7377 35.2227 91.163 36.1004 88.3542 36.1004C85.8966 36.1004 83.673 35.4567 81.6835 34.2279C77.7044 31.7703 75.4223 27.4986 75.4223 22.6419C75.4223 20.1842 76.0075 17.9606 77.1193 15.9126C78.1725 13.9231 79.7525 12.2846 81.742 11.1143C83.7315 9.88549 85.9551 9.30033 88.3542 9.30033C91.163 9.30033 93.7377 10.1781 95.4346 11.3484C98.0678 13.2209 99.5892 15.737 99.9403 17.3755L108.308 14.5082C107.664 12.0506 106.377 9.59291 104.095 7.13526C102.983 5.90643 101.696 4.79464 100.233 3.91691C97.3071 1.9859 93.094 0.698558 88.4713 0.698558C85.5455 0.698558 82.7367 1.28371 80.045 2.33699C77.3533 3.44878 74.9542 4.97018 72.9647 6.9012C70.9751 8.83221 69.3367 11.1728 68.1079 13.8645C66.9376 16.6733 66.2939 19.5991 66.2939 22.7004C66.2939 25.9187 66.9376 28.903 68.1079 31.6532C69.3367 34.4035 70.9166 36.7441 72.9062 38.6166C76.9437 42.3616 82.4442 44.5852 88.2372 44.5852ZM163.496 44.6437C168.411 44.6437 172.566 43.0052 175.199 40.4891C177.715 37.9144 179.178 34.696 179.178 31.3607C179.178 28.2593 178.125 25.5676 176.077 23.2855C173.97 21.0034 170.986 19.5405 167.124 18.8384L161.155 17.7266C158.229 17.1414 156.767 15.4445 156.767 13.2794C156.767 12.0506 157.352 10.9388 158.522 10.0025C159.751 9.06627 161.214 8.59814 162.969 8.59814C167.241 8.59814 169.698 10.8802 170.459 14.3912L178.476 12.0506C178.066 9.1833 176.662 6.5501 174.204 4.268C171.747 2.10293 167.767 0.698558 163.086 0.698558C159.049 0.698558 155.187 2.16144 152.436 4.44354C149.745 6.78416 147.989 10.2366 147.989 13.9816C147.989 17.1414 148.984 19.8331 151.032 21.9982C153.08 24.1047 155.889 25.5676 159.341 26.2113L165.368 27.4401C168.353 27.9668 170.225 29.7807 170.225 31.8873C170.225 33.2332 169.64 34.4035 168.47 35.3397C167.358 36.276 165.778 36.6856 163.788 36.6856C161.389 36.6856 159.4 36.1004 157.703 34.8131C156.006 33.5257 155.011 31.7118 154.66 29.4882L146.409 31.4192C147.112 35.5738 148.926 38.7921 151.793 41.1327C154.66 43.4734 158.522 44.6437 163.496 44.6437Z" fill="white"/>
<g clip-path="url(#clip0_2_35126)">
<path d="M4.00012 79.0521H4.71773V85.0892H7.89573V85.76H4.00012V79.0521Z" fill="#181717"/>
<path d="M17.7884 79.0515V83.1278C17.7884 83.9534 17.5833 84.6242 17.122 85.0886C16.6607 85.553 16.0456 85.811 15.2767 85.811C14.5078 85.811 13.8928 85.553 13.4314 85.0886C12.9701 84.6242 12.7651 83.9534 12.7651 83.1794V79.0515H13.4827V83.1278C13.4827 83.8502 13.6877 84.3662 13.9953 84.6758C14.3541 84.9854 14.7641 85.1402 15.2767 85.1402C15.8406 85.1402 16.3019 84.9854 16.6094 84.6242C16.917 84.263 17.0707 83.7986 17.0707 83.1794V79.0515H17.7884V79.0515Z" fill="#181717"/>
<path d="M24.0931 85.7594V79.0515H26.5023C27.7325 79.0515 28.6551 79.6707 28.6551 80.7543C28.6551 80.9091 28.6551 81.0639 28.5526 81.3219C28.5013 81.4251 28.4501 81.5799 28.3988 81.6831C28.245 81.8895 27.9887 82.1475 27.6299 82.3023C28.0913 82.4055 28.4501 82.715 28.6551 83.0246C28.8601 83.3342 28.9114 83.6438 28.9114 83.9534C28.9114 84.5726 28.6551 85.0886 28.1938 85.3466C27.7325 85.6562 27.1686 85.7594 26.5535 85.7594H24.0931V85.7594ZM24.8108 79.7223V82.0443H26.3997C26.9123 82.0443 27.3224 81.9411 27.5787 81.6831C27.835 81.4767 27.9375 81.1671 27.9375 80.8059C27.9375 79.9803 27.2199 79.6707 26.451 79.6707H24.8108V79.7223ZM24.8108 82.6634V85.1402H26.6048C27.3224 85.1402 28.245 84.8306 28.245 83.9018C28.245 83.3342 27.8862 83.0246 27.4249 82.8698C27.1174 82.7666 26.8098 82.715 26.451 82.715H24.8108V82.6634Z" fill="#181717"/>
<path d="M38.9067 85.7594L36.9589 83.0246H35.6262V85.7594H34.9086V79.0515H37.2152C37.9841 79.0515 38.6504 79.2579 39.0092 79.6191C39.368 80.0319 39.5218 80.4963 39.5218 81.0123C39.5218 82.1475 38.7017 82.8182 37.6765 82.9214L39.7268 85.7594H38.9067ZM35.5749 82.4055H37.1127C37.6765 82.4055 38.1378 82.2507 38.3941 81.9927C38.7017 81.7347 38.8554 81.4251 38.8554 81.0639C38.8554 80.3931 38.4454 79.7739 37.1639 79.7739H35.6262V82.4055H35.5749Z" fill="#181717"/>
<path d="M45.5703 79.0515H46.2879V85.7594H45.5703V79.0515Z" fill="#181717"/>
<path d="M53.2078 84.8823C52.9002 84.5727 52.6952 84.2115 52.4902 83.7987C52.3364 83.3859 52.2339 82.9215 52.2339 82.4055C52.2339 81.8895 52.3364 81.4252 52.4902 81.0124C52.6952 80.5996 52.9002 80.2384 53.2078 79.9804C53.8229 79.3612 54.6943 79 55.5657 79C56.2833 79 56.8984 79.2064 57.3597 79.516C57.5647 79.6708 57.7697 79.8256 57.9235 80.032C58.2823 80.4448 58.4361 80.806 58.5386 81.2188L57.8723 81.4768C57.821 81.2704 57.7185 81.0124 57.4622 80.6512C57.3597 80.4964 57.2059 80.3416 57.0521 80.1868C56.8984 80.032 56.6933 79.9288 56.437 79.8256C56.1807 79.7224 55.8732 79.6708 55.5657 79.6708C54.848 79.6708 54.1817 79.9804 53.7204 80.4448C53.259 80.9092 52.9515 81.6316 52.9515 82.4055C52.9515 82.9215 53.054 83.3859 53.3103 83.8503C53.5153 84.2631 53.8229 84.6243 54.2329 84.8307C54.643 85.0887 55.0531 85.1919 55.5657 85.1919C56.1807 85.1919 56.6933 84.9855 57.0521 84.7275C57.2059 84.6243 57.3597 84.4695 57.5135 84.2631C57.616 84.1083 57.7185 83.9535 57.821 83.7987C57.8723 83.6955 57.9235 83.5407 57.9748 83.3859L58.6411 83.6439C58.5386 84.0051 58.3848 84.3663 58.026 84.7791C57.8723 84.9855 57.6672 85.1403 57.4622 85.3467C57.0009 85.6563 56.3345 85.9143 55.6169 85.9143C54.643 85.8627 53.7716 85.5015 53.2078 84.8823Z" fill="#181717"/>
<path d="M68.4313 84.0566H64.792L64.0744 85.7594H63.3568L66.2272 79.0515H66.9961L69.8665 85.7594H69.1489L68.4313 84.0566ZM66.586 79.8255L65.0483 83.4374H68.1237L66.586 79.8255Z" fill="#181717"/>
<path d="M76.2225 85.7594H75.5049V79.7223H73.3008V79.0515H78.4266V79.7223H76.2225V85.7594V85.7594Z" fill="#181717"/>
<path d="M84.1162 79.0515H84.8338V85.7594H84.1162V79.0515Z" fill="#181717"/>
<path d="M97.0333 84.1599C96.7257 84.6759 96.3156 85.0887 95.8031 85.3983C95.2905 85.7079 94.7266 85.8627 94.0603 85.8627C93.599 85.8627 93.1376 85.7595 92.7276 85.6047C92.3175 85.4499 91.9587 85.1919 91.6511 84.8823C91.3436 84.5727 91.1386 84.2115 90.9335 83.7987C90.7798 83.3859 90.6772 82.9215 90.6772 82.4571C90.6772 81.8379 90.831 81.2188 91.1386 80.7028C91.4461 80.1868 91.8049 79.774 92.3688 79.4644C92.8813 79.1548 93.4452 79 94.0603 79C94.5216 79 94.9829 79.1032 95.393 79.258C95.8031 79.4644 96.1619 79.6708 96.4694 79.9804C96.777 80.29 96.982 80.6512 97.187 81.064C97.3408 81.4768 97.4433 81.9411 97.4433 82.4055C97.4433 83.0247 97.2895 83.6439 97.0333 84.1599ZM96.0081 80.4964C95.5468 79.9804 94.8804 79.6708 94.1115 79.6708C93.599 79.6708 93.1889 79.774 92.7788 80.032C92.3688 80.29 92.0612 80.5996 91.8562 81.0124C91.6511 81.4252 91.5486 81.8895 91.5486 82.4055C91.5486 83.1279 91.8049 83.8503 92.2662 84.3663C92.7276 84.8823 93.3939 85.1919 94.1628 85.1919C94.6754 85.1919 95.0854 85.0887 95.4955 84.8307C95.9056 84.5727 96.2131 84.2631 96.4182 83.8503C96.6232 83.4375 96.7257 82.9731 96.7257 82.4571C96.7257 81.6831 96.4694 81.0124 96.0081 80.4964Z" fill="#181717"/>
<path d="M108.823 79.0515V85.7594H108.054L104.056 80.0835V85.7594H103.338V79.0515H104.158L108.105 84.6758V79.0515H108.823Z" fill="#181717"/>
<path d="M122.406 85.2434C121.996 84.8822 121.74 84.4178 121.689 83.9534L122.355 83.747C122.406 84.1598 122.611 84.4694 122.97 84.7274C123.278 84.9854 123.636 85.1402 124.046 85.1402C124.405 85.1402 124.764 85.037 125.072 84.8306C125.379 84.6242 125.533 84.3146 125.533 83.9018C125.533 83.4374 125.277 83.1278 124.969 82.9214C124.764 82.8182 124.559 82.715 124.354 82.715L123.431 82.6118C123.226 82.5602 123.073 82.5086 122.867 82.4055C122.662 82.3023 122.457 82.1991 122.304 82.0443C121.996 81.7347 121.842 81.3735 121.842 80.9091C121.842 80.5479 121.945 80.1867 122.15 79.9287C122.355 79.6191 122.611 79.4127 122.919 79.2579C123.226 79.1031 123.585 79.0515 123.944 79.0515C125.379 79.0515 125.994 79.9287 126.148 80.6511L125.533 80.8575C125.43 80.3931 124.969 79.7223 123.944 79.7223C123.226 79.7223 122.56 80.1867 122.56 80.9091C122.56 81.4251 122.867 81.8379 123.534 81.9411L124.354 82.0959C124.918 82.1991 125.379 82.4055 125.635 82.6634C125.84 82.8698 125.994 83.0762 126.097 83.2826C126.199 83.489 126.251 83.6954 126.251 83.9018C126.251 85.0886 125.277 85.8626 124.046 85.8626C123.38 85.8626 122.816 85.6046 122.406 85.2434Z" fill="#181717"/>
<path d="M134.144 85.7594H133.426V79.7223H131.222V79.0515H136.348V79.7223H134.144V85.7594V85.7594Z" fill="#181717"/>
<path d="M146.959 79.0515V83.1278C146.959 83.9534 146.754 84.6242 146.292 85.0886C145.831 85.553 145.216 85.811 144.447 85.811C143.678 85.811 143.063 85.553 142.602 85.0886C142.141 84.6242 141.935 83.9534 141.935 83.1794V79.0515H142.653V83.1278C142.653 83.8502 142.858 84.3662 143.166 84.6758C143.524 84.9854 143.935 85.1402 144.447 85.1402C145.011 85.1402 145.472 84.9854 145.78 84.6242C146.087 84.263 146.241 83.7986 146.241 83.1794V79.0515H146.959V79.0515Z" fill="#181717"/>
<path d="M153.981 82.1475H157.108V82.7666H153.981V85.7594H153.263V79.0515H157.415V79.7223H153.981V82.1475V82.1475Z" fill="#181717"/>
<path d="M163.925 82.1475H167.052V82.7666H163.925V85.7594H163.207V79.0515H167.359V79.7223H163.925V82.1475Z" fill="#181717"/>
<path d="M184.531 82.8182C184.428 83.0762 184.274 83.3858 184.069 83.6954C183.864 84.005 183.659 84.3146 183.403 84.5726L184.428 85.7594H183.608L182.942 84.9854C182.327 85.553 181.66 85.811 181.045 85.811C180.02 85.8626 179.149 85.1402 179.149 84.1598C179.149 83.7986 179.302 83.489 179.456 83.231C179.559 83.1278 179.661 82.973 179.815 82.8698C180.071 82.6118 180.328 82.5087 180.635 82.3023L180.174 81.7347C179.918 81.4251 179.713 81.0123 179.713 80.5995C179.713 79.6707 180.584 78.9483 181.455 78.9999C182.275 78.9999 183.147 79.6707 183.147 80.5479C183.147 81.0123 182.942 81.3735 182.685 81.5799C182.583 81.6831 182.378 81.8379 182.173 81.9411L181.558 82.3023L183.044 84.005C183.403 83.5922 183.659 83.1278 183.864 82.715H184.531V82.8182ZM182.583 84.5726L181.045 82.7666C180.943 82.8698 180.789 82.9214 180.738 82.973C180.635 83.0246 180.533 83.0762 180.43 83.1794C180.328 83.2826 180.225 83.3858 180.174 83.4374C180.02 83.5922 179.918 83.8502 179.918 84.1082C179.918 84.4178 180.02 84.6758 180.276 84.8822C180.533 85.0886 180.84 85.1918 181.199 85.1918C181.609 85.1918 182.07 84.9854 182.583 84.5726ZM181.404 79.6191C181.096 79.6191 180.891 79.7223 180.686 79.9287C180.481 80.1351 180.379 80.3931 180.379 80.6511C180.379 80.8575 180.43 81.0123 180.584 81.2187C180.635 81.3219 180.686 81.3735 180.738 81.4767C180.789 81.5283 180.84 81.6315 180.943 81.7347C181.045 81.8379 181.096 81.8895 181.148 81.9411L181.199 82.0443L181.865 81.5799C182.275 81.3219 182.48 81.0123 182.48 80.6511C182.48 80.3931 182.378 80.1351 182.173 79.9287C181.968 79.7223 181.712 79.6191 181.404 79.6191Z" fill="#181717"/>
<path d="M5.12759 100.981C4.82004 100.672 4.61501 100.31 4.40998 99.8976C4.2562 99.4848 4.15369 99.0205 4.15369 98.5045C4.15369 97.9885 4.2562 97.5241 4.40998 97.1113C4.61501 96.6985 4.82004 96.2857 5.12759 96.0277C5.79394 95.3569 6.61407 94.9957 7.53671 94.9957C8.25432 94.9957 8.86942 95.2021 9.33074 95.5117C9.53577 95.6665 9.74081 95.8213 9.94584 96.0277C10.3046 96.4405 10.4584 96.8017 10.5609 97.2145L9.89458 97.4725C9.84332 97.2661 9.74081 97.0081 9.48452 96.6469C9.33074 96.4921 9.22823 96.3373 9.07445 96.1825C8.92068 96.0277 8.71565 95.9245 8.4081 95.8213C8.15181 95.7181 7.84426 95.6665 7.53671 95.6665C6.8191 95.6665 6.15275 95.9761 5.69143 96.4405C5.2301 96.9049 4.92256 97.6273 4.92256 98.4529C4.92256 98.9689 5.02507 99.4848 5.28136 99.8976C5.48639 100.31 5.79394 100.672 6.25526 100.878C6.66533 101.136 7.12665 101.239 7.58797 101.239C8.20307 101.239 8.71565 101.033 9.07445 100.775C9.22823 100.62 9.382 100.517 9.53577 100.31C9.68955 100.156 9.74081 100.001 9.84332 99.846C9.89458 99.6912 9.94584 99.588 9.9971 99.4332L10.6634 99.6912C10.5609 100.052 10.4072 100.414 10.0484 100.826C9.89458 101.033 9.68955 101.239 9.48452 101.394C9.02319 101.704 8.35684 101.962 7.63923 101.962C6.56281 101.91 5.74268 101.549 5.12759 100.981Z" fill="#181717"/>
<path d="M22.2988 100.207C21.9913 100.723 21.5812 101.136 21.0686 101.446C20.556 101.755 19.9922 101.91 19.3258 101.91C18.8645 101.91 18.4032 101.807 17.9931 101.652C17.5831 101.497 17.2243 101.239 16.9167 100.93C16.6092 100.62 16.4041 100.259 16.1991 99.8461C16.0453 99.4333 15.9428 98.9689 15.9428 98.5045C15.9428 97.8853 16.0966 97.2661 16.4041 96.7501C16.7117 96.2341 17.0705 95.7697 17.6343 95.5118C18.1469 95.2022 18.7107 95.0474 19.3771 95.0474C19.8384 95.0474 20.2997 95.1506 20.7098 95.3054C21.1199 95.5118 21.4787 95.7182 21.7862 96.0277C22.0938 96.3373 22.2988 96.6985 22.5038 97.1113C22.6576 97.5241 22.7601 97.9885 22.7601 98.4529C22.7089 99.0721 22.5551 99.6913 22.2988 100.207ZM21.2736 96.4921C20.8123 95.9761 20.146 95.6666 19.3258 95.6666C18.8133 95.6666 18.3519 95.8213 17.9931 96.0277C17.5831 96.2857 17.2755 96.6469 17.0705 97.0597C16.8655 97.4725 16.7629 97.9369 16.7629 98.4529C16.7629 99.2269 17.0192 99.8977 17.4805 100.414C17.9419 100.93 18.6082 101.239 19.3771 101.239C19.8897 101.239 20.351 101.084 20.7098 100.878C21.1199 100.62 21.4274 100.31 21.6837 99.8977C21.8887 99.4849 21.9912 99.0205 21.9912 98.5045C21.9912 97.7305 21.735 97.0081 21.2736 96.4921Z" fill="#181717"/>
<path d="M35.7284 95.0989V101.858H35.0108V96.0277L32.4991 101.807H31.884L29.4237 96.0793V101.807H28.7061V95.0989H29.7312L32.2429 100.878L34.7545 95.0989H35.7284Z" fill="#181717"/>
<path d="M42.956 99.2268V101.858H42.2383V95.0989H44.4937C46.134 95.0989 46.8516 96.0793 46.8516 97.1112C46.8516 97.6788 46.6465 98.1948 46.2365 98.6076C45.8264 98.9688 45.1601 99.2268 44.3912 99.2268H42.956ZM42.956 95.7697V98.556H44.3912C45.0063 98.556 45.4676 98.4012 45.7239 98.0916C45.9802 97.8336 46.134 97.4724 46.134 97.1112C46.134 96.4405 45.7751 95.7181 44.4424 95.7181H42.956V95.7697Z" fill="#181717"/>
<path d="M52.6948 95.0989H53.4124V101.188H56.5904V101.858H52.6948V95.0989Z" fill="#181717"/>
<path d="M62.2803 95.0989H66.4834V95.7697H62.9979V98.0916H66.1759V98.7624H62.9979V101.188H66.5347V101.858H62.2803V95.0989V95.0989Z" fill="#181717"/>
<path d="M74.7359 98.8657L72.5831 101.807H71.7629L74.3258 98.3497L71.8655 95.0474H72.6856L74.7359 97.8337L76.7862 95.0474H77.6063L75.146 98.3497L77.7089 101.807H76.8887L74.7359 98.8657Z" fill="#181717"/>
<path d="M90.2157 101.342C89.8057 100.981 89.5494 100.517 89.4981 100.001L90.1645 99.7945C90.2157 100.207 90.4208 100.517 90.7796 100.826C91.0871 101.084 91.4459 101.239 91.9072 101.239C92.3173 101.239 92.6761 101.136 92.9324 100.93C93.2399 100.723 93.3937 100.414 93.3937 100.001C93.3937 99.5365 93.1374 99.2269 92.8299 99.0205C92.6248 98.8657 92.4198 98.8141 92.2148 98.8141L91.3434 98.6593C91.1384 98.6077 90.9846 98.5561 90.7283 98.4529C90.5233 98.3497 90.3182 98.2465 90.1645 98.0917C89.8569 97.7821 89.7031 97.4209 89.7031 96.9049C89.7031 96.5437 89.8057 96.1825 90.0107 95.9245C90.2157 95.615 90.472 95.4086 90.7796 95.2538C91.0871 95.099 91.4459 95.0474 91.8047 95.0474C93.2399 95.0474 93.9063 95.9245 94.0088 96.6469L93.3425 96.8533C93.2399 96.3889 92.7786 95.6666 91.7535 95.6666C91.0358 95.6666 90.3182 96.1825 90.3182 96.8533C90.3182 97.3693 90.6258 97.7821 91.2921 97.9369L92.1635 98.0917C92.7274 98.1949 93.1887 98.4013 93.4962 98.7109C93.7013 98.9173 93.855 99.1237 93.9576 99.3301C94.0601 99.5365 94.1113 99.7429 94.1113 99.9493C94.1113 101.136 93.1374 101.962 91.856 101.91C91.2409 101.91 90.6258 101.652 90.2157 101.342Z" fill="#181717"/>
<path d="M105.952 100.207C105.644 100.723 105.234 101.136 104.722 101.446C104.209 101.755 103.645 101.91 102.979 101.91C102.518 101.91 102.056 101.807 101.646 101.652C101.236 101.497 100.877 101.239 100.57 100.93C100.262 100.62 100.057 100.259 99.8522 99.8461C99.6984 99.4333 99.5959 98.9689 99.5959 98.5045C99.5959 97.8853 99.7497 97.2661 100.057 96.7501C100.365 96.2341 100.724 95.7697 101.287 95.5118C101.8 95.2022 102.364 95.0474 103.03 95.0474C103.491 95.0474 103.953 95.1506 104.363 95.3054C104.773 95.5118 105.132 95.7182 105.439 96.0277C105.747 96.3373 105.952 96.6985 106.157 97.1113C106.311 97.5241 106.413 97.9885 106.413 98.4529C106.413 99.0721 106.259 99.6913 105.952 100.207ZM104.927 96.4921C104.465 95.9761 103.799 95.6666 102.979 95.6666C102.466 95.6666 102.005 95.8213 101.646 96.0277C101.236 96.2857 100.929 96.6469 100.724 97.0597C100.519 97.4725 100.416 97.9369 100.416 98.4529C100.416 99.2269 100.672 99.8977 101.134 100.414C101.595 100.93 102.261 101.239 103.03 101.239C103.543 101.239 104.004 101.084 104.363 100.878C104.773 100.62 105.08 100.31 105.337 99.8977C105.542 99.4849 105.644 99.0205 105.644 98.5045C105.644 97.7305 105.388 97.0081 104.927 96.4921Z" fill="#181717"/>
<path d="M112.41 95.0989H113.128V101.188H116.306V101.858H112.41V95.0989Z" fill="#181717"/>
<path d="M126.301 95.099V99.2269C126.301 100.104 126.096 100.723 125.635 101.239C125.174 101.704 124.558 101.962 123.738 101.962C122.969 101.962 122.303 101.704 121.893 101.239C121.432 100.775 121.227 100.104 121.227 99.2785V95.099H121.944V99.2269C121.944 99.9493 122.149 100.465 122.457 100.775C122.816 101.084 123.226 101.239 123.79 101.239C124.353 101.239 124.815 101.084 125.122 100.723C125.43 100.362 125.584 99.8977 125.584 99.2269V95.0474H126.301V95.099Z" fill="#181717"/>
<path d="M134.913 101.858H134.195V95.7697H131.94V95.0989H137.117V95.7697H134.861V101.858H134.913Z" fill="#181717"/>
<path d="M142.858 95.0989H143.575V101.858H142.858V95.0989Z" fill="#181717"/>
<path d="M155.929 100.207C155.621 100.723 155.211 101.136 154.698 101.446C154.186 101.755 153.622 101.91 152.956 101.91C152.494 101.91 152.033 101.807 151.623 101.652C151.213 101.497 150.854 101.239 150.546 100.93C150.239 100.62 150.034 100.259 149.829 99.8461C149.675 99.4333 149.573 98.9689 149.573 98.5045C149.573 97.8853 149.726 97.2661 150.034 96.7501C150.341 96.2341 150.7 95.7697 151.264 95.5118C151.777 95.2022 152.34 95.0474 153.007 95.0474C153.468 95.0474 153.929 95.1506 154.34 95.3054C154.75 95.5118 155.108 95.7182 155.416 96.0277C155.723 96.3373 155.928 96.6985 156.134 97.1113C156.287 97.5241 156.39 97.9885 156.39 98.4529C156.339 99.0721 156.185 99.6913 155.929 100.207ZM154.852 96.4921C154.391 95.9761 153.724 95.6666 152.904 95.6666C152.392 95.6666 151.93 95.8213 151.572 96.0277C151.162 96.2857 150.854 96.6469 150.649 97.0597C150.444 97.4725 150.341 97.9369 150.341 98.4529C150.341 99.2269 150.598 99.8977 151.059 100.414C151.52 100.93 152.187 101.239 152.956 101.239C153.468 101.239 153.929 101.084 154.288 100.878C154.698 100.62 155.006 100.31 155.262 99.8977C155.467 99.4849 155.57 99.0205 155.57 98.5045C155.621 97.7305 155.313 97.0081 154.852 96.4921Z" fill="#181717"/>
<path d="M167.82 95.0989V101.858H167.051L163.053 96.1309V101.858H162.336V95.0989H163.156L167.103 100.775V95.0989H167.82V95.0989Z" fill="#181717"/>
<path d="M174.535 101.342C174.125 100.981 173.869 100.517 173.817 100.001L174.484 99.7945C174.535 100.207 174.74 100.517 175.099 100.826C175.406 101.084 175.765 101.239 176.227 101.239C176.637 101.239 176.995 101.136 177.252 100.93C177.559 100.723 177.713 100.414 177.713 100.001C177.713 99.5365 177.457 99.2269 177.149 99.0205C176.944 98.8657 176.739 98.8141 176.534 98.8141L175.663 98.6593C175.458 98.6077 175.304 98.5561 175.048 98.4529C174.843 98.3497 174.638 98.2465 174.484 98.0917C174.176 97.7821 174.022 97.4209 174.022 96.9049C174.022 96.5437 174.125 96.1825 174.33 95.9245C174.535 95.615 174.791 95.4086 175.099 95.2538C175.406 95.099 175.765 95.0474 176.124 95.0474C177.559 95.0474 178.226 95.9245 178.328 96.6469L177.662 96.8533C177.559 96.3889 177.098 95.6666 176.073 95.6666C175.355 95.6666 174.638 96.1825 174.638 96.8533C174.638 97.3693 174.945 97.7821 175.611 97.9369L176.483 98.0917C177.047 98.1949 177.508 98.4013 177.816 98.7109C178.021 98.9173 178.174 99.1237 178.277 99.3301C178.379 99.5365 178.431 99.7429 178.431 99.9493C178.431 101.136 177.457 101.962 176.175 101.91C175.509 101.91 174.945 101.652 174.535 101.342Z" fill="#181717"/>
</g>
<defs>
<clipPath id="clip0_2_35126">
<rect width="180.531" height="22.91" fill="white" transform="translate(4 79)"/>
</clipPath>
</defs>
</svg>
