<svg width="537" height="93" viewBox="0 0 537 93" fill="none" xmlns="http://www.w3.org/2000/svg">
<path d="M15.4314 67.8558V60.4331H22.575C23.6912 60.4331 24.64 60.7958 25.4213 61.4935C26.1747 62.219 26.5654 63.084 26.5654 64.1444C26.5654 65.1769 26.1747 66.0419 25.3934 66.7675C24.6121 67.493 23.6633 67.8558 22.575 67.8558H15.4314ZM23.1331 77.0085C27.4305 77.0085 30.8628 75.7807 33.4858 73.2693C36.1089 70.7858 37.4204 67.7441 37.4204 64.1723C37.4204 60.6005 36.1089 57.5589 33.4858 55.0474C30.8628 52.536 27.4305 51.3082 23.1331 51.3082H15.4314V46.1737H33.709V37.0209H4.57639V77.0364L23.1331 77.0085ZM44.3129 36.993V77.0085H53.6889L70.8783 54.7126V77.0085H81.7333V36.993H72.3014L55.1679 59.289V36.993H44.3129ZM185.763 67.8558V61.0191H201.194V52.4244H185.763V46.1458H205.77V36.993H174.908V77.0085H206.328V67.8558H185.763ZM228.345 61.8562L238.335 77.0085H250.92L235.489 53.5685L249.776 36.993H237.191L224.048 52.4244V36.993H213.193V77.0085H224.048V66.7117L228.345 61.8562ZM251.506 36.993V46.7318H262.64V77.0085H273.495V46.7318H284.657V36.993H251.506ZM290.378 36.993V77.0085H301.233V65.0095H308.376C312.73 65.0095 316.301 63.6979 319.064 61.047C321.827 58.396 323.222 55.0474 323.222 51.0012C323.222 46.9829 321.827 43.6344 319.092 40.9834C316.329 38.3324 312.757 36.993 308.376 36.993H290.378ZM307.79 46.7318C309.046 46.7318 310.134 47.1783 311.027 48.0154C311.92 48.8805 312.367 49.885 312.367 51.0291C312.367 52.1732 311.92 53.1778 311.027 54.015C310.134 54.88 309.046 55.2986 307.79 55.2986H301.233V46.7318H307.79ZM330.114 36.993V77.0085H339.49L356.68 54.7126V77.0085H367.535V36.993H358.103L340.969 59.289V36.993H330.114ZM385.282 57.0008C385.282 53.7359 386.37 51.0291 388.547 48.8526C390.724 46.676 393.43 45.5877 396.723 45.5877C397.923 45.5877 399.123 45.783 400.295 46.1458C401.467 46.5086 402.416 46.9271 403.141 47.3736C403.867 47.8201 404.564 48.3503 405.234 48.9363C405.904 49.5223 406.35 49.9408 406.518 50.1641C406.713 50.3873 406.853 50.5827 406.964 50.7222L413.55 43.8576L412.908 43.0484C412.517 42.4903 411.848 41.8205 410.899 41.0392C409.95 40.2579 408.862 39.4765 407.606 38.6952C406.35 37.9139 404.76 37.2441 402.806 36.6861C400.881 36.128 398.844 35.8489 396.695 35.8489C390.5 35.8489 385.226 37.9418 380.901 42.0996C376.576 46.2574 374.399 51.2245 374.399 57.0008C374.399 62.805 376.576 67.772 380.901 71.9299C385.226 76.0877 390.5 78.1526 396.695 78.1526C398.872 78.1526 400.937 77.8736 402.946 77.3155C404.955 76.7574 406.546 76.1156 407.773 75.3901C409.001 74.6924 410.117 73.8832 411.178 72.9623C412.238 72.0415 412.908 71.3997 413.187 71.0369C413.466 70.6741 413.689 70.3672 413.829 70.144L407.55 63.2794L406.35 64.563C405.569 65.4559 404.257 66.321 402.444 67.1581C400.658 68.0232 398.732 68.4418 396.695 68.4418C393.43 68.4418 390.696 67.3535 388.519 65.1769C386.343 63.0003 385.282 60.2935 385.282 57.0008ZM439.864 59.875H432.441L436.153 48.1549L439.864 59.875ZM442.71 68.4418L445.584 77.0085H457.305L442.152 36.993H430.153L415.001 77.0085H426.721L429.567 68.4418H442.71Z" fill="#141414"/>
<path d="M459.023 12.8574L459.26 12.7715C459.421 12.707 459.614 12.5889 459.829 12.417C460.044 12.2451 460.27 12.041 460.495 11.7939C460.731 11.5576 460.925 11.2246 461.086 10.8164C461.247 10.4082 461.322 9.95703 461.322 9.45215C461.322 8.32422 460.893 7.36816 460.022 6.57324C459.163 5.77832 458.057 5.38086 456.703 5.38086C456.134 5.38086 455.575 5.4668 455.038 5.61719C454.501 5.76758 454.071 5.93945 453.738 6.12207C453.416 6.30469 453.104 6.50879 452.814 6.74512C452.535 6.98145 452.353 7.15332 452.267 7.23926C452.191 7.33594 452.127 7.41113 452.084 7.46484L453.18 8.67871L453.33 8.50684C453.427 8.38867 453.577 8.23828 453.771 8.06641C453.964 7.89453 454.2 7.71191 454.458 7.54004C454.727 7.36816 455.06 7.21777 455.468 7.09961C455.876 6.98145 456.284 6.91699 456.703 6.91699C457.616 6.91699 458.336 7.16406 458.873 7.63672C459.41 8.12012 459.668 8.72168 459.668 9.45215C459.668 10.29 459.41 10.9668 458.884 11.4609C458.357 11.9551 457.627 12.2021 456.703 12.2021H455.156V13.7383H456.703C457.788 13.7383 458.669 14.0283 459.335 14.6084C460.001 15.1885 460.334 15.8975 460.334 16.7139C460.334 17.5625 460.012 18.2715 459.356 18.8408C458.712 19.3994 457.82 19.6895 456.703 19.6895C456.188 19.6895 455.704 19.6143 455.231 19.4854C454.759 19.3564 454.383 19.2061 454.082 19.0342C453.792 18.8623 453.523 18.6797 453.276 18.4648C453.019 18.25 452.857 18.0996 452.793 18.0137C452.718 17.9277 452.664 17.8525 452.632 17.8096L451.525 18.9053L451.708 19.1523C451.837 19.3135 452.052 19.5068 452.342 19.7324C452.643 19.9688 452.976 20.1943 453.362 20.4092C453.749 20.624 454.232 20.8174 454.823 20.9785C455.425 21.1396 456.048 21.2148 456.703 21.2148C458.25 21.2148 459.496 20.7744 460.441 19.8828C461.397 18.9912 461.87 17.9385 461.87 16.7139C461.87 16.1123 461.773 15.5752 461.569 15.0918C461.365 14.6084 461.14 14.2324 460.882 13.9746C460.635 13.7168 460.345 13.502 460.012 13.3086C459.689 13.1152 459.453 12.9971 459.324 12.9541C459.195 12.9111 459.088 12.8789 459.023 12.8574ZM465.071 20.1191C465.071 20.4414 465.168 20.71 465.361 20.9141C465.555 21.1182 465.823 21.2148 466.156 21.2148C466.5 21.2148 466.769 21.1182 466.962 20.9141C467.155 20.71 467.252 20.4414 467.252 20.1191C467.252 19.7969 467.155 19.5391 466.962 19.335C466.769 19.1309 466.5 19.0234 466.156 19.0234C465.823 19.0234 465.555 19.1309 465.361 19.335C465.168 19.5391 465.071 19.7969 465.071 20.1191ZM470.894 13.3086C470.894 11.3105 471.334 9.75293 472.226 8.61426C473.106 7.48633 474.17 6.91699 475.405 6.91699C476.63 6.91699 477.693 7.48633 478.585 8.61426C479.466 9.74219 479.917 11.2998 479.917 13.2979C479.917 15.2852 479.477 16.8428 478.596 17.9814C477.715 19.1201 476.651 19.6895 475.427 19.6895C474.181 19.6895 473.106 19.1201 472.226 17.9922C471.334 16.8643 470.894 15.3066 470.894 13.3086ZM481.571 13.3086C481.571 10.9238 480.959 9.01172 479.745 7.56152C478.521 6.11133 477.081 5.3916 475.405 5.3916C473.729 5.3916 472.29 6.11133 471.076 7.56152C469.852 9.01172 469.25 10.9238 469.25 13.3086C469.25 15.6826 469.852 17.5947 471.065 19.0449C472.279 20.4951 473.729 21.2256 475.427 21.2256C477.103 21.2256 478.542 20.4951 479.756 19.0449C480.959 17.5947 481.571 15.6826 481.571 13.3086Z" fill="white"/>
<circle cx="131.446" cy="57.4999" r="6.71622" fill="white"/>
<path d="M160.526 37.138C156.226 30.997 150.092 26.3748 143.003 23.9341C135.915 21.4934 128.236 21.3593 121.067 23.5512C113.897 25.743 107.606 30.1483 103.094 36.1356C98.5825 42.1228 96.082 49.3847 95.9512 56.8804C95.8204 64.3762 98.0659 71.7209 102.366 77.862C106.666 84.003 112.8 88.6252 119.888 91.0659C126.977 93.5066 134.656 93.6407 141.825 91.4488C148.994 89.257 155.286 84.8517 159.797 78.8644L150.623 71.951C147.571 76.0009 143.316 78.9806 138.466 80.4632C133.617 81.9458 128.423 81.8551 123.628 80.2042C118.833 78.5533 114.685 75.4268 111.776 71.273C108.867 67.1191 107.349 62.1511 107.437 57.0809C107.526 52.0108 109.217 47.0988 112.269 43.049C115.32 38.9991 119.576 36.0194 124.425 34.5368C129.275 33.0542 134.469 33.1449 139.263 34.7958C144.058 36.4467 148.207 39.5732 151.116 43.727L160.526 37.138Z" fill="white"/>
<path d="M146.379 47.0439C144.171 43.8903 141.021 41.5168 137.381 40.2634C133.741 39.0101 129.798 38.9413 126.116 40.0668C122.435 41.1924 119.204 43.4545 116.887 46.5291C114.57 49.6036 113.286 53.3327 113.219 57.1818C113.152 61.031 114.305 64.8026 116.513 67.9561C118.721 71.1097 121.871 73.4832 125.511 74.7365C129.151 75.9899 133.094 76.0587 136.776 74.9332C140.457 73.8076 143.688 71.5455 146.005 68.4709L141.079 64.7592C139.546 66.7935 137.409 68.2903 134.973 69.0351C132.537 69.7798 129.927 69.7343 127.519 68.905C125.11 68.0757 123.026 66.5052 121.565 64.4186C120.104 62.332 119.341 59.8364 119.386 57.2895C119.43 54.7426 120.28 52.2752 121.813 50.2408C123.346 48.2065 125.483 46.7097 127.919 45.9649C130.355 45.2201 132.965 45.2657 135.373 46.095C137.782 46.9243 139.866 48.4948 141.327 50.5814L146.379 47.0439Z" fill="#141414"/>
</svg>
