<svg width="579" height="793" viewBox="0 0 579 793" fill="none" xmlns="http://www.w3.org/2000/svg">
<path d="M384.711 448.188C295.719 461.704 204.029 457.199 168.972 454.946C167.174 461.704 164.477 469.213 161.78 476.721C91.6651 665.938 78.1814 975.666 78.1814 975.666C78.1814 975.666 100.654 976.417 116.835 975.666C116.835 975.666 223.805 729.01 250.773 656.177C263.358 621.637 278.639 572.831 291.224 533.787L324.484 973.414C324.484 973.414 347.856 974.165 374.823 973.414C374.823 973.414 445.837 596.859 416.173 516.517C407.184 493.991 395.498 470.714 384.711 448.188Z" fill="#485BFF"/>
<path d="M283.18 578.122C283.18 578.122 162.956 531.473 162.059 547.621C162.059 561.975 251.778 596.961 276.002 602.344C280.488 590.682 280.488 588.887 283.18 578.122Z" fill="#2D2D2D"/>
<path d="M430.319 137.649C430.319 137.649 528.113 173.533 560.412 257.86C592.711 341.289 571.178 399.6 571.178 399.6L375.591 236.329L430.319 137.649Z" fill="#FF9E79"/>
<path d="M421.347 574.534C420.45 559.283 418.656 545.827 416.861 535.959C399.815 530.576 380.974 527.885 370.207 529.679C342.394 533.267 335.217 579.019 335.217 579.019C335.217 579.019 380.973 586.196 421.347 574.534Z" fill="#2D2D2D"/>
<path d="M446.468 537.753C446.468 479.442 433.908 277.596 433.908 277.596C433.908 277.596 477.87 171.739 467.104 148.414C395.328 120.604 214.096 73.0584 127.068 178.018C105.536 203.137 166.545 265.934 174.619 313.48C174.619 313.48 139.629 425.616 110.919 534.165C150.395 559.283 353.16 619.389 446.468 537.753Z" fill="#FFEA31"/>
<path d="M467.104 148.414C438.394 137.649 391.74 123.295 339.703 117.016C404.301 148.414 409.684 194.166 409.684 211.21C410.581 330.524 339.703 305.405 277.797 317.068C277.797 317.068 337.011 427.41 335.217 484.824C334.32 515.325 319.965 552.106 306.507 579.916C359.441 579.916 410.581 570.048 446.469 538.65C446.469 480.339 433.908 278.493 433.908 278.493C433.908 278.493 477.87 171.738 467.104 148.414Z" fill="#FF9330"/>
<path d="M256.264 70.3667L240.115 117.913C240.115 125.089 277.797 143.928 288.563 134.957C292.152 132.266 291.254 125.987 287.666 118.81L269.722 79.3376L256.264 70.3667Z" fill="#FF9E79"/>
<path d="M274.207 88.3091C266.133 87.412 256.263 84.7207 256.263 84.7207C256.263 84.7207 257.161 97.28 267.927 106.251C273.31 110.736 280.487 113.428 286.768 113.428L274.207 88.3091Z" fill="#2D2D2D"/>
<path d="M301.123 67.6758C301.123 67.6758 328.936 53.3223 329.834 27.3066C330.731 11.1589 306.507 -8.57713 285.871 3.98218C271.516 12.9531 267.927 29.9979 267.927 29.9979C267.927 29.9979 249.983 33.5863 252.675 47.9398C254.469 62.2933 255.367 85.6177 275.105 85.6177C293.049 84.7206 301.123 67.6758 301.123 67.6758Z" fill="#2D2D2D"/>
<path d="M267.03 53.3222L256.264 80.2351C253.572 89.206 258.058 99.074 267.03 101.765C274.207 104.457 278.693 104.457 288.562 103.559C296.637 102.662 301.123 95.4856 302.02 85.6176C302.917 72.1612 300.226 59.6019 297.534 53.3222C293.048 38.0717 275.105 36.2775 267.03 53.3222Z" fill="#FF9E79"/>
<path d="M279.591 41.6602C279.591 41.6602 266.133 49.734 273.31 63.1904C276.899 70.3672 269.722 73.9555 267.03 65.8817C264.338 58.7049 259.852 47.9398 263.441 44.3514C267.03 42.5572 279.591 41.6602 279.591 41.6602Z" fill="#5A5249"/>
<path d="M267.03 66.7787C267.03 64.9845 267.03 63.1903 267.03 61.3961C267.03 57.8077 267.03 53.3223 261.647 55.1165C254.47 58.7049 253.572 76.6467 262.544 78.4409C267.927 79.338 267.03 71.2641 267.03 66.7787Z" fill="#FF9E79"/>
<path d="M284.077 73.9556C284.077 73.9556 290.357 75.7498 299.329 75.7498C299.329 75.7498 299.329 82.0295 295.74 83.8237C292.151 84.7208 285.871 81.1324 284.077 73.9556Z" fill="white"/>
<path d="M291.152 93.6914C282.431 91.0002 275.454 104.457 261.5 91.0002C258.884 88.3089 258.012 82.9263 257.14 79.3379V80.235C254.523 89.206 258.884 99.074 267.605 101.765C274.582 104.457 278.943 104.457 288.536 103.559C292.897 103.559 296.385 100.868 299.002 96.3827C297.257 96.3827 293.769 94.5885 291.152 93.6914Z" fill="#2F2E2E"/>
<path d="M319.965 219.285C319.965 219.285 321.759 199.549 328.936 199.549C336.114 199.549 340.6 214.799 335.217 231.844C329.834 247.992 319.965 219.285 319.965 219.285Z" fill="#FF9E79"/>
<path d="M350.469 152.003L329.833 148.414C327.142 147.517 324.45 150.208 323.553 152.9L315.478 199.549C314.581 202.24 317.273 204.931 319.964 205.828L340.6 209.417C343.291 210.314 345.983 207.622 346.88 204.931L354.955 158.282C354.955 155.591 353.16 152.9 350.469 152.003Z" fill="#2D2D2D"/>
<path d="M345.086 210.314C345.086 210.314 365.721 383.453 462.618 398.703C554.131 413.057 557.72 417.542 568.486 404.086C579.253 390.63 555.926 270.419 531.702 249.786C507.477 229.153 355.852 201.343 355.852 201.343L345.086 210.314Z" fill="#FF9E79"/>
<path d="M123.48 171.739C123.48 171.739 19.4058 249.786 1.46198 348.466C-20.9678 470.471 220.377 516.223 335.217 231.844L319.965 220.182L175.517 274.008C175.517 273.11 139.629 179.813 123.48 171.739Z" fill="#FF9E79"/>
<path d="M192.564 131.37C192.564 131.37 122.583 153.797 48.1162 233.638L150.396 286.567L175.517 273.11L192.564 131.37Z" fill="#FFEA31"/>
<path d="M345.086 210.314C345.086 210.314 334.319 196.857 331.628 189.68C322.656 168.15 349.572 188.783 349.572 188.783L350.469 182.504C350.469 182.504 356.749 193.269 364.824 203.137L345.086 210.314Z" fill="#FF9E79"/>
<path d="M458.132 223.77C458.132 223.77 516.449 233.638 536.187 255.168C536.187 255.168 528.112 232.741 506.58 227.358C485.047 221.079 458.132 223.77 458.132 223.77Z" fill="#2D2D2D"/>
<path d="M150.396 286.567C150.396 286.567 105.536 296.435 78.6203 322.45C78.6203 322.45 84.0034 277.596 150.396 286.567Z" fill="#2D2D2D"/>
<path d="M468.898 351.158C416.861 337.701 345.086 210.314 345.086 210.314C345.086 210.314 365.721 383.453 462.618 398.704C554.131 413.057 557.72 417.543 568.486 404.086C569.384 403.189 571.645 401.395 571.645 398.704C571.645 398.704 581.485 370.965 576.999 327.007C549.186 358.406 515.552 363.717 468.898 351.158Z" fill="#C45D23"/>
<path d="M133.349 388.835C78.6204 403.189 20.3029 388.835 2.35909 343.981C2.35909 344.878 1.46198 346.672 1.46198 347.569C-20.9678 469.574 220.377 515.326 335.217 230.947C335.217 230.947 200.638 370.893 133.349 388.835Z" fill="#C45D23"/>
</svg>
