<svg width="204" height="151" viewBox="0 0 204 151" fill="none" xmlns="http://www.w3.org/2000/svg">
<rect width="204" height="77.7143" fill="white"/>
<rect x="3.52941" y="73.1486" width="135.417" height="73.8936" stroke="white" stroke-width="7.05882"/>
<path d="M55.3269 59.8572V50.0172H37.3833L54.748 28.8901V19.3395H23.4916V29.1795H40.2774L22.9127 50.3066V59.8572H55.3269ZM83.9854 19.3395V59.8572H115.242V50.0172H96.4301V44.2289H109.454V34.9678H96.4301V29.1795H114.663V19.3395H83.9854ZM173.979 38.4407L177.162 35.5466V26.5748L169.348 19.3395H143.591V59.8572H171.085L178.899 52.6219V43.0713L173.979 38.4407ZM165.297 50.0172H156.035V43.9395H164.139L166.454 45.9654V48.8595L165.297 50.0172ZM164.718 30.3372V33.2313L162.981 34.6784H156.035V29.1795H163.56L164.718 30.3372Z" fill="#232323"/>
<path d="M45.0142 131.095H57.7483L49.6447 116.625L55.433 111.415V96.9446L48.4871 90.5776H21.8612V131.095H34.3059V119.229H38.3577L45.0142 131.095ZM42.9883 101.575V108.232L41.8306 109.389H34.3059V100.418H41.8306L42.9883 101.575ZM106.118 122.992L108.723 131.095H121.457L108.434 90.5776H92.2267L79.2032 131.095H91.9373L94.542 122.992H106.118ZM100.33 104.18L102.935 113.152H97.7255L100.33 104.18Z" fill="white"/>
<rect x="163.524" y="114.101" width="14.8235" height="14.8235" transform="rotate(-45 163.524 114.101)" fill="white"/>
</svg>
