<svg width="204" height="151" viewBox="0 0 204 151" fill="none" xmlns="http://www.w3.org/2000/svg">
<rect width="204" height="77.7143" fill="white"/>
<rect x="3.52941" y="73.1485" width="135.417" height="73.8936" stroke="white" stroke-width="7.05882"/>
<path d="M55.3269 59.8572V50.0172H37.3833L54.748 28.8902V19.3396H23.4916V29.1796H40.2774L22.9127 50.3067V59.8572H55.3269ZM83.9854 19.3396V59.8572H115.242V50.0172H96.4301V44.229H109.454V34.9678H96.4301V29.1796H114.663V19.3396H83.9854ZM173.979 38.4408L177.162 35.5467V26.5749L169.348 19.3396H143.591V59.8572H171.085L178.899 52.6219V43.0714L173.979 38.4408ZM165.297 50.0172H156.035V43.9396H164.139L166.454 45.9655V48.8596L165.297 50.0172ZM164.718 30.3372V33.2314L162.981 34.6784H156.035V29.1796H163.56L164.718 30.3372Z" fill="#232323"/>
<path d="M45.0142 131.095H57.7483L49.6448 116.625L55.433 111.415V96.9446L48.4872 90.5776H21.8613V131.095H34.306V119.229H38.3577L45.0142 131.095ZM42.9883 101.575V108.232L41.8307 109.389H34.306V100.418H41.8307L42.9883 101.575ZM106.119 122.992L108.723 131.095H121.457L108.434 90.5776H92.2268L79.2032 131.095H91.9374L94.5421 122.992H106.119ZM100.33 104.18L102.935 113.152H97.7256L100.33 104.18Z" fill="white"/>
<rect x="163.524" y="114.101" width="14.8235" height="14.8235" transform="rotate(-45 163.524 114.101)" fill="white"/>
</svg>
