<?xml version="1.0" standalone="no"?>
<!DOCTYPE svg PUBLIC "-//W3C//DTD SVG 20010904//EN"
 "http://www.w3.org/TR/2001/REC-SVG-20010904/DTD/svg10.dtd">
<svg version="1.0" xmlns="http://www.w3.org/2000/svg"
 width="260.000000pt" height="260.000000pt" viewBox="0 0 260.000000 260.000000"
 preserveAspectRatio="xMidYMid meet">
<metadata>
Created by potrace 1.14, written by Peter Selinger 2001-2017
</metadata>
<g transform="translate(0.000000,260.000000) scale(0.100000,-0.100000)"
fill="#000000" stroke="none">
<path d="M0 1300 l0 -1300 1300 0 1300 0 0 1300 0 1300 -1300 0 -1300 0 0
-1300z m666 91 c83 -216 155 -400 160 -409 7 -11 41 67 128 294 66 170 137
355 159 412 l39 103 82 -3 c47 -2 80 -7 79 -13 -1 -5 -91 -238 -200 -518
l-198 -507 -83 2 -84 3 -199 505 c-109 278 -199 511 -199 518 0 10 20 12 82
10 l83 -3 151 -394z m1329 372 c94 -28 177 -109 210 -204 8 -23 15 -74 15
-113 0 -91 -36 -172 -104 -234 -83 -76 -116 -86 -313 -90 l-173 -4 0 -184 0
-184 -85 0 -85 0 0 513 c0 283 3 517 7 520 13 14 476 -4 528 -20z m186 -856
c47 -36 51 -97 10 -138 -48 -48 -116 -38 -147 22 -20 39 -11 82 23 109 29 22
89 26 114 7z"/>
<path d="M1630 1455 l0 -186 158 3 c156 3 159 3 195 31 90 68 103 192 29 270
-51 54 -75 61 -234 65 l-148 4 0 -187z"/>
</g>
</svg>
