<svg xmlns="http://www.w3.org/2000/svg" xmlns:xlink="http://www.w3.org/1999/xlink" version="1.1">
    <!-- для css -->
    <view id="error-red-view" viewBox="0 0 14 14"/>
    <use xlink:href="#error" stroke="#E43232"  width="14" height="14" x="0" y="0"/>

    <view id="filled-gold-view" viewBox="20 0 15 12"/>
    <use xlink:href="#filled" fill="transparent" stroke="#BFA372" width="15" height="12" x="20" y="0"/>

    <view id="angle-left-gold-view" viewBox="40 0 9 16"/>
    <use xlink:href="#angle-left" fill="transparent" stroke="#BFA372" width="9" height="16" x="40" y="0"/>

    <view id="angle-right-gold-view" viewBox="50 0 9 16"/>
    <use xlink:href="#angle-right" fill="transparent" stroke="#BFA372" width="9" height="16" x="50" y="0"/>

    <view id="arrow_404-view" viewBox="60 0 9 16"/>
    <use xlink:href="#arrow_404" fill="transparent" stroke="#BFA372" width="180" height="5" x="60" y="0"/>

    <!-- для html -->
    <symbol viewBox="0 0 93 10" id="arrow-right">
        <path d="M93 5.00001L85.5 0.66988L85.5 9.33013L93 5.00001ZM-6.55671e-08 5.75L86.25 5.75001L86.25 4.25001L6.55671e-08 4.25L-6.55671e-08 5.75Z" />
    </symbol>
    <symbol viewBox="0 0 62 82" id="banner-hand">
        <path fill="#F2F2F2" d="M34.562 79.4532C35.6007 79.9725 48.5833 76.7268 57.9308 67.1196C57.9308 67.1196 47.6745 84.1269 33.7831 80.4918L34.562 79.4532Z" />
        <path fill="#F2F2F2" d="M36.8988 13.3718C36.8988 13.242 37.0286 12.9824 37.2883 12.5929C38.976 9.99635 45.2077 1.68745 51.1797 3.11554C51.1797 3.11554 51.5692 1.16814 51.1797 0.129532C50.7902 -0.909081 39.2357 0.778665 36.8988 13.3718Z" />
        <path fill="#F2F2F2" d="M10.0248 52.9692C12.4915 67.3799 17.1653 76.338 23.7864 79.5836C26.1233 80.6222 28.59 81.1415 31.3164 80.8819C34.3024 80.6222 37.548 79.4538 40.9235 77.6362C51.05 71.9238 59.4887 61.1482 59.8782 60.6289L61.1765 50.5025L49.1026 52.5797L51.3097 5.45264L49.3623 5.71229C48.9728 5.71229 47.4149 6.10177 45.5973 7.01056C43.5201 8.179 40.6639 10.5159 39.2358 15.0598C37.548 20.2529 37.4182 30.7688 37.6779 38.6882C36.8989 37.39 35.9901 36.4812 35.0813 35.8321C33.9129 35.1829 32.7445 35.0531 31.4462 35.4426C30.9269 35.5724 30.4076 35.8321 30.0181 36.0917C28.8497 36.7408 28.0707 37.6496 27.4216 38.9479L27.1619 37.5198L25.604 37.6496C23.9162 38.0391 22.4882 38.4286 21.3197 39.2075C19.7618 40.1163 18.5934 41.2848 17.8144 42.7129L5.87035 14.5405L4.18261 16.6177C3.92295 16.8774 -0.361324 22.0704 0.417636 30.3793C1.1966 40.376 8.59671 51.1516 10.0248 52.9692ZM54.5553 55.9552C54.9448 56.085 57.1519 57.3833 56.6325 58.4219C56.1132 59.4605 46.6359 56.864 46.6359 56.864C46.6359 56.864 54.2957 55.9552 54.5553 55.9552ZM42.6113 19.6037C43.7797 15.8388 45.2078 15.7089 46.6359 14.93C46.7657 14.8002 47.5447 11.2948 47.6745 11.165L44.9482 57.1236L40.2744 56.864C41.5727 54.7867 38.8463 42.3234 38.8463 42.3234C38.8463 42.0637 40.1446 27.5232 42.6113 19.6037ZM30.2778 45.8287C30.2778 45.569 30.2778 45.3094 30.2778 45.0497C30.4076 43.1023 31.4462 38.8181 33.7831 38.8181C35.6006 38.9479 37.1586 44.9199 37.6779 47.2568L37.9375 48.0358C38.327 49.7235 38.5867 53.6183 37.548 55.1762C37.2884 55.5657 37.0287 55.6955 36.5094 55.8253C34.0427 56.085 33.0041 54.7867 32.4848 54.0078C32.4848 54.0078 32.4848 53.8779 32.355 53.8779C32.355 51.5411 31.576 49.8533 30.7971 48.0358C30.6672 47.6463 30.4076 47.2568 30.2778 46.8673C30.2778 46.6077 30.2778 46.2182 30.2778 45.8287ZM23.5268 42.7129C23.6566 42.583 23.7864 42.4532 23.9162 42.1936C24.1759 41.9339 25.2145 41.0251 25.4742 40.7655C25.7338 42.3234 25.2145 44.2708 25.4742 45.1796V45.3094C25.604 45.6989 27.0321 45.9585 27.1619 46.2182C28.8497 50.2428 29.1093 55.0464 28.7198 56.7341C28.4602 58.1622 26.5128 59.2008 25.3443 59.7201L21.839 49.9832V49.8533C21.3197 48.6849 20.4109 46.0884 23.5268 42.7129ZM6.25983 24.0178L17.1653 49.5937L17.9442 51.4112L23.5268 63.8746L24.825 63.4851C24.9549 63.4851 26.3829 63.0956 27.9409 62.1869C28.59 61.7974 29.1093 61.4079 29.6286 61.0184C28.0707 65.1729 28.3304 68.1589 30.0181 69.9764C31.3164 71.4045 33.6532 72.0537 36.6393 71.794C40.7937 71.4045 45.2078 69.587 45.7271 69.3273L46.5061 68.9378L45.2078 65.9518L44.4288 66.4711C43.3902 66.9904 41.8323 67.2501 40.2744 67.5097C37.548 67.7694 35.341 67.2501 34.3024 66.0816C33.0041 64.6536 31.9655 63.6149 33.7831 59.7201L49.7517 60.7588L54.1658 61.4079C51.3097 64.9132 46.2464 71.1449 39.3656 74.9099C37.1586 76.2081 35.4708 76.8573 33.9129 76.9871C31.9655 77.1169 30.4076 76.4678 27.9409 75.2993C22.618 72.7028 17.1653 69.0677 14.8284 54.9166V54.7867L12.881 51.6709L12.7512 51.5411C12.7512 51.4112 8.72654 49.4638 6.38966 42.4532C6.25983 41.9339 8.98619 36.8707 8.85636 36.3514C8.33706 34.404 4.83174 39.0777 4.18261 37.2601C1.45625 29.3407 5.48087 25.4459 6.25983 24.0178Z" />
    </symbol>
    <symbol viewBox="0 0 64 78" id="banner-hand2">
        <path fill="#EAEAE1" d="M63.0478 45.2714L63.238 42.6084L49.162 43.9399L48.4011 42.6084C52.2055 42.4182 60.7652 41.4671 60.7652 41.4671L57.1511 39.3747C57.1511 39.3747 51.4446 40.1356 48.2109 41.6573L29.1893 2.09229L25.5752 6.27705C25.385 6.46726 24.8143 11.2227 24.0534 12.7444C23.1024 14.6466 24.4339 18.4509 25.5752 22.4454C26.9067 27.0106 35.086 37.2823 39.0805 42.9888C37.749 42.4182 33.7545 39.5649 32.8034 39.5649C31.6621 39.5649 30.711 40.1356 29.9502 40.8964C29.5697 41.2769 29.3795 41.6573 29.1893 42.0377C28.6186 42.9888 28.4284 44.1301 28.6186 45.4616L27.6676 44.5105L26.7165 45.6518C25.7654 46.7931 24.8143 47.7442 24.4339 48.8855C23.673 50.4072 23.4828 51.7388 23.673 53.2605L1.03726 38.6138L0.847045 41.0866C0.847045 41.2769 0.276395 47.1736 4.84159 52.8801C6.1731 54.592 9.40678 53.8311 11.1187 55.1627C16.635 59.3474 21.5806 64.1028 22.9121 64.6735C31.8523 73.8039 39.6512 77.9886 46.1185 77.0375C48.4011 76.6571 50.3033 75.706 52.2055 74.1843C54.2978 72.4723 58.4826 70.5702 60.0043 67.5267C64.7598 58.2061 62.8576 45.842 63.0478 45.2714ZM38.1295 72.2821L31.2817 68.0974C32.6132 68.2876 43.6457 75.706 51.0642 74.1843C51.0642 74.1843 49.162 78.7495 38.1295 72.2821ZM48.0207 68.668L47.8305 69.0484L45.9283 68.2876C45.1675 64.1028 48.4011 59.5376 51.2544 56.304C48.7816 56.8746 34.8958 60.2985 36.2273 50.217L48.0207 44.1301L38.1295 51.3583C38.1295 51.3583 47.8305 62.0104 53.1565 49.4562L52.3957 54.0214C53.1566 54.0214 54.6783 52.6898 55.0587 52.3094L55.2489 52.1192C47.0696 60.8691 48.0207 68.668 48.0207 68.668Z" />
        <path fill="#EAEAE1" d="M26.9067 1.52173C26.9067 1.52173 19.1078 6.84779 23.4828 20.3532C23.4828 20.3532 14.5426 4.18476 24.6241 0L26.9067 1.52173Z" />
    </symbol>
    <symbol viewBox="0 0 49 43" id="banner-star">
        <path fill="#BFA372" d="M43.8676 34.8289L43.4782 36.5167L29.3271 27.299L43.8676 34.8289L29.5867 19.3795L36.3377 6.39688L24.3937 10.032L16.6041 0.554688L15.5654 12.8882L0.375732 19.3795L14.1374 20.6778V42.4887L25.3024 26.7797L45.1659 39.8921L48.2817 39.3728L43.8676 34.8289ZM24.3937 22.8849L16.9935 33.4008V31.9727C18.2918 29.6358 21.6673 24.0533 21.6673 24.0533L20.7585 23.6638L16.9935 30.285V18.2111L12.9689 17.0427L18.4216 15.0953L18.9409 8.08463L23.355 13.5373L30.4955 11.3303L25.9516 20.0287L31.9236 26.3902L24.3937 22.8849Z" />
    </symbol>
    <symbol viewBox="0 0 72 82" id="banner-scull">
        <path fill="#BFA372" d="M52.6221 56.0342L58.5608 63.3304L53.9795 56.0342H52.6221Z" />
        <path fill="#BFA372" d="M49.2269 51.6226C48.8875 51.6226 52.6205 55.6949 52.6205 55.6949C52.6205 55.6949 51.263 51.7922 49.2269 51.6226Z" />
        <path fill="#BFA372" d="M53.9782 12.4264C53.9782 12.4264 22.2482 -7.93511 11.7281 11.578C12.2372 11.2386 12.5765 11.0689 13.0855 11.0689C21.7392 10.3902 13.5946 11.0689 13.5946 11.0689L9.52229 18.8742C9.52229 18.8742 8.50421 20.2316 6.9771 22.7768C1.71705 39.575 3.24416 54.1674 3.24416 54.1674L19.703 60.4456L18.685 75.547L31.4109 76.056L31.0715 78.9406L31.7502 79.1103L32.938 79.4496L34.4651 68.4205L36.3316 80.298L40.5736 81.4858L41.2523 64.0088L65.5164 66.045C65.5164 65.7056 77.3939 26.6794 53.9782 12.4264ZM64.668 26.8491C64.668 27.0188 64.8377 27.0188 64.8377 27.1885C64.8377 27.3581 65.0074 27.5278 65.177 27.8672C65.177 28.0369 65.3467 28.2065 65.3467 28.3762C65.3467 28.5459 65.3467 28.5459 65.5164 28.7156C65.6861 29.0549 65.6861 29.2246 65.8558 29.3943C65.8558 29.564 66.0254 29.7337 66.0254 29.9033C66.0254 30.073 66.1951 30.2427 66.1951 30.4124C66.1951 30.582 66.3648 30.582 66.3648 30.7517C66.7041 31.6001 66.7041 31.4304 66.3648 30.7517C66.3648 30.582 66.1951 30.582 66.1951 30.4124C66.1951 30.2427 66.0254 30.073 66.0254 29.9033C66.0254 29.7337 65.8558 29.564 65.8558 29.3943C65.6861 29.2246 65.6861 28.8853 65.5164 28.7156C65.5164 28.5459 65.5164 28.5459 65.3467 28.3762C65.3467 28.2065 65.177 28.0369 65.177 27.8672C65.177 27.6975 65.0074 27.5278 64.8377 27.1885C64.668 27.0188 64.668 26.8491 64.668 26.8491L45.3246 12.9354C46.0033 13.1051 60.5957 16.6684 64.668 26.8491ZM14.7823 22.4374C16.6488 22.9465 19.0243 30.7517 19.0243 30.7517L14.7823 22.6071C14.7823 22.6071 12.9159 21.9284 14.7823 22.4374ZM25.6418 56.3733L19.8727 45.8532L9.52229 53.319L6.29838 48.7377L17.1578 40.7628L9.01325 25.4917L14.1036 22.9465L21.9089 37.5389L32.938 29.564L35.4832 33.1272C35.8225 32.7879 36.1619 32.6182 36.1619 32.6182L35.8225 33.4666L36.3316 34.1453L24.7934 42.6293L30.9019 53.8281L25.6418 56.3733ZM61.4441 60.4456L56.5234 63.8391L48.5485 52.6403L39.2161 61.4636L35.1438 58.7488L40.4039 53.6584L34.9742 57.052L44.9852 47.7196L35.9922 35.1634L40.9129 31.7698L49.3969 43.817L62.4622 31.6001L63.8196 35.6724L66.5345 36.0118L52.7905 48.7377L61.4441 60.4456Z" />
        <path fill="#BFA372" d="M11.7296 11.4087C3.92435 15.1416 0.191406 42.969 0.191406 42.969L2.56691 49.7562C0.530764 37.709 4.2637 28.0372 6.97857 22.9469C7.99664 19.3836 9.52376 15.8203 11.2205 12.2571C11.3902 11.9177 11.5599 11.748 11.7296 11.4087Z" />
        <path fill="#BFA372" d="M23.2678 42.9688C23.2678 43.8172 35.824 33.6365 35.824 33.6365L35.4847 33.1274C32.9395 34.8242 23.0981 41.272 23.2678 42.9688Z" />
        <path fill="#BFA372" d="M19.0254 76.0562L29.2061 77.4136C29.2061 77.4136 30.3939 78.4317 29.2061 78.771C28.1881 79.2801 21.2312 78.4317 19.0254 76.0562Z" />
        <path fill="#BFA372" d="M69.7615 46.5322C69.7615 46.5322 69.4221 61.1246 67.5557 64.6879L70.4402 63.6698C70.4402 63.8395 73.6641 51.962 69.7615 46.5322Z" />
        <path fill="#BFA372" d="M32.9395 3.09428C32.9395 3.09428 50.5861 6.48786 55.5068 9.20273C55.5068 9.20273 36.333 -4.20192 32.9395 3.09428Z" />
    </symbol>
    <symbol viewBox="0 0 95 95" id="banner-lightning-1-left">
        <path fill="#515152" d="M2.29319 28.6369L16.1673 18.1558L32.0174 23.88L34.4722 25.0746L34.9383 24.9559L32.0174 23.88L17.8337 16.9043L20.8559 14.4803L75.0509 39.5558L50.3888 46.0015L94.1807 75.0495L8.01228 47.1977L32.437 39.8199L2.29319 28.6369ZM23.4099 47.247L62.5422 59.946L39.6519 44.7653L58.3989 37.179L28.6082 26.7333L12.9114 29.407L48.6114 39.6714L23.4099 47.247Z" />
    </symbol>
    <symbol viewBox="0 0 95 95" id="banner-lightning-1-right">
        <path fill="#515152" d="M91.934 28.9743L78.0599 18.4932L62.2098 24.2174L59.755 25.412L59.2889 25.2933L62.2098 24.2174L76.3935 17.2417L73.3712 14.8177L19.1762 39.8932L43.8384 46.3389L0.046463 75.3869L86.2149 47.5351L61.7901 40.1573L91.934 28.9743ZM70.8173 47.5844L31.685 60.2834L54.5753 45.1027L35.8283 37.5164L65.6189 27.0707L81.3157 29.7444L45.6157 40.0088L70.8173 47.5844Z" />
    </symbol>
    <symbol viewBox="0 0 154 69" id="banner-lightning-2-left">
        <path fill="#817B78" d="M153.812 0.0947266L42.7394 32.3833L55.1547 43.74L3.05492 64.0039L51.164 58.6595C29.2156 62.4451 1.28131 67.3441 0.616211 67.1214L2.83322 68.9028L71.5605 57.7688L73.7775 55.9874L103.264 52.6472L80.6503 35.0555L145.165 7.88852L153.812 0.0947266ZM77.3247 35.0555L75.9945 36.3915V35.7235L77.3247 35.0555L82.8673 29.9338L91.957 28.8204L77.3247 35.0555ZM110.358 17.9091C108.141 18.7998 106.589 19.2452 106.368 19.2452L110.358 17.9091C120.778 14.3462 147.826 4.10296 147.826 4.10296L140.288 8.1112L110.358 17.9091Z" />
    </symbol>
    <symbol viewBox="0 0 154 69 " id="banner-lightning-2-right">
        <path fill="#817B78" d="M0.221863 0.691406L111.294 32.98L98.8788 44.3367L150.979 64.6005L102.869 59.2562C124.818 63.0418 152.752 67.9407 153.417 67.7181L151.2 69.4995L82.4729 58.3655L80.2559 56.5841L50.7697 53.2439L73.3832 35.6521L8.86821 8.4852L0.221863 0.691406ZM76.7087 35.6521L78.0389 36.9882V36.3202L76.7087 35.6521L71.1662 30.5305L62.0764 29.4171L76.7087 35.6521ZM43.6753 18.5058C45.8923 19.3965 47.4442 19.8419 47.6659 19.8419L43.6753 18.5058C33.2553 14.9429 6.20778 4.69964 6.20778 4.69964L13.7456 8.70788L43.6753 18.5058Z" />
    </symbol>
    <symbol viewBox="0 0 89 19" id="banner-triangle-1">
        <path fill="#817B78" d="M87.3695 18.9395L0.00167234 11.9747L12.7679 1.56074L73.7972 14.1591L87.3695 18.9395Z" />
    </symbol>
    <symbol viewBox="0 0 89 19" id="banner-triangle-2">
        <path fill="#817B78" d="M1.6139 18.9053L88.9817 11.9405L76.2155 1.52656L15.1862 14.1249L1.6139 18.9053Z" />
    </symbol>
    <symbol viewBox="0 0 83 14" id="banner-triangle-3">
        <path fill="#817B78" d="M78.302 4.74641C79.5438 3.78528 32.5428 11.2515 32.5428 11.2515L33.8323 13.4306C33.8323 13.4306 71.7885 10.1849 78.302 4.74641Z" />
        <path fill="#817B78" d="M82.3261 0.759257L0.209078 2.00535L11.5189 12.513L69.3442 4.25425L82.3261 0.759257Z" />
    </symbol>
    <symbol viewBox="0 0 83 15" id="banner-triangle-4">
        <path fill="#817B78" d="M4.39231 4.92609C3.15052 3.96496 50.1515 11.4312 50.1515 11.4312L48.8621 13.6103C48.8621 13.6103 10.9058 10.3646 4.39231 4.92609Z" />
        <path fill="#817B78" d="M0.366292 0.938945L82.4833 2.18503L71.1735 12.6927L13.3482 4.43394L0.366292 0.938945Z" />
    </symbol>
    <symbol viewBox="0 0 514 10" id="arrow-both">
        <path fill="#707070" d="M0.468384 5.29736L7.96838 9.62749L7.96838 0.967237L0.468384 5.29736ZM513.288 5.29741L505.788 0.96728L505.788 9.62753L513.288 5.29741ZM7.21838 6.04736L506.538 6.04741L506.538 4.54741L7.21838 4.54736L7.21838 6.04736Z" />
    </symbol>
    <symbol viewBox="0 0 514 10" id="arrow-both-presentation">
        <path fill="#707070" d="M0.468384 5.29736L7.96838 9.62749L7.96838 0.967237L0.468384 5.29736ZM513.288 5.29741L505.788 0.96728L505.788 9.62753L513.288 5.29741ZM7.21838 6.04736L506.538 6.04741L506.538 4.54741L7.21838 4.54736L7.21838 6.04736Z" />
    </symbol>
    <symbol viewBox="0 0 44 43" id="copyright">
        <path d="M32.939 32.7822L32.2349 32.0721L32.2319 32.0751L32.939 32.7822ZM10.8906 32.7822L11.6008 32.0782L11.5947 32.0721L10.8906 32.7822ZM10.8906 10.7607L11.5947 11.4709L11.6008 11.4648L10.8906 10.7607ZM32.939 10.7607L32.2318 11.4679L32.2349 11.4709L32.939 10.7607ZM7.29199 7.56494L7.99188 8.27921L7.99427 8.27684L7.29199 7.56494ZM7.29199 35.9512L7.99428 35.2393L7.99187 35.2369L7.29199 35.9512ZM18.4907 17.7163L19.1816 18.4393L19.1897 18.4315L18.4907 17.7163ZM25.5806 16.7495L26.1106 15.9015L26.1031 15.8969L25.5806 16.7495ZM27.6753 18.7368L26.7809 19.184L27.4013 20.425L28.3824 19.4439L27.6753 18.7368ZM30.9785 15.4336L31.6856 16.1407L32.2812 15.5451L31.7955 14.8569L30.9785 15.4336ZM30.6562 14.9771L29.837 15.5505L29.8393 15.5537L30.6562 14.9771ZM28.0513 12.5869L27.4802 13.4078L27.4883 13.4135L27.4966 13.419L28.0513 12.5869ZM14.5967 29.3984L15.2992 28.6868L15.2945 28.6822L14.5967 29.3984ZM25.6611 32.0034L25.36 31.0498L25.3526 31.0522L25.6611 32.0034ZM28.105 30.8755L27.5503 30.0434L27.542 30.0489L27.5339 30.0546L28.105 30.8755ZM29.8774 29.4253L29.1878 28.7012L29.179 28.7096L29.1703 28.7182L29.8774 29.4253ZM30.9248 28.2974L30.1248 27.6974L30.0993 27.7313L30.0768 27.7674L30.9248 28.2974ZM31.2471 27.7871L32.1415 28.2343L32.4787 27.5599L31.923 27.0502L31.2471 27.7871ZM27.6753 24.5107L28.3513 23.7738L27.374 22.8773L26.7809 24.0635L27.6753 24.5107ZM27.5142 24.833L28.3824 25.3291L28.3962 25.305L28.4086 25.2802L27.5142 24.833ZM24.6138 27.25L24.917 28.2029L24.9364 28.1968L24.9555 28.1898L24.6138 27.25ZM36.6118 21.7715C36.6118 25.7389 35.1672 29.165 32.2349 32.0721L33.643 33.4924C36.9412 30.2227 38.6118 26.2904 38.6118 21.7715H36.6118ZM32.2319 32.0751C29.2994 35.0076 25.8726 36.4282 21.9014 36.4282V38.4282C26.4165 38.4282 30.3481 36.7873 33.6461 33.4893L32.2319 32.0751ZM21.9014 36.4282C17.9295 36.4282 14.5046 35.0073 11.6008 32.0782L10.1805 33.4863C13.4534 36.7877 17.3869 38.4282 21.9014 38.4282V36.4282ZM11.5947 32.0721C8.66558 29.1682 7.24463 25.7434 7.24463 21.7715H5.24463C5.24463 26.2859 6.8852 30.2195 10.1866 33.4924L11.5947 32.0721ZM7.24463 21.7715C7.24463 17.7996 8.66558 14.3747 11.5947 11.4709L10.1866 10.0506C6.8852 13.3235 5.24463 17.257 5.24463 21.7715H7.24463ZM11.6008 11.4648C14.5046 8.5357 17.9295 7.11475 21.9014 7.11475V5.11475C17.3869 5.11475 13.4534 6.75532 10.1805 10.0567L11.6008 11.4648ZM21.9014 7.11475C25.8726 7.11475 29.2994 8.53535 32.2319 11.4678L33.6461 10.0536C30.3481 6.75567 26.4165 5.11475 21.9014 5.11475V7.11475ZM32.2349 11.4709C35.1672 14.3779 36.6118 17.804 36.6118 21.7715H38.6118C38.6118 17.2526 36.9412 13.3203 33.643 10.0506L32.2349 11.4709ZM43.5532 21.7446C43.5532 15.9381 41.4269 10.9558 37.2375 6.85068L35.8377 8.2792C39.6512 12.0159 41.5532 16.4867 41.5532 21.7446H43.5532ZM37.2375 6.85068C33.0433 2.74094 27.9019 0.683594 21.9014 0.683594V2.68359C27.395 2.68359 32.029 4.54715 35.8377 8.2792L37.2375 6.85068ZM21.9014 0.683594C15.9015 0.683594 10.7585 2.74062 6.58971 6.85304L7.99427 8.27684C11.7747 4.54746 16.4071 2.68359 21.9014 2.68359V0.683594ZM6.59211 6.85068C2.40018 10.9582 0.303223 15.9416 0.303223 21.7446H2.30322C2.30322 16.4832 4.18087 12.0135 7.99187 8.2792L6.59211 6.85068ZM0.303223 21.7446C0.303223 27.5462 2.39913 32.5569 6.59211 36.6654L7.99187 35.2369C4.18192 31.5037 2.30322 27.0075 2.30322 21.7446H0.303223ZM6.58971 36.6631C10.7585 40.7755 15.9015 42.8325 21.9014 42.8325V40.8325C16.4071 40.8325 11.7747 38.9687 7.99427 35.2393L6.58971 36.6631ZM21.9014 42.8325C27.9019 42.8325 33.0433 40.7752 37.2375 36.6654L35.8377 35.2369C32.029 38.969 27.395 40.8325 21.9014 40.8325V42.8325ZM37.2375 36.6654C41.428 32.5593 43.5532 27.5497 43.5532 21.7446H41.5532C41.5532 27.004 39.6502 31.5012 35.8377 35.2369L37.2375 36.6654ZM17.6914 21.7446C17.6914 20.5078 18.1549 19.4203 19.1816 18.4393L17.7999 16.9933C16.4095 18.3219 15.6914 19.9199 15.6914 21.7446H17.6914ZM19.1897 18.4315C20.187 17.4568 21.3605 16.9707 22.7607 16.9707V14.9707C20.8309 14.9707 19.1577 15.6662 17.7918 17.0011L19.1897 18.4315ZM22.7607 16.9707C23.6282 16.9707 24.3866 17.1906 25.058 17.6021L26.1031 15.8969C25.1095 15.2879 23.988 14.9707 22.7607 14.9707V16.9707ZM25.0506 17.5975C25.4679 17.8583 25.7879 18.0748 26.0216 18.253C26.27 18.4424 26.3635 18.546 26.3832 18.573L28.0006 17.3967C27.8055 17.1283 27.523 16.8828 27.2343 16.6626C26.9309 16.4313 26.5527 16.1778 26.1106 15.9015L25.0506 17.5975ZM26.3832 18.573C26.5926 18.8611 26.7125 19.0472 26.7809 19.184L28.5697 18.2896C28.4233 17.9967 28.2208 17.6995 28.0006 17.3967L26.3832 18.573ZM28.3824 19.4439L31.6856 16.1407L30.2714 14.7265L26.9682 18.0297L28.3824 19.4439ZM31.7955 14.8569L31.4732 14.4004L29.8393 15.5537L30.1615 16.0103L31.7955 14.8569ZM31.4755 14.4036C31.2386 14.0652 30.8672 13.638 30.3748 13.1746L29.0041 14.631C29.4248 15.027 29.6979 15.3518 29.837 15.5505L31.4755 14.4036ZM30.3748 13.1746C29.8904 12.7187 29.3094 12.2238 28.606 11.7549L27.4966 13.419C28.0822 13.8094 28.5754 14.2276 29.0041 14.631L30.3748 13.1746ZM28.6223 11.766C27.8978 11.262 26.9895 10.8455 25.9192 10.5273L25.3493 12.4444C26.2664 12.717 26.9694 13.0525 27.4802 13.4078L28.6223 11.766ZM25.9192 10.5273C24.8169 10.1996 23.6443 10.0562 22.4385 10.0562V12.0562C23.4885 12.0562 24.4644 12.1813 25.3493 12.4444L25.9192 10.5273ZM22.4385 10.0562C19.0557 10.0562 16.1942 11.165 13.8988 13.4014L15.2945 14.8339C17.1886 12.9884 19.5371 12.0562 22.4385 12.0562V10.0562ZM13.8988 13.4014C11.602 15.6394 10.4546 18.453 10.4546 21.7446H12.4546C12.4546 18.9669 13.4019 16.678 15.2945 14.8339L13.8988 13.4014ZM10.4546 21.7446C10.4546 25.0618 11.601 27.8758 13.8988 30.1147L15.2945 28.6822C13.4029 26.839 12.4546 24.5505 12.4546 21.7446H10.4546ZM13.8941 30.1101C16.1909 32.3774 19.055 33.4868 22.4385 33.4868V31.4868C19.5377 31.4868 17.1919 30.5552 15.2992 28.6868L13.8941 30.1101ZM22.4385 33.4868C23.6871 33.4868 24.8664 33.3124 25.9696 32.9546L25.3526 31.0522C24.4685 31.3389 23.4995 31.4868 22.4385 31.4868V33.4868ZM25.9623 32.957C27.0465 32.6146 27.9517 32.2003 28.676 31.6964L27.5339 30.0546C27.0229 30.4101 26.3167 30.7477 25.36 31.0498L25.9623 32.957ZM28.6597 31.7075C29.3579 31.242 30 30.717 30.5845 30.1324L29.1703 28.7182C28.6807 29.2078 28.1411 29.6496 27.5503 30.0434L28.6597 31.7075ZM30.5671 30.1494C31.1135 29.6291 31.56 29.1678 31.7728 28.8274L30.0768 27.7674C30.0768 27.7673 30.0765 27.7679 30.0757 27.769C30.075 27.7702 30.0739 27.7718 30.0724 27.774C30.0694 27.7784 30.0651 27.7845 30.0593 27.7923C30.0476 27.8082 30.0314 27.8291 30.0099 27.8555C29.9663 27.9088 29.907 27.9765 29.8295 28.06C29.674 28.2275 29.4617 28.4403 29.1878 28.7012L30.5671 30.1494ZM31.7248 28.8974C31.9235 28.6325 32.0621 28.3931 32.1415 28.2343L30.3526 27.3399C30.3246 27.396 30.2484 27.5325 30.1248 27.6974L31.7248 28.8974ZM31.923 27.0502L28.3513 23.7738L26.9993 25.2477L30.5711 28.524L31.923 27.0502ZM26.7809 24.0635L26.6197 24.3858L28.4086 25.2802L28.5697 24.958L26.7809 24.0635ZM26.6459 24.3369C26.5712 24.4677 26.4448 24.6616 26.2088 24.9448L27.7453 26.2251C28.0464 25.8638 28.2423 25.5743 28.3824 25.3291L26.6459 24.3369ZM26.2088 24.9448C25.9822 25.2167 25.7366 25.4624 25.4193 25.7117L26.6549 27.2844C27.0895 26.9429 27.4348 26.5977 27.7453 26.2251L26.2088 24.9448ZM25.4193 25.7117C25.1476 25.9252 24.7919 26.1212 24.272 26.3102L24.9555 28.1898C25.6173 27.9491 26.1747 27.6617 26.6549 27.2844L25.4193 25.7117ZM24.3106 26.2971C23.8101 26.4563 23.2946 26.5454 22.7339 26.5454V28.5454C23.516 28.5454 24.2358 28.4197 24.917 28.2029L24.3106 26.2971ZM22.7339 26.5454C21.3336 26.5454 20.1602 26.0593 19.1628 25.0846L17.7649 26.515C19.1309 27.8499 20.8041 28.5454 22.7339 28.5454V26.5454ZM19.1628 25.0846C18.1587 24.1034 17.6914 23.0128 17.6914 21.7446H15.6914C15.6914 23.5917 16.4057 25.1867 17.7649 26.515L19.1628 25.0846Z" />
    </symbol>
    <symbol viewBox="0 0 14 14" id="error">
        <path d="M1 1L6.75 6.75L12.5 12.5M12.5 1L1 12.5" stroke-width="2" />
    </symbol>
    <symbol viewBox="0 0 15 12" id="filled">
        <path  d="M14 0.999973L5.45714 9.99997L1 5.30432" stroke-width="2" />
    </symbol>
    <symbol viewBox="0 0 89 6" id="angle-right-small">
        <path d="M89 3.00001L84 0.113256L84 5.88676L89 3.00001ZM-4.37114e-08 3.5L84.5 3.50001L84.5 2.50001L4.37114e-08 2.5L-4.37114e-08 3.5Z" />
    </symbol>
    <symbol viewBox="0 0 180 6" id="angle-right-med">
        <path d="M180 2.99998L175 0.113233L175 5.88674L180 2.99998ZM4.37114e-08 3.5L175.5 3.49998L175.5 2.49998L-4.37114e-08 2.5L4.37114e-08 3.5Z" />
    </symbol>
    <symbol viewBox="0 0 252 10" id="angle-right-large">
        <path d="M252 4.99998L244.5 0.669851L244.5 9.33011L252 4.99998ZM6.55671e-08 5.75L245.25 5.74998L245.25 4.24998L-6.55671e-08 4.25L6.55671e-08 5.75Z" />
    </symbol>
    <symbol viewBox="0 0" id="angle-left-small">
        <path d="M0 3L5 5.88675V0.113249L0 3ZM85 2.5L4.5 2.5V3.5L85 3.5V2.5Z" />
    </symbol>
    <symbol viewBox="0 0 9 16" id="angle-left">
        <path stroke-width="2" d="M8 14.5L1.5 8L8 1.5" />
    </symbol>
    <symbol viewBox="0 0 9 16" id="angle-right">
        <path stroke-width="2" d="M1 14L7.5 7.5L1 1" />
    </symbol>

    <symbol viewBox="0 0 26 26" id="social__fb">
        <path d="M26 13C26 5.82029 20.1797 0 13 0C5.82029 0 0 5.82029 0 13C0 19.4886 4.75389 24.8668 10.9688 25.8421V16.7578H7.66797V13H10.9688V10.1359C10.9688 6.87781 12.9096 5.07812 15.879 5.07812C17.3009 5.07812 18.7891 5.33203 18.7891 5.33203V8.53125H17.1498C15.535 8.53125 15.0313 9.53342 15.0313 10.5625V13H18.6367L18.0604 16.7578H15.0313V25.8421C21.2461 24.8668 26 19.4886 26 13Z" />
    </symbol>

    <symbol viewBox="0 0 28 18" id="social__be">
        <path fill-rule="evenodd" clip-rule="evenodd" d="M17.8919 3.00363H25.3068V0.818564H17.8919V3.00363Z" fill="white"/>
        <path fill-rule="evenodd" clip-rule="evenodd" d="M26.8625 6.75896C26.283 5.8836 25.5471 5.24211 24.6532 4.83784C23.7609 4.4319 22.7583 4.2281 21.6437 4.2281C19.7686 4.2281 18.2458 4.83116 17.0687 6.02893C15.8949 7.23005 15.3072 8.95571 15.3072 11.2059C15.3072 13.6048 15.9558 15.3388 17.2613 16.403C18.5602 17.4688 20.0633 18 21.7672 18C23.83 18 25.4352 17.3685 26.581 16.1073C27.3152 15.3121 27.7301 14.5286 27.8206 13.7602H24.4046C24.207 14.1411 23.9765 14.4384 23.7148 14.6539C23.239 15.0498 22.6184 15.2486 21.8594 15.2486C21.1383 15.2486 20.5243 15.0849 20.0139 14.7592C19.171 14.2363 18.7298 13.3225 18.6738 12.0211H27.9968C28.0116 10.9002 27.9754 10.0382 27.8848 9.44351C27.7301 8.42615 27.3909 7.53075 26.8625 6.75896ZM18.7562 9.78099C18.8781 8.9357 19.176 8.26581 19.6485 7.77133C20.121 7.27685 20.7894 7.02961 21.6455 7.02961C22.4357 7.02961 23.0959 7.26182 23.6325 7.7279C24.1627 8.19732 24.4623 8.8789 24.5232 9.78099H18.7562Z" />
        <path fill-rule="evenodd" clip-rule="evenodd" d="M12.846 1.871C13.3745 2.61773 13.6395 3.5098 13.6395 4.55054C13.6395 5.62136 13.3745 6.48502 12.8394 7.13653C12.5398 7.50071 12.1002 7.83482 11.5191 8.13551C12.4015 8.46294 13.0666 8.97913 13.5193 9.68577C13.9671 10.3907 14.1927 11.2494 14.1927 12.2584C14.1927 13.2991 13.9358 14.233 13.4206 15.0582C13.0946 15.6045 12.6863 16.0656 12.1957 16.4398C11.6442 16.8691 10.9939 17.1614 10.2416 17.3218C9.48922 17.4805 8.67595 17.5573 7.79683 17.5573H0V0H8.36151C10.4721 0.0317402 11.9652 0.65485 12.846 1.871ZM3.44895 3.04871V6.92269H7.65687C8.40593 6.92269 9.0167 6.77735 9.48754 6.48668C9.95509 6.196 10.1905 5.68148 10.1905 4.94644C10.1905 4.12621 9.88101 3.58662 9.262 3.32268C8.72531 3.14059 8.04375 3.04871 7.21566 3.04871H3.44895ZM3.44895 14.5102V9.82773H7.70955C8.45038 9.83441 9.02823 9.93464 9.4398 10.1251C10.1757 10.4675 10.5412 11.094 10.5412 12.0094C10.5412 13.0886 10.1625 13.817 9.40358 14.2012C8.98707 14.4067 8.40099 14.5102 7.65028 14.5102H3.44895Z" />
    </symbol>

    <symbol viewBox="0 0 26 26" id="social__in">
        <path d="M13 2.34102C16.4734 2.34102 16.8848 2.35625 18.2508 2.41719C19.5203 2.47305 20.2059 2.68633 20.6629 2.86406C21.2672 3.09766 21.7039 3.38203 22.1559 3.83398C22.6129 4.29102 22.8922 4.72266 23.1258 5.32695C23.3035 5.78398 23.5168 6.47461 23.5727 7.73906C23.6336 9.11016 23.6488 9.52148 23.6488 12.9898C23.6488 16.4633 23.6336 16.8746 23.5727 18.2406C23.5168 19.5102 23.3035 20.1957 23.1258 20.6527C22.8922 21.257 22.6078 21.6938 22.1559 22.1457C21.6988 22.6027 21.2672 22.882 20.6629 23.1156C20.2059 23.2934 19.5152 23.5066 18.2508 23.5625C16.8797 23.6234 16.4684 23.6387 13 23.6387C9.52656 23.6387 9.11524 23.6234 7.74922 23.5625C6.47969 23.5066 5.79414 23.2934 5.33711 23.1156C4.73281 22.882 4.29609 22.5977 3.84414 22.1457C3.38711 21.6887 3.10781 21.257 2.87422 20.6527C2.69648 20.1957 2.4832 19.5051 2.42734 18.2406C2.36641 16.8695 2.35117 16.4582 2.35117 12.9898C2.35117 9.51641 2.36641 9.10508 2.42734 7.73906C2.4832 6.46953 2.69648 5.78398 2.87422 5.32695C3.10781 4.72266 3.39219 4.28594 3.84414 3.83398C4.30117 3.37695 4.73281 3.09766 5.33711 2.86406C5.79414 2.68633 6.48477 2.47305 7.74922 2.41719C9.11524 2.35625 9.52656 2.34102 13 2.34102ZM13 0C9.4707 0 9.02891 0.0152344 7.64258 0.0761719C6.26133 0.137109 5.31172 0.360547 4.48906 0.680469C3.63086 1.01562 2.90469 1.45742 2.18359 2.18359C1.45742 2.90469 1.01563 3.63086 0.680469 4.48398C0.360547 5.31172 0.137109 6.25625 0.0761719 7.6375C0.0152344 9.02891 0 9.4707 0 13C0 16.5293 0.0152344 16.9711 0.0761719 18.3574C0.137109 19.7387 0.360547 20.6883 0.680469 21.5109C1.01563 22.3691 1.45742 23.0953 2.18359 23.8164C2.90469 24.5375 3.63086 24.9844 4.48398 25.3145C5.31172 25.6344 6.25625 25.8578 7.6375 25.9188C9.02383 25.9797 9.46563 25.9949 12.9949 25.9949C16.5242 25.9949 16.966 25.9797 18.3523 25.9188C19.7336 25.8578 20.6832 25.6344 21.5059 25.3145C22.359 24.9844 23.0852 24.5375 23.8063 23.8164C24.5273 23.0953 24.9742 22.3691 25.3043 21.516C25.6242 20.6883 25.8477 19.7438 25.9086 18.3625C25.9695 16.9762 25.9848 16.5344 25.9848 13.0051C25.9848 9.47578 25.9695 9.03398 25.9086 7.64766C25.8477 6.26641 25.6242 5.3168 25.3043 4.49414C24.9844 3.63086 24.5426 2.90469 23.8164 2.18359C23.0953 1.4625 22.3691 1.01563 21.516 0.685547C20.6883 0.365625 19.7438 0.142188 18.3625 0.08125C16.9711 0.0152344 16.5293 0 13 0Z" />
        <path d="M13 6.32227C9.31328 6.32227 6.32227 9.31328 6.32227 13C6.32227 16.6867 9.31328 19.6777 13 19.6777C16.6867 19.6777 19.6777 16.6867 19.6777 13C19.6777 9.31328 16.6867 6.32227 13 6.32227ZM13 17.3316C10.6082 17.3316 8.66836 15.3918 8.66836 13C8.66836 10.6082 10.6082 8.66836 13 8.66836C15.3918 8.66836 17.3316 10.6082 17.3316 13C17.3316 15.3918 15.3918 17.3316 13 17.3316Z" />
        <path d="M21.5008 6.05801C21.5008 6.92129 20.8 7.617 19.9418 7.617C19.0785 7.617 18.3828 6.91621 18.3828 6.05801C18.3828 5.19473 19.0836 4.49902 19.9418 4.49902C20.8 4.49902 21.5008 5.19981 21.5008 6.05801Z" />
    </symbol>

    <symbol viewBox="0 0 180 9" id="arrow_no">
        <path d="M179.456 4.61497L171.956 0.284848L171.956 8.9451L179.456 4.61497ZM0.151611 5.36499L172.706 5.36498L172.706 3.86498L0.151611 3.86499L0.151611 5.36499Z" fill="#BFA372" />
    </symbol>
</svg>