<svg width="580" height="400" xmlns="http://www.w3.org/2000/svg">
 <!-- Created with SVG Editor - http://github.com/mzalive/SVG Editor/ -->

 <g>
  <title>background</title>
  <rect fill="#ffffff" id="canvas_background" height="402" width="582" y="-1" x="-1"/>
  <g display="none" overflow="visible" y="0" x="0" height="100%" width="100%" id="canvasGrid">
   <rect fill="url(#gridpattern)" stroke-width="0" y="0" x="0" height="100%" width="100%"/>
  </g>
 </g>
 <g>
  <title>Layer 1</title>
  <g stroke="null" id="svg_5">
   <path fill="white" stroke="null" id="svg_4" d="m177.120329,28.040285c14.726094,0 28.334156,1.093247 40.824184,4.372989c12.458084,2.186495 22.712046,6.746898 31.81603,12.213134c9.135928,5.497472 15.876071,13.306382 20.475979,23.333021c4.472133,9.995404 6.899862,22.208539 6.899862,35.51492c0,15.492876 -3.386043,28.799258 -11.371995,38.794662c-6.867918,9.995404 -18.080194,18.928797 -31.847974,25.519516c19.357946,5.497472 34.084041,15.492876 43.06025,28.799258c8.976209,13.306382 14.726094,29.892505 14.726094,48.821302c0,15.492876 -3.3541,28.799258 -9.103985,39.919145a74.013798,72.372973 0 0 1 -24.980056,27.706011c-10.222018,6.715662 -22.712046,12.181899 -36.320107,15.492876a170.22854,166.454714 0 0 1 -40.824184,5.497472l-152.020571,0.218649l0,-306.202958l148.666471,0zm-9.103985,124.255367c12.458084,0 22.680102,-3.279742 30.570222,-8.902157c7.858176,-5.622415 11.340051,-15.524112 11.340051,-27.706011c0,-6.746898 -1.118033,-13.306382 -3.3541,-17.710607a31.336873,30.642161 0 0 0 -10.222018,-11.088651a58.776602,57.473574 0 0 0 -14.726094,-5.497472c-5.62211,-1.093247 -11.371995,-1.093247 -18.112138,-1.093247l-65.740352,0l0,72.154323c0,-0.156178 70.276372,-0.156178 70.276372,-0.156178l-0.031944,0zm3.3541,130.97103c6.867918,0 13.608061,-1.093247 19.357946,-2.186495c5.62211,-1.093247 11.371995,-3.310978 15.844128,-6.746898s7.985951,-6.715662 11.371995,-12.181899c2.236066,-5.497472 4.472133,-12.213134 4.472133,-20.022044c0,-15.492876 -4.472133,-26.612763 -13.608061,-34.421673c-9.103985,-6.715662 -21.594013,-9.995404 -36.320107,-9.995404l-74.716561,0l0,85.398234l73.630472,0l0,0.156178l-0.031944,0zm219.070619,-1.093247c9.135928,8.902157 22.712046,13.306382 40.824184,13.306382c12.458084,0 23.830079,-3.310978 32.966007,-8.933392c9.103985,-6.715662 14.694151,-13.306382 16.930217,-19.990808l55.582222,0c-9.135928,26.581528 -22.74399,45.510324 -40.824184,57.723459c-18.080194,11.088651 -39.70615,17.679371 -65.804239,17.679371a132.087636,129.159363 0 0 1 -48.778191,-8.902157a90.305138,88.303148 0 0 1 -36.320107,-24.426269a91.07179,89.052804 0 0 1 -22.74399,-36.608168c-5.590166,-14.399629 -7.985951,-29.892505 -7.985951,-47.728055c0,-16.586124 2.236066,-32.235178 7.985951,-46.634807c5.749885,-14.368393 13.608061,-26.612763 23.862023,-37.701415c10.222018,-9.995404 22.712046,-18.928797 36.320107,-24.426269a128.350211,125.504793 0 0 1 47.692102,-8.902157c19.357946,0 36.320107,3.279742 51.046201,11.088651c14.694151,7.808909 26.098089,16.617359 35.202074,29.923741c9.103985,12.181899 15.844128,26.581528 20.475979,42.10564c2.236066,15.492876 3.3541,31.110695 2.236066,48.821302l-164.510599,0c0,18.11667 6.708199,34.671558 15.844128,43.60495zm71.554124,-116.571401c-7.985951,-7.808909 -20.507923,-12.213134 -35.234018,-12.213134c-10.222018,0 -18.080194,2.186495 -24.948112,5.497472c-6.867918,3.279742 -11.371995,7.808909 -15.844128,12.181899a30.570222,29.892505 0 0 0 -7.985951,15.524112c-1.149977,5.466237 -2.236066,9.995404 -2.236066,14.368393l102.092403,0c-2.236066,-16.429946 -7.985951,-27.549833 -15.876071,-35.358742l0.031944,0zm-99.88828,-116.446458l127.072459,0l0,29.892505l-127.072459,0l0,-29.892505z"/>
  </g>
 </g>
</svg>