<svg width="596" height="41" viewBox="0 0 596 41" fill="none" xmlns="http://www.w3.org/2000/svg">
<mask id="mask0_1_35186" style="mask-type:alpha" maskUnits="userSpaceOnUse" x="0" y="0" width="596" height="41">
<rect width="596" height="41" fill="#C4C4C4"/>
</mask>
<g mask="url(#mask0_1_35186)">
<path d="M168.882 95.5889L167.64 92.8578L161.916 95.4599L167.54 98.2721L168.882 95.5889ZM171.567 94.3682L170.453 91.5827L170.389 91.6084L170.326 91.6371L171.567 94.3682ZM185.85 83.2598L188.065 85.2826L188.069 85.2778L185.85 83.2598ZM176.694 23.2012L178.61 20.8927L178.603 20.887L178.597 20.8814L176.694 23.2012ZM72.5684 24.4219L74.2837 26.8831L74.3016 26.8706L74.3193 26.8579L72.5684 24.4219ZM62.5586 33.0889L60.216 31.2148L58.5354 33.3155L60.4413 35.2142L62.5586 33.0889ZM95.1514 65.5596L93.034 67.6849L95.0651 69.7083L97.1785 67.771L95.1514 65.5596ZM98.0811 62.874L100.108 65.0855L100.156 65.0414L100.202 64.9953L98.0811 62.874ZM106.87 57.2588L108.179 59.9582L108.195 59.9503L108.212 59.9421L106.87 57.2588ZM129.453 58.2354L131.48 56.0239L131.455 56.0005L131.429 55.9776L129.453 58.2354ZM130.063 74.959L132.016 77.2368L132.043 77.2131L132.07 77.1889L130.063 74.959ZM102.598 78.1328V75.1328H99.5977V78.1328H102.598ZM102.598 120.613H99.5977V123.613H102.598V120.613ZM132.993 142.952L134.931 145.242L134.953 145.224L134.975 145.204L132.993 142.952ZM104.062 142.708L105.428 140.037L105.404 140.025L105.38 140.013L104.062 142.708ZM93.0762 136.116L95.1231 133.923L95.0879 133.89L95.0517 133.858L93.0762 136.116ZM88.8037 131.844L91.1463 129.97L89.0117 127.301L86.6421 129.763L88.8037 131.844ZM57.5537 164.314L55.3921 162.234L53.5212 164.178L55.2566 166.244L57.5537 164.314ZM60.1172 167.366L62.433 165.459L62.4237 165.448L62.4143 165.437L60.1172 167.366ZM82.334 182.869L83.8224 180.264L83.7988 180.251L83.7749 180.238L82.334 182.869ZM179.38 177.132L177.477 174.813L177.474 174.815L179.38 177.132ZM188.291 109.383L190.543 107.401L190.523 107.378L190.502 107.356L188.291 109.383ZM170.123 98.32L172.809 97.0993L170.326 91.6371L167.64 92.8578L170.123 98.32ZM172.682 97.1536C174.872 96.2773 177.316 94.7537 179.977 92.7261L176.341 87.9535C173.875 89.8322 171.925 90.9941 170.453 91.5827L172.682 97.1536ZM179.977 92.7261C182.687 90.6616 185.383 88.22 188.065 85.2826L183.634 81.237C181.189 83.9147 178.758 86.1118 176.341 87.9535L179.977 92.7261ZM188.069 85.2778C190.805 82.2691 193.166 78.2845 195.089 73.6714L189.55 71.3637C187.81 75.5397 185.777 78.8794 183.63 81.2417L188.069 85.2778ZM195.089 73.6714C197.078 68.8976 198.127 63.6213 198.127 58.1133H192.127C192.127 62.8592 191.223 67.3484 189.55 71.3637L195.089 73.6714ZM198.127 58.1133C198.127 43.8342 191.331 31.4507 178.61 20.8927L174.778 25.5096C186.472 35.2154 192.127 46.0252 192.127 58.1133H198.127ZM178.597 20.8814C165.741 10.3395 149.029 5.06445 128.843 5.06445V11.0645C147.963 11.0645 163.234 16.0433 174.792 25.521L178.597 20.8814ZM128.843 5.06445C119.947 5.06445 111.538 6.06723 103.5 7.95122L104.869 13.7929C112.456 12.0148 120.405 11.0645 128.843 11.0645V5.06445ZM103.5 7.95122C95.604 9.80184 89.1421 11.8125 84.2236 14.1423L86.7921 19.5647C91.1509 17.5 97.1401 15.6044 104.869 13.7929L103.5 7.95122ZM84.2236 14.1423C79.4356 16.4103 74.8829 19.0638 70.8175 21.9858L74.3193 26.8579C78.0663 24.1647 82.3027 21.6913 86.7921 19.5647L84.2236 14.1423ZM70.853 21.9607C66.9103 24.7086 64.0255 26.8659 62.648 28.3964L67.1078 32.4102C67.9276 31.4993 70.1698 29.7504 74.2837 26.8831L70.853 21.9607ZM62.648 28.3964C61.5338 29.6344 60.7572 30.5383 60.216 31.2148L64.9012 34.963C65.3365 34.4188 66.0248 33.6136 67.1078 32.4102L62.648 28.3964ZM60.4413 35.2142L93.034 67.6849L97.2687 63.4343L64.6759 30.9636L60.4413 35.2142ZM97.1785 67.771L100.108 65.0855L96.0539 60.6626L93.1242 63.3481L97.1785 67.771ZM100.202 64.9953C101.67 63.5278 104.231 61.8724 108.179 59.9582L105.561 54.5593C101.453 56.5515 98.1543 58.5581 95.9597 60.7527L100.202 64.9953ZM108.212 59.9421C111.73 58.1827 115.302 57.3291 118.833 57.3291V51.3291C114.308 51.3291 109.822 52.4286 105.528 54.5755L108.212 59.9421ZM118.833 57.3291C122.276 57.3291 125.109 58.4205 127.478 60.4931L131.429 55.9776C127.938 52.9232 123.691 51.3291 118.833 51.3291V57.3291ZM127.426 60.4468C129.934 62.7456 130.848 64.8049 130.848 66.9023H136.848C136.848 62.6521 134.832 59.0962 131.48 56.0239L127.426 60.4468ZM130.848 66.9023C130.848 69.1139 129.954 71.0214 128.057 72.7291L132.07 77.1889C135.056 74.502 136.848 71.0384 136.848 66.9023H130.848ZM128.111 72.6812C126.248 74.2784 123.725 75.1328 120.054 75.1328V81.1328C124.683 81.1328 128.752 80.0341 132.016 77.2368L128.111 72.6812ZM120.054 75.1328H102.598V81.1328H120.054V75.1328ZM99.5977 78.1328V120.613H105.598V78.1328H99.5977ZM102.598 123.613H120.054V117.613H102.598V123.613ZM120.054 123.613C125.65 123.613 129.31 124.621 131.503 126.174C133.506 127.593 134.632 129.713 134.632 133.064H140.632C140.632 128.116 138.828 124.009 134.971 121.278C131.305 118.681 126.176 117.613 120.054 117.613V123.613ZM134.632 133.064C134.632 136.037 133.472 138.535 131.011 140.7L134.975 145.204C138.618 141.998 140.632 137.904 140.632 133.064H134.632ZM131.055 140.662C128.607 142.734 125.122 143.858 120.054 143.858V149.858C125.972 149.858 131.032 148.541 134.931 145.242L131.055 140.662ZM120.054 143.858C115.463 143.858 110.557 142.658 105.428 140.037L102.697 145.379C108.555 148.373 114.391 149.858 120.054 149.858V143.858ZM105.38 140.013C99.8796 137.324 96.5914 135.293 95.1231 133.923L91.0292 138.309C93.223 140.357 97.2591 142.721 102.745 145.403L105.38 140.013ZM95.0517 133.858C93.1571 132.201 91.9637 130.991 91.1463 129.97L86.4611 133.718C87.5969 135.138 89.089 136.614 91.1007 138.374L95.0517 133.858ZM86.6421 129.763L55.3921 162.234L59.7153 166.395L90.9653 133.924L86.6421 129.763ZM55.2566 166.244L57.8201 169.296L62.4143 165.437L59.8508 162.385L55.2566 166.244ZM57.8014 169.273C59.7822 171.679 62.9912 174.31 66.9625 177.04L70.3617 172.096C66.5205 169.455 63.8701 167.204 62.433 165.459L57.8014 169.273ZM66.9625 177.04C70.9719 179.797 75.7009 182.657 80.893 185.5L83.7749 180.238C78.7131 177.466 74.1648 174.711 70.3617 172.096L66.9625 177.04ZM80.8456 185.474C86.3022 188.592 93.3092 191.117 101.525 193.109L102.938 187.278C95.0404 185.363 88.6197 183.006 83.8224 180.264L80.8456 185.474ZM101.525 193.109C109.828 195.122 118.489 196.123 127.622 196.123V190.123C118.933 190.123 110.748 189.171 102.938 187.278L101.525 193.109ZM127.622 196.123C149.597 196.123 167.548 190.747 181.285 179.449L177.474 174.815C165.089 185.001 148.616 190.123 127.622 190.123V196.123ZM181.283 179.451C194.784 168.37 201.911 154.995 201.911 139.412H195.911C195.911 152.882 189.854 164.654 177.477 174.813L181.283 179.451ZM201.911 139.412C201.911 132.704 200.747 126.577 198.392 120.82L192.839 123.092C194.878 128.077 195.911 133.425 195.911 139.412H201.911ZM198.392 120.82C196.112 115.247 193.515 110.778 190.543 107.401L186.039 111.365C188.438 114.091 190.724 117.923 192.839 123.092L198.392 120.82ZM190.502 107.356C187.698 104.297 184.595 101.445 180.942 98.9658L177.573 103.931C180.756 106.09 183.513 108.61 186.08 111.41L190.502 107.356ZM180.942 98.9658C177.522 96.645 174.895 95.0489 173.297 94.3226L170.814 99.7848C171.902 100.279 174.158 101.613 177.573 103.931L180.942 98.9658ZM173.297 94.3226C171.902 93.6885 170.89 93.2389 170.223 92.9056L167.54 98.2721C168.338 98.6713 169.524 99.1982 170.814 99.7848L173.297 94.3226ZM291.318 78.1328L288.343 77.7464L287.617 83.3375L292.66 80.8161L291.318 78.1328ZM293.76 59.334V56.334H291.124L290.785 58.9476L293.76 59.334ZM361.265 59.334V62.334H364.265V59.334H361.265ZM361.265 13.0693H364.265V10.0693H361.265V13.0693ZM243.833 13.0693V10.0693H241.038L240.84 12.8577L243.833 13.0693ZM236.753 113.167L233.76 112.955L233.573 115.605L236.181 116.112L236.753 113.167ZM275.083 120.613L274.511 123.558L276.077 123.862L277.204 122.735L275.083 120.613ZM277.036 118.66L279.157 120.781L279.213 120.726L279.266 120.667L277.036 118.66ZM304.99 117.928L307.071 115.767L307.052 115.748L307.032 115.729L304.99 117.928ZM304.746 140.022L306.698 142.3L306.722 142.28L306.744 142.26L304.746 140.022ZM275.571 140.633L274.205 143.304L274.23 143.316L274.255 143.329L275.571 140.633ZM261.289 130.745L263.41 128.624L261.25 126.463L259.129 128.663L261.289 130.745ZM228.818 164.437L226.658 162.355L224.741 164.344L226.566 166.418L228.818 164.437ZM231.504 167.488L229.252 169.47L229.283 169.506L229.315 169.54L231.504 167.488ZM240.293 174.568L241.993 172.096L241.975 172.084L241.957 172.072L240.293 174.568ZM254.209 182.991L252.772 185.625L252.796 185.638L252.819 185.65L254.209 182.991ZM274.473 190.193L275.179 187.278L275.169 187.275L274.473 190.193ZM355.405 89.3633L357.563 87.2786L357.551 87.2663L357.539 87.2541L355.405 89.3633ZM315 70.1279C305.351 70.1279 297.061 71.9072 289.977 75.4495L292.66 80.8161C298.759 77.7667 306.095 76.1279 315 76.1279V70.1279ZM294.293 78.5192L296.735 59.7204L290.785 58.9476L288.343 77.7464L294.293 78.5192ZM293.76 62.334H361.265V56.334H293.76V62.334ZM364.265 59.334V13.0693H358.265V59.334H364.265ZM361.265 10.0693H243.833V16.0693H361.265V10.0693ZM240.84 12.8577L233.76 112.955L239.745 113.379L246.826 13.281L240.84 12.8577ZM236.181 116.112L274.511 123.558L275.655 117.668L237.325 110.222L236.181 116.112ZM277.204 122.735L279.157 120.781L274.915 116.539L272.962 118.492L277.204 122.735ZM279.266 120.667C279.89 119.974 281.428 118.961 284.293 117.767L281.986 112.229C278.992 113.476 276.38 114.905 274.806 116.653L279.266 120.667ZM284.293 117.767C286.843 116.705 289.502 116.167 292.539 116.167V110.167C288.741 110.167 285.295 110.85 281.986 112.229L284.293 117.767ZM292.539 116.167C296.704 116.167 300.114 117.494 302.949 120.126L307.032 115.729C303.031 112.014 298.14 110.167 292.539 110.167V116.167ZM302.909 120.089C305.648 122.726 306.995 125.864 306.995 129.402H312.995C312.995 124.152 310.924 119.477 307.071 115.767L302.909 120.089ZM306.995 129.402C306.995 132.398 305.675 135.172 302.748 137.785L306.744 142.26C310.653 138.77 312.995 134.463 312.995 129.402H306.995ZM302.794 137.745C300.002 140.138 296.212 141.539 291.318 141.539V147.539C297.411 147.539 302.654 145.767 306.698 142.3L302.794 137.745ZM291.318 141.539C286.596 141.539 281.795 140.334 276.888 137.937L274.255 143.329C279.845 146.059 285.543 147.539 291.318 147.539V141.539ZM276.938 137.962C271.687 135.275 268.559 133.339 267.148 132.129L263.243 136.685C265.25 138.405 268.958 140.619 274.205 143.304L276.938 137.962ZM267.148 132.129C265.532 130.744 264.38 129.593 263.41 128.624L259.168 132.866C260.152 133.85 261.441 135.14 263.243 136.685L267.148 132.129ZM259.129 128.663L226.658 162.355L230.978 166.518L263.449 132.827L259.129 128.663ZM226.566 166.418L229.252 169.47L233.756 165.506L231.07 162.455L226.566 166.418ZM229.315 169.54C231.355 171.716 234.484 174.301 238.629 177.065L241.957 172.072C238.045 169.464 235.315 167.167 233.693 165.436L229.315 169.54ZM238.593 177.04C242.605 179.798 247.335 182.659 252.772 185.625L255.646 180.358C250.34 177.464 245.794 174.71 241.993 172.096L238.593 177.04ZM252.819 185.65C258.459 188.598 265.417 191.115 273.776 193.111L275.169 187.275C267.17 185.365 260.701 183 255.599 180.333L252.819 185.65ZM273.766 193.109C282.072 195.123 290.855 196.123 299.985 196.123V190.123C291.293 190.123 282.987 189.17 275.179 187.278L273.766 193.109ZM299.985 196.123C322.03 196.123 340.158 190.097 353.78 177.504L349.707 173.098C337.449 184.43 320.909 190.123 299.985 190.123V196.123ZM353.78 177.504C367.33 164.976 374.274 149.286 374.274 130.623H368.274C368.274 147.605 362.035 161.7 349.707 173.098L353.78 177.504ZM374.274 130.623C374.274 113.314 368.648 98.7507 357.563 87.2786L353.248 91.4479C363.159 101.704 368.274 114.729 368.274 130.623H374.274ZM357.539 87.2541C346.319 75.9057 332.107 70.1279 315 70.1279V76.1279C330.608 76.1279 343.251 81.3365 353.272 91.4724L357.539 87.2541ZM453.916 68.4893L456.452 70.0912L456.456 70.0853L456.46 70.0793L453.916 68.4893ZM485.898 68.4893L488.435 66.8873L488.428 66.8771L488.422 66.867L485.898 68.4893ZM485.898 132.82L488.422 134.443L488.428 134.432L488.435 134.422L485.898 132.82ZM453.916 132.82L456.46 131.23L456.456 131.224L456.452 131.218L453.916 132.82ZM525.693 33.8213L527.938 31.8312L527.931 31.8228L527.923 31.8144L525.693 33.8213ZM414.121 33.8213L411.891 31.8144L411.884 31.8223L414.121 33.8213ZM414.121 167.366L416.358 165.367L416.351 165.359L414.121 167.366ZM525.693 167.366L527.93 169.365L527.931 169.364L525.693 167.366ZM450.446 100.594C450.446 86.3521 452.521 76.3153 456.452 70.0912L451.38 66.8873C446.521 74.5792 444.446 86.0268 444.446 100.594H450.446ZM456.46 70.0793C460.368 63.8265 464.899 61.1133 469.907 61.1133V55.1133C462.22 55.1133 456.009 59.4801 451.372 66.8993L456.46 70.0793ZM469.907 61.1133C474.896 61.1133 479.32 63.8043 483.375 70.1115L488.422 66.867C483.688 59.5024 477.614 55.1133 469.907 55.1133V61.1133ZM483.362 70.0912C487.302 76.329 489.49 86.3812 489.49 100.594H495.49C495.49 85.9977 493.284 74.5655 488.435 66.8873L483.362 70.0912ZM489.49 100.594C489.49 114.931 487.301 124.982 483.362 131.218L488.435 134.422C493.285 126.743 495.49 115.309 495.49 100.594H489.49ZM483.375 131.198C479.32 137.505 474.896 140.196 469.907 140.196V146.196C477.614 146.196 483.688 141.807 488.422 134.443L483.375 131.198ZM469.907 140.196C464.899 140.196 460.368 137.483 456.46 131.23L451.372 134.41C456.009 141.829 462.22 146.196 469.907 146.196V140.196ZM456.452 131.218C452.522 124.996 450.446 114.96 450.446 100.594H444.446C444.446 115.28 446.521 126.729 451.38 134.422L456.452 131.218ZM551.643 100.594C551.643 72.655 543.768 49.6872 527.938 31.8312L523.448 35.8114C538.136 52.3792 545.643 73.845 545.643 100.594H551.643ZM527.923 31.8144C512.017 14.1409 492.671 5.06445 469.907 5.06445V11.0645C490.844 11.0645 508.608 19.322 523.463 35.8282L527.923 31.8144ZM469.907 5.06445C447.143 5.06445 427.797 14.1409 411.891 31.8144L416.351 35.8282C431.207 19.322 448.97 11.0645 469.907 11.0645V5.06445ZM411.884 31.8223C395.919 49.6886 388.172 72.6658 388.172 100.594H394.172C394.172 73.8342 401.562 52.3778 416.358 35.8203L411.884 31.8223ZM388.172 100.594C388.172 128.515 395.915 151.622 411.891 169.373L416.351 165.359C401.565 148.931 394.172 127.36 394.172 100.594H388.172ZM411.884 169.365C427.8 187.176 447.153 196.123 469.907 196.123V190.123C448.961 190.123 431.204 181.98 416.358 165.367L411.884 169.365ZM469.907 196.123C492.662 196.123 512.014 187.176 527.93 169.365L523.456 165.367C508.611 181.98 490.854 190.123 469.907 190.123V196.123ZM527.931 169.364C543.772 151.623 551.643 128.526 551.643 100.594H545.643C545.643 127.349 538.133 148.93 523.456 165.368L527.931 169.364Z" fill="#5A5A5A"/>
</g>
</svg>
