<svg width="596" height="96" viewBox="0 0 596 96" fill="none" xmlns="http://www.w3.org/2000/svg">
<mask id="mask0_1_35183" style="mask-type:alpha" maskUnits="userSpaceOnUse" x="0" y="0" width="596" height="96">
<rect width="596" height="96" fill="#C4C4C4"/>
</mask>
<g mask="url(#mask0_1_35183)">
<path d="M168.882 105.589L167.64 102.858L161.916 105.46L167.54 108.272L168.882 105.589ZM171.567 104.368L170.453 101.583L170.389 101.608L170.326 101.637L171.567 104.368ZM185.85 93.2598L188.065 95.2826L188.069 95.2778L185.85 93.2598ZM176.694 33.2012L178.61 30.8927L178.603 30.887L178.597 30.8814L176.694 33.2012ZM72.5684 34.4219L74.2837 36.8831L74.3016 36.8706L74.3193 36.8579L72.5684 34.4219ZM62.5586 43.0889L60.216 41.2148L58.5354 43.3155L60.4413 45.2142L62.5586 43.0889ZM95.1514 75.5596L93.034 77.6849L95.0651 79.7083L97.1785 77.771L95.1514 75.5596ZM98.0811 72.874L100.108 75.0855L100.156 75.0414L100.202 74.9953L98.0811 72.874ZM106.87 67.2588L108.179 69.9582L108.195 69.9503L108.212 69.9421L106.87 67.2588ZM129.453 68.2354L131.48 66.0239L131.455 66.0005L131.429 65.9776L129.453 68.2354ZM130.063 84.959L132.016 87.2368L132.043 87.2131L132.07 87.1889L130.063 84.959ZM102.598 88.1328V85.1328H99.5977V88.1328H102.598ZM102.598 130.613H99.5977V133.613H102.598V130.613ZM132.993 152.952L134.931 155.242L134.953 155.224L134.975 155.204L132.993 152.952ZM104.062 152.708L105.428 150.037L105.404 150.025L105.38 150.013L104.062 152.708ZM93.0762 146.116L95.1231 143.923L95.0879 143.89L95.0517 143.858L93.0762 146.116ZM88.8037 141.844L91.1463 139.97L89.0117 137.301L86.6421 139.763L88.8037 141.844ZM57.5537 174.314L55.3921 172.234L53.5212 174.178L55.2566 176.244L57.5537 174.314ZM60.1172 177.366L62.433 175.459L62.4237 175.448L62.4143 175.437L60.1172 177.366ZM82.334 192.869L83.8224 190.264L83.7988 190.251L83.7749 190.238L82.334 192.869ZM179.38 187.132L177.477 184.813L177.474 184.815L179.38 187.132ZM188.291 119.383L190.543 117.401L190.523 117.378L190.502 117.356L188.291 119.383ZM170.123 108.32L172.809 107.099L170.326 101.637L167.64 102.858L170.123 108.32ZM172.682 107.154C174.872 106.277 177.316 104.754 179.977 102.726L176.341 97.9535C173.875 99.8322 171.925 100.994 170.453 101.583L172.682 107.154ZM179.977 102.726C182.687 100.662 185.383 98.22 188.065 95.2826L183.634 91.237C181.189 93.9147 178.758 96.1118 176.341 97.9535L179.977 102.726ZM188.069 95.2778C190.805 92.2691 193.166 88.2845 195.089 83.6714L189.55 81.3637C187.81 85.5397 185.777 88.8794 183.63 91.2417L188.069 95.2778ZM195.089 83.6714C197.078 78.8976 198.127 73.6213 198.127 68.1133H192.127C192.127 72.8592 191.223 77.3484 189.55 81.3637L195.089 83.6714ZM198.127 68.1133C198.127 53.8342 191.331 41.4507 178.61 30.8927L174.778 35.5096C186.472 45.2154 192.127 56.0252 192.127 68.1133H198.127ZM178.597 30.8814C165.741 20.3395 149.029 15.0645 128.843 15.0645V21.0645C147.963 21.0645 163.234 26.0433 174.792 35.521L178.597 30.8814ZM128.843 15.0645C119.947 15.0645 111.538 16.0672 103.5 17.9512L104.869 23.7929C112.456 22.0148 120.405 21.0645 128.843 21.0645V15.0645ZM103.5 17.9512C95.604 19.8018 89.1421 21.8125 84.2236 24.1423L86.7921 29.5647C91.1509 27.5 97.1401 25.6044 104.869 23.7929L103.5 17.9512ZM84.2236 24.1423C79.4356 26.4103 74.8829 29.0638 70.8175 31.9858L74.3193 36.8579C78.0663 34.1647 82.3027 31.6913 86.7921 29.5647L84.2236 24.1423ZM70.853 31.9607C66.9103 34.7086 64.0255 36.8659 62.648 38.3964L67.1078 42.4102C67.9276 41.4993 70.1698 39.7504 74.2837 36.8831L70.853 31.9607ZM62.648 38.3964C61.5338 39.6344 60.7572 40.5383 60.216 41.2148L64.9012 44.963C65.3365 44.4188 66.0248 43.6136 67.1078 42.4102L62.648 38.3964ZM60.4413 45.2142L93.034 77.6849L97.2687 73.4343L64.6759 40.9636L60.4413 45.2142ZM97.1785 77.771L100.108 75.0855L96.0539 70.6626L93.1242 73.3481L97.1785 77.771ZM100.202 74.9953C101.67 73.5278 104.231 71.8724 108.179 69.9582L105.561 64.5593C101.453 66.5515 98.1543 68.5581 95.9597 70.7527L100.202 74.9953ZM108.212 69.9421C111.73 68.1827 115.302 67.3291 118.833 67.3291V61.3291C114.308 61.3291 109.822 62.4286 105.528 64.5755L108.212 69.9421ZM118.833 67.3291C122.276 67.3291 125.109 68.4205 127.478 70.4931L131.429 65.9776C127.938 62.9232 123.691 61.3291 118.833 61.3291V67.3291ZM127.426 70.4468C129.934 72.7456 130.848 74.8049 130.848 76.9023H136.848C136.848 72.6521 134.832 69.0962 131.48 66.0239L127.426 70.4468ZM130.848 76.9023C130.848 79.1139 129.954 81.0214 128.057 82.7291L132.07 87.1889C135.056 84.502 136.848 81.0384 136.848 76.9023H130.848ZM128.111 82.6812C126.248 84.2784 123.725 85.1328 120.054 85.1328V91.1328C124.683 91.1328 128.752 90.0341 132.016 87.2368L128.111 82.6812ZM120.054 85.1328H102.598V91.1328H120.054V85.1328ZM99.5977 88.1328V130.613H105.598V88.1328H99.5977ZM102.598 133.613H120.054V127.613H102.598V133.613ZM120.054 133.613C125.65 133.613 129.31 134.621 131.503 136.174C133.506 137.593 134.632 139.713 134.632 143.064H140.632C140.632 138.116 138.828 134.009 134.971 131.278C131.305 128.681 126.176 127.613 120.054 127.613V133.613ZM134.632 143.064C134.632 146.037 133.472 148.535 131.011 150.7L134.975 155.204C138.618 151.998 140.632 147.904 140.632 143.064H134.632ZM131.055 150.662C128.607 152.734 125.122 153.858 120.054 153.858V159.858C125.972 159.858 131.032 158.541 134.931 155.242L131.055 150.662ZM120.054 153.858C115.463 153.858 110.557 152.658 105.428 150.037L102.697 155.379C108.555 158.373 114.391 159.858 120.054 159.858V153.858ZM105.38 150.013C99.8796 147.324 96.5914 145.293 95.1231 143.923L91.0292 148.309C93.223 150.357 97.2591 152.721 102.745 155.403L105.38 150.013ZM95.0517 143.858C93.1571 142.201 91.9637 140.991 91.1463 139.97L86.4611 143.718C87.5969 145.138 89.089 146.614 91.1007 148.374L95.0517 143.858ZM86.6421 139.763L55.3921 172.234L59.7153 176.395L90.9653 143.924L86.6421 139.763ZM55.2566 176.244L57.8201 179.296L62.4143 175.437L59.8508 172.385L55.2566 176.244ZM57.8014 179.273C59.7822 181.679 62.9912 184.31 66.9625 187.04L70.3617 182.096C66.5205 179.455 63.8701 177.204 62.433 175.459L57.8014 179.273ZM66.9625 187.04C70.9719 189.797 75.7009 192.657 80.893 195.5L83.7749 190.238C78.7131 187.466 74.1648 184.711 70.3617 182.096L66.9625 187.04ZM80.8456 195.474C86.3022 198.592 93.3092 201.117 101.525 203.109L102.938 197.278C95.0404 195.363 88.6197 193.006 83.8224 190.264L80.8456 195.474ZM101.525 203.109C109.828 205.122 118.489 206.123 127.622 206.123V200.123C118.933 200.123 110.748 199.171 102.938 197.278L101.525 203.109ZM127.622 206.123C149.597 206.123 167.548 200.747 181.285 189.449L177.474 184.815C165.089 195.001 148.616 200.123 127.622 200.123V206.123ZM181.283 189.451C194.784 178.37 201.911 164.995 201.911 149.412H195.911C195.911 162.882 189.854 174.654 177.477 184.813L181.283 189.451ZM201.911 149.412C201.911 142.704 200.747 136.577 198.392 130.82L192.839 133.092C194.878 138.077 195.911 143.425 195.911 149.412H201.911ZM198.392 130.82C196.112 125.247 193.515 120.778 190.543 117.401L186.039 121.365C188.438 124.091 190.724 127.923 192.839 133.092L198.392 130.82ZM190.502 117.356C187.698 114.297 184.595 111.445 180.942 108.966L177.573 113.931C180.756 116.09 183.513 118.61 186.08 121.41L190.502 117.356ZM180.942 108.966C177.522 106.645 174.895 105.049 173.297 104.323L170.814 109.785C171.902 110.279 174.158 111.613 177.573 113.931L180.942 108.966ZM173.297 104.323C171.902 103.689 170.89 103.239 170.223 102.906L167.54 108.272C168.338 108.671 169.524 109.198 170.814 109.785L173.297 104.323ZM291.318 88.1328L288.343 87.7464L287.617 93.3375L292.66 90.8161L291.318 88.1328ZM293.76 69.334V66.334H291.124L290.785 68.9476L293.76 69.334ZM361.265 69.334V72.334H364.265V69.334H361.265ZM361.265 23.0693H364.265V20.0693H361.265V23.0693ZM243.833 23.0693V20.0693H241.038L240.84 22.8577L243.833 23.0693ZM236.753 123.167L233.76 122.955L233.573 125.605L236.181 126.112L236.753 123.167ZM275.083 130.613L274.511 133.558L276.077 133.862L277.204 132.735L275.083 130.613ZM277.036 128.66L279.157 130.781L279.213 130.726L279.266 130.667L277.036 128.66ZM304.99 127.928L307.071 125.767L307.052 125.748L307.032 125.729L304.99 127.928ZM304.746 150.022L306.698 152.3L306.722 152.28L306.744 152.26L304.746 150.022ZM275.571 150.633L274.205 153.304L274.23 153.316L274.255 153.329L275.571 150.633ZM261.289 140.745L263.41 138.624L261.25 136.463L259.129 138.663L261.289 140.745ZM228.818 174.437L226.658 172.355L224.741 174.344L226.566 176.418L228.818 174.437ZM231.504 177.488L229.252 179.47L229.283 179.506L229.315 179.54L231.504 177.488ZM240.293 184.568L241.993 182.096L241.975 182.084L241.957 182.072L240.293 184.568ZM254.209 192.991L252.772 195.625L252.796 195.638L252.819 195.65L254.209 192.991ZM274.473 200.193L275.179 197.278L275.169 197.275L274.473 200.193ZM355.405 99.3633L357.563 97.2786L357.551 97.2663L357.539 97.2541L355.405 99.3633ZM315 80.1279C305.351 80.1279 297.061 81.9072 289.977 85.4495L292.66 90.8161C298.759 87.7667 306.095 86.1279 315 86.1279V80.1279ZM294.293 88.5192L296.735 69.7204L290.785 68.9476L288.343 87.7464L294.293 88.5192ZM293.76 72.334H361.265V66.334H293.76V72.334ZM364.265 69.334V23.0693H358.265V69.334H364.265ZM361.265 20.0693H243.833V26.0693H361.265V20.0693ZM240.84 22.8577L233.76 122.955L239.745 123.379L246.826 23.281L240.84 22.8577ZM236.181 126.112L274.511 133.558L275.655 127.668L237.325 120.222L236.181 126.112ZM277.204 132.735L279.157 130.781L274.915 126.539L272.962 128.492L277.204 132.735ZM279.266 130.667C279.89 129.974 281.428 128.961 284.293 127.767L281.986 122.229C278.992 123.476 276.38 124.905 274.806 126.653L279.266 130.667ZM284.293 127.767C286.843 126.705 289.502 126.167 292.539 126.167V120.167C288.741 120.167 285.295 120.85 281.986 122.229L284.293 127.767ZM292.539 126.167C296.704 126.167 300.114 127.494 302.949 130.126L307.032 125.729C303.031 122.014 298.14 120.167 292.539 120.167V126.167ZM302.909 130.089C305.648 132.726 306.995 135.864 306.995 139.402H312.995C312.995 134.152 310.924 129.477 307.071 125.767L302.909 130.089ZM306.995 139.402C306.995 142.398 305.675 145.172 302.748 147.785L306.744 152.26C310.653 148.77 312.995 144.463 312.995 139.402H306.995ZM302.794 147.745C300.002 150.138 296.212 151.539 291.318 151.539V157.539C297.411 157.539 302.654 155.767 306.698 152.3L302.794 147.745ZM291.318 151.539C286.596 151.539 281.795 150.334 276.888 147.937L274.255 153.329C279.845 156.059 285.543 157.539 291.318 157.539V151.539ZM276.938 147.962C271.687 145.275 268.559 143.339 267.148 142.129L263.243 146.685C265.25 148.405 268.958 150.619 274.205 153.304L276.938 147.962ZM267.148 142.129C265.532 140.744 264.38 139.593 263.41 138.624L259.168 142.866C260.152 143.85 261.441 145.14 263.243 146.685L267.148 142.129ZM259.129 138.663L226.658 172.355L230.978 176.518L263.449 142.827L259.129 138.663ZM226.566 176.418L229.252 179.47L233.756 175.506L231.07 172.455L226.566 176.418ZM229.315 179.54C231.355 181.716 234.484 184.301 238.629 187.065L241.957 182.072C238.045 179.464 235.315 177.167 233.693 175.436L229.315 179.54ZM238.593 187.04C242.605 189.798 247.335 192.659 252.772 195.625L255.646 190.358C250.34 187.464 245.794 184.71 241.993 182.096L238.593 187.04ZM252.819 195.65C258.459 198.598 265.417 201.115 273.776 203.111L275.169 197.275C267.17 195.365 260.701 193 255.599 190.333L252.819 195.65ZM273.766 203.109C282.072 205.123 290.855 206.123 299.985 206.123V200.123C291.293 200.123 282.987 199.17 275.179 197.278L273.766 203.109ZM299.985 206.123C322.03 206.123 340.158 200.097 353.78 187.504L349.707 183.098C337.449 194.43 320.909 200.123 299.985 200.123V206.123ZM353.78 187.504C367.33 174.976 374.274 159.286 374.274 140.623H368.274C368.274 157.605 362.035 171.7 349.707 183.098L353.78 187.504ZM374.274 140.623C374.274 123.314 368.648 108.751 357.563 97.2786L353.248 101.448C363.159 111.704 368.274 124.729 368.274 140.623H374.274ZM357.539 97.2541C346.319 85.9057 332.107 80.1279 315 80.1279V86.1279C330.608 86.1279 343.251 91.3365 353.272 101.472L357.539 97.2541ZM453.916 78.4893L456.452 80.0912L456.456 80.0853L456.46 80.0793L453.916 78.4893ZM485.898 78.4893L488.435 76.8873L488.428 76.8771L488.422 76.867L485.898 78.4893ZM485.898 142.82L488.422 144.443L488.428 144.432L488.435 144.422L485.898 142.82ZM453.916 142.82L456.46 141.23L456.456 141.224L456.452 141.218L453.916 142.82ZM525.693 43.8213L527.938 41.8312L527.931 41.8228L527.923 41.8144L525.693 43.8213ZM414.121 43.8213L411.891 41.8144L411.884 41.8223L414.121 43.8213ZM414.121 177.366L416.358 175.367L416.351 175.359L414.121 177.366ZM525.693 177.366L527.93 179.365L527.931 179.364L525.693 177.366ZM450.446 110.594C450.446 96.3521 452.521 86.3153 456.452 80.0912L451.38 76.8873C446.521 84.5792 444.446 96.0268 444.446 110.594H450.446ZM456.46 80.0793C460.368 73.8265 464.899 71.1133 469.907 71.1133V65.1133C462.22 65.1133 456.009 69.4801 451.372 76.8993L456.46 80.0793ZM469.907 71.1133C474.896 71.1133 479.32 73.8043 483.375 80.1115L488.422 76.867C483.688 69.5024 477.614 65.1133 469.907 65.1133V71.1133ZM483.362 80.0912C487.302 86.329 489.49 96.3812 489.49 110.594H495.49C495.49 95.9977 493.284 84.5655 488.435 76.8873L483.362 80.0912ZM489.49 110.594C489.49 124.931 487.301 134.982 483.362 141.218L488.435 144.422C493.285 136.743 495.49 125.309 495.49 110.594H489.49ZM483.375 141.198C479.32 147.505 474.896 150.196 469.907 150.196V156.196C477.614 156.196 483.688 151.807 488.422 144.443L483.375 141.198ZM469.907 150.196C464.899 150.196 460.368 147.483 456.46 141.23L451.372 144.41C456.009 151.829 462.22 156.196 469.907 156.196V150.196ZM456.452 141.218C452.522 134.996 450.446 124.96 450.446 110.594H444.446C444.446 125.28 446.521 136.729 451.38 144.422L456.452 141.218ZM551.643 110.594C551.643 82.655 543.768 59.6872 527.938 41.8312L523.448 45.8114C538.136 62.3792 545.643 83.845 545.643 110.594H551.643ZM527.923 41.8144C512.017 24.1409 492.671 15.0645 469.907 15.0645V21.0645C490.844 21.0645 508.608 29.322 523.463 45.8282L527.923 41.8144ZM469.907 15.0645C447.143 15.0645 427.797 24.1409 411.891 41.8144L416.351 45.8282C431.207 29.322 448.97 21.0645 469.907 21.0645V15.0645ZM411.884 41.8223C395.919 59.6886 388.172 82.6658 388.172 110.594H394.172C394.172 83.8342 401.562 62.3778 416.358 45.8203L411.884 41.8223ZM388.172 110.594C388.172 138.515 395.915 161.622 411.891 179.373L416.351 175.359C401.565 158.931 394.172 137.36 394.172 110.594H388.172ZM411.884 179.365C427.8 197.176 447.153 206.123 469.907 206.123V200.123C448.961 200.123 431.204 191.98 416.358 175.367L411.884 179.365ZM469.907 206.123C492.662 206.123 512.014 197.176 527.93 179.365L523.456 175.367C508.611 191.98 490.854 200.123 469.907 200.123V206.123ZM527.931 179.364C543.772 161.623 551.643 138.526 551.643 110.594H545.643C545.643 137.349 538.133 158.93 523.456 175.368L527.931 179.364Z" fill="#C4C4C4"/>
</g>
</svg>
