<svg width="507" height="168" viewBox="0 0 507 168" fill="none" xmlns="http://www.w3.org/2000/svg">
<mask id="mask0_1_35180" style="mask-type:alpha" maskUnits="userSpaceOnUse" x="0" y="0" width="507" height="168">
<rect width="507" height="168" fill="#C4C4C4"/>
</mask>
<g mask="url(#mask0_1_35180)">
<path d="M123.779 100.471L126.465 99.25C128.296 98.5176 130.493 97.1748 133.057 95.2217C135.62 93.2686 138.184 90.9492 140.747 88.1416C143.188 85.4561 145.386 81.7939 147.217 77.3994C149.048 73.0049 150.024 68.1221 150.024 62.9951C150.024 49.8115 143.799 38.2148 131.592 28.083C119.385 18.0732 103.394 12.9463 83.7402 12.9463C75.0732 12.9463 66.8945 13.9229 59.082 15.7539C51.2695 17.585 45.0439 19.5381 40.4053 21.7354C35.7666 23.9326 31.3721 26.4961 27.4658 29.3037C23.4375 32.1113 20.874 34.0645 19.7754 35.2852C18.6768 36.5059 17.9443 37.3604 17.4561 37.9707L50.0488 70.4414L52.9785 67.7559C54.8096 65.9248 57.7393 64.0938 61.7676 62.1406C65.6738 60.1875 69.7021 59.2109 73.7305 59.2109C77.8809 59.2109 81.4209 60.5537 84.3506 63.1172C87.2803 65.8027 88.7451 68.6104 88.7451 71.7842C88.7451 74.958 87.4023 77.6436 84.9609 79.8408C82.3975 82.0381 79.1016 83.0146 74.9512 83.0146H57.4951V125.495H74.9512C86.6699 125.495 92.5293 129.646 92.5293 137.946C92.5293 141.853 90.9424 145.148 87.8906 147.834C84.7168 150.52 80.4443 151.74 74.9512 151.74C69.8242 151.74 64.4531 150.397 58.96 147.59C53.4668 144.904 49.8047 142.707 47.9736 140.998C46.0205 139.289 44.6777 137.946 43.7012 136.726L12.4512 169.196L15.0146 172.248C16.7236 174.323 19.6533 176.765 23.5596 179.45C27.4658 182.136 32.1045 184.943 37.2314 187.751C42.3584 190.681 49.0723 193.122 57.1289 195.075C65.1855 197.028 73.6084 198.005 82.5195 198.005C104.004 198.005 121.216 192.756 134.277 182.014C147.217 171.394 153.809 158.82 153.809 144.294C153.809 137.946 152.71 132.209 150.513 126.838C148.315 121.467 145.874 117.316 143.188 114.265C140.503 111.335 137.573 108.649 134.155 106.33C130.737 104.011 128.296 102.546 126.953 101.936C125.61 101.325 124.512 100.837 123.779 100.471ZM269.897 78.0098C260.62 78.0098 252.808 79.7188 246.216 83.0146L248.657 64.2158H316.162V17.9512H198.73L191.65 118.049L229.98 125.495L231.934 123.542C233.032 122.321 235.107 121.101 238.037 119.88C240.967 118.659 244.019 118.049 247.437 118.049C252.319 118.049 256.47 119.636 259.888 122.81C263.184 125.983 264.893 129.89 264.893 134.284C264.893 138.312 263.062 141.853 259.644 144.904C256.226 147.834 251.709 149.421 246.216 149.421C240.967 149.421 235.718 148.078 230.469 145.515C225.22 142.829 221.802 140.754 220.093 139.289C218.384 137.824 217.163 136.604 216.187 135.627L183.716 169.318L186.401 172.37C188.232 174.323 191.162 176.765 195.19 179.45C199.097 182.136 203.735 184.943 209.106 187.873C214.478 190.681 221.191 193.122 229.37 195.075C237.427 197.028 245.972 198.005 254.883 198.005C276.367 198.005 293.701 192.146 306.641 180.183C319.58 168.22 326.172 153.327 326.172 135.505C326.172 118.903 320.801 105.109 310.303 94.2451C299.683 83.5029 286.255 78.0098 269.897 78.0098ZM402.344 105.476C402.344 91.0713 404.419 80.3291 408.813 73.3711C413.086 66.5352 418.457 62.9951 424.805 62.9951C431.152 62.9951 436.401 66.5352 440.796 73.3711C445.19 80.3291 447.388 91.0713 447.388 105.476C447.388 120.002 445.19 130.744 440.796 137.702C436.401 144.538 431.152 148.078 424.805 148.078C418.457 148.078 413.086 144.538 408.813 137.702C404.419 130.744 402.344 120.002 402.344 105.476ZM503.54 105.476C503.54 78.1318 495.85 55.915 480.591 38.7031C465.21 21.6133 446.655 12.9463 424.805 12.9463C402.954 12.9463 384.399 21.6133 369.019 38.7031C353.638 55.915 346.069 78.1318 346.069 105.476C346.069 132.819 353.638 155.158 369.019 172.248C384.399 189.46 402.954 198.005 424.805 198.005C446.655 198.005 465.21 189.46 480.591 172.248C495.85 155.158 503.54 132.819 503.54 105.476Z" fill="white"/>
</g>
</svg>
